<svg width="61" height="61" viewBox="0 0 61 61" fill="none" xmlns="http://www.w3.org/2000/svg">
<g clip-path="url(#clip0_949_2465)">
<path d="M16.2536 54.2807C9.54438 54.2675 3.40218 48.4301 3.54378 41.4611C3.68178 34.6529 9.37758 29.5931 15.716 30.6455C22.142 31.7123 25.352 38.7311 21.7106 43.7543C19.0154 47.4719 13.6394 47.6657 11.0114 44.1389C8.91558 41.3261 10.1258 37.0847 13.2962 36.0773C13.9832 35.8589 14.6066 35.7827 14.876 36.5879C15.1214 37.3223 14.6018 37.5839 13.9922 37.8401C11.5154 38.8793 11.072 41.8691 13.124 43.6331C14.5748 44.8799 16.2584 45.1637 17.9888 44.4077C20.108 43.4819 21.1904 41.7035 21.3266 39.4439C21.6128 34.7081 16.4456 31.1765 11.594 32.7347C5.68219 34.6337 3.49639 42.6215 7.48819 47.7353C12.284 53.8793 21.4232 53.9789 26.6354 47.9447C31.4672 42.3497 31.6844 34.5227 27.1706 28.6217C27.1148 28.5491 27.059 28.4765 27.0002 28.4069C26.5532 27.8819 26.198 27.2831 26.8544 26.7371C27.5114 26.1905 28.0304 26.6555 28.4624 27.1895C30.188 29.3237 31.331 31.7345 31.9214 34.4159C33.4586 41.4029 30.1862 48.9833 24.1124 52.4555C21.923 53.7065 19.562 54.3215 16.2536 54.2807Z" fill="#FF4C00"/>
<path d="M41.5766 39.5936C41.4656 43.0376 41.0216 46.0526 39.9392 48.947C39.6986 49.5896 39.446 50.3888 38.54 50.0846C37.5506 49.7528 37.8728 48.9752 38.123 48.2546C43.1438 33.8024 34.8446 18.983 19.9244 15.746C19.7018 15.6974 19.4864 15.6002 19.262 15.5786C18.5282 15.5084 18.1508 15.1244 18.3044 14.3942C18.4658 13.6274 19.0646 13.5764 19.7036 13.7C22.2674 14.1962 24.7676 14.9312 27.0614 16.1828C35.774 20.9396 40.658 28.2368 41.4644 38.1908C41.5118 38.7824 41.5592 39.3722 41.5766 39.5936Z" fill="#263746"/>
<path d="M44.4067 55.8911C44.5555 48.2507 47.1601 41.6435 52.7935 36.3473C53.2375 35.9297 53.7001 35.4539 54.3271 35.9057C55.1989 36.5333 54.7873 37.1549 54.1837 37.7009C50.5165 41.0189 48.2329 45.1547 47.0065 49.9049C46.3033 52.6265 46.1539 55.4016 46.3099 58.2C46.3477 58.8798 46.5013 59.6939 45.4819 59.7509C44.4043 59.8109 44.4229 58.9679 44.4103 58.2215C44.3959 57.4445 44.4067 56.6675 44.4067 55.8911Z" fill="#263746"/>
<path d="M40.9106 13.5474C41.1056 8.76003 42.9482 4.71963 47.0072 1.82223C47.3042 1.61043 47.6234 1.43043 47.9336 1.23843C48.4988 0.888027 49.0964 0.771028 49.4906 1.41183C49.8776 2.04063 49.5686 2.55842 48.9596 2.87642C43.9754 5.48102 41.1248 12.675 43.9994 19.0014C44.285 19.629 44.4194 20.3232 43.6568 20.6532C42.8966 20.982 42.5006 20.4174 42.2192 19.776C41.3624 17.8236 40.9748 15.7752 40.9106 13.5474Z" fill="#263746"/>
<path d="M29.8556 6.16753C29.8718 4.63213 31.1372 3.40933 32.663 3.45433C34.1792 3.49933 35.3828 4.79473 35.3324 6.32713C35.2838 7.79473 34.0676 8.95213 32.573 8.95273C31.0238 8.95333 29.8394 7.73953 29.8556 6.16753Z" fill="#FF4C00"/>
<path d="M55.8026 26.2837C54.839 26.3143 54.0074 25.5655 54.047 24.6157C54.0878 23.6377 54.5918 22.9825 55.6232 22.9225C56.7128 22.8595 57.3272 23.4589 57.4478 24.5071C57.557 25.4521 56.7734 26.2537 55.8026 26.2837Z" fill="#FF4C00"/>
<path d="M49.3315 32.3626C48.3937 32.2282 47.7451 31.7704 47.7031 30.7126C47.6641 29.7232 48.4069 28.9624 49.3879 28.9648C50.3773 28.9678 51.0967 29.7233 51.0427 30.7319C50.9863 31.7795 50.3635 32.2636 49.3315 32.3626Z" fill="#FF4C00"/>
</g>
<defs>
<clipPath id="clip0_949_2465">
<rect width="60" height="60" fill="white" transform="translate(0.5 0.351562)"/>
</clipPath>
</defs>
</svg>
