<svg width="61" height="61" viewBox="0 0 61 61" fill="none" xmlns="http://www.w3.org/2000/svg">
<g clip-path="url(#clip0_949_2361)">
<path d="M26.5105 59.7416C23.1013 59.7416 19.6921 59.75 16.2835 59.7392C14.0491 59.732 13.1545 58.8752 13.0945 56.6192C12.9973 52.9916 12.1843 49.5398 10.6753 46.247C10.6201 46.1264 10.5937 45.9926 10.5337 45.8756C10.2193 45.2708 10.0711 44.6432 10.8055 44.282C11.5639 43.9094 11.9275 44.4692 12.2053 45.0716C13.3555 47.5688 14.1793 50.1626 14.6173 52.8842C14.8225 54.1562 14.9005 55.433 14.9323 56.7128C14.9539 57.5594 15.3133 57.896 16.1467 57.8942C23.0533 57.8828 29.9599 57.8792 36.8671 57.8984C37.7917 57.9008 38.1253 57.5366 38.0827 56.6264C38.0281 55.4336 38.0203 54.2336 38.0851 53.0414C38.1655 51.5444 38.7733 50.9966 40.2637 50.9834C42.2113 50.9678 44.1595 50.9816 46.1071 50.9786C49.0249 50.9744 50.6089 49.4366 50.6677 46.5092C50.6989 44.9606 50.7001 43.4096 50.6605 41.8616C50.6431 41.183 50.8411 40.979 51.5509 40.9556C55.0351 40.8416 56.2711 38.7104 54.7621 35.5148C54.3295 34.5992 53.8885 33.6866 53.4631 32.7674C52.0087 29.6192 50.2987 26.5868 50.2837 22.931C50.2759 21.0416 49.5535 19.2164 48.8503 17.4488C48.5857 16.7834 48.5125 16.2152 49.2991 15.9392C49.9999 15.6926 50.3329 16.1516 50.5675 16.7414C51.4891 19.0514 52.1563 21.4358 52.3057 23.9162C52.4041 25.5386 52.7749 27.023 53.5039 28.4738C54.6307 30.719 55.6849 33.002 56.7175 35.2928C58.2001 38.5814 56.6929 41.816 53.2021 42.7328C52.5097 42.9146 52.5343 43.2314 52.5199 43.7318C52.4809 45.1442 52.6249 46.5578 52.3729 47.9696C51.8617 50.8292 49.6897 52.763 46.7713 52.826C44.8687 52.8668 42.9619 52.8854 41.0611 52.8128C40.1029 52.7768 39.8341 53.1116 39.9061 54.017C39.9793 54.941 39.9277 55.8758 39.9211 56.8046C39.9061 58.7906 39.0103 59.7212 37.0033 59.7356C33.5059 59.7602 30.0079 59.7416 26.5105 59.7416Z" fill="#263746"/>
<path d="M3.7328 26.9646C3.7328 14.9496 11.0504 4.70757 21.8612 1.85577C31.3808 -0.655231 39.4472 2.11977 46.064 9.31497C46.5182 9.80877 46.8566 10.3896 46.289 10.938C45.6164 11.5878 45.0896 11.0466 44.6318 10.527C41.282 6.72777 37.187 4.15857 32.18 3.22857C22.8638 1.49757 13.8236 5.65797 9.026 14.0322C4.5866 21.7812 4.4264 29.8002 8.0648 37.923C8.1368 38.0844 8.2106 38.2464 8.3006 38.3976C8.672 39.0216 8.8952 39.6876 8.0768 40.0752C7.349 40.4202 6.9602 39.8808 6.6554 39.2784C5.555 37.0986 4.7354 34.8186 4.268 32.4252C3.9032 30.558 3.641 28.674 3.7328 26.9646Z" fill="#263746"/>
<path d="M28.3201 17.5273C32.3389 17.7007 35.5117 19.5505 37.3303 23.2933C39.1387 27.0169 38.7379 30.6733 36.2863 34.0519C35.8447 34.6603 35.3449 35.2249 34.8901 35.8231C34.5103 36.3223 34.0333 36.5113 33.5191 36.1339C32.9905 35.7451 33.0757 35.2063 33.4321 34.7263C33.8797 34.1239 34.3645 33.548 34.8211 32.9516C36.9703 30.1514 37.1653 26.3287 35.3155 23.3779C33.4153 20.3455 29.8357 18.7951 26.3845 19.5085C22.9177 20.2255 20.2495 22.9477 19.7359 26.4253C19.3405 29.1049 20.0269 31.5175 21.8707 33.5449C22.9333 34.7125 23.7073 36.0337 24.0991 37.5613C24.2551 38.1691 24.3793 38.8741 23.5471 39.0913C22.7371 39.3031 22.4773 38.7224 22.3249 38.054C22.0207 36.7232 21.2497 35.6647 20.3893 34.6303C17.5837 31.2589 16.9705 27.4652 18.7621 23.486C20.5507 19.5152 23.8495 17.6521 28.3201 17.5273Z" fill="#FF4C00"/>
<path d="M27.1443 39.6241C28.2495 39.6241 29.3565 39.6385 30.4617 39.6181C31.1013 39.6061 31.6556 39.7009 31.6586 40.4863C31.661 41.2243 31.1474 41.4583 30.5018 41.4613C28.7324 41.4703 26.9618 41.5051 25.1948 41.4463C24.4256 41.4211 24.3189 41.7397 24.3609 42.3805C24.4809 44.1739 25.9773 45.6805 27.8037 45.8005C29.8239 45.9337 31.5338 44.6065 31.8386 42.5773C31.9508 41.8321 31.952 41.0383 32.972 41.2153C33.9746 41.3905 33.7671 42.2635 33.6609 42.9343C33.2037 45.8365 30.6549 47.8411 27.7209 47.6527C24.8283 47.4679 22.6587 45.2395 22.5093 42.2995C22.5045 42.2113 22.5074 42.1225 22.505 42.0343C22.4426 39.6343 22.4523 39.6235 24.8889 39.6235C25.6407 39.6241 26.3925 39.6241 27.1443 39.6241Z" fill="#263746"/>
<path d="M28.9983 13.1348C28.9983 13.7078 29.0169 14.282 28.9929 14.8538C28.9695 15.422 28.6725 15.7628 28.0743 15.7466C27.5505 15.7328 27.2379 15.4316 27.2265 14.921C27.2019 13.7312 27.2073 12.5402 27.2259 11.3504C27.2349 10.826 27.5589 10.5398 28.0719 10.5278C28.6545 10.514 28.9773 10.841 29.0013 11.4152C29.0259 11.9876 29.0067 12.5612 29.0067 13.1348H28.9983Z" fill="#FF4C00"/>
<path d="M36.9261 19.3591C36.5901 19.3507 36.3081 19.2361 36.1371 18.9517C35.9103 18.5743 35.9133 18.1537 36.2043 17.8381C37.0131 16.9633 37.8387 16.1011 38.7021 15.2821C39.0483 14.9539 39.5157 14.9455 39.9039 15.3013C40.2471 15.6163 40.3065 16.0999 40.0515 16.3855C39.1749 17.3701 38.2215 18.2869 37.2879 19.2193C37.2033 19.3039 37.0449 19.3153 36.9261 19.3591Z" fill="#FF4C00"/>
<path d="M20.2191 18.3892C20.2209 18.7702 20.0781 19.0192 19.7961 19.2016C19.4001 19.4584 19.0035 19.3816 18.7077 19.0936C17.8593 18.2692 17.0361 17.4172 16.2291 16.552C15.8853 16.183 15.8985 15.733 16.2261 15.3556C16.5117 15.028 16.9527 14.9026 17.2941 15.1642C18.3735 15.9922 19.2549 17.0302 20.1411 18.0556C20.2155 18.1426 20.2017 18.3058 20.2191 18.3892Z" fill="#FF4C00"/>
<path d="M14.0749 28.156C13.4563 28.156 12.8347 28.1908 12.2191 28.1452C11.7217 28.108 11.4223 27.8062 11.4139 27.2704C11.4067 26.7358 11.6965 26.389 12.1915 26.3764C13.4281 26.3452 14.6672 26.3554 15.9026 26.419C16.3916 26.4442 16.7036 26.8342 16.6592 27.34C16.6166 27.8194 16.3178 28.1644 15.8006 28.1902C15.227 28.219 14.6504 28.1968 14.0756 28.1968C14.075 28.183 14.0749 28.1692 14.0749 28.156Z" fill="#FF4C00"/>
<path d="M42.1123 28.2032C41.5813 28.2032 41.0509 28.2139 40.5211 28.2001C39.9547 28.1851 39.5881 27.8924 39.5611 27.3182C39.5347 26.729 39.9049 26.4122 40.4617 26.3918C41.5663 26.3504 42.6716 26.3444 43.7762 26.3438C44.4008 26.3432 44.8352 26.6906 44.8154 27.299C44.7968 27.9212 44.3191 28.181 43.7023 28.1678C43.1725 28.157 42.6422 28.1654 42.113 28.1654C42.1124 28.178 42.1123 28.1906 42.1123 28.2032Z" fill="#FF4C00"/>
</g>
<defs>
<clipPath id="clip0_949_2361">
<rect width="60" height="60" fill="white" transform="translate(0.5 0.351562)"/>
</clipPath>
</defs>
</svg>
