<svg width="61" height="61" viewBox="0 0 61 61" fill="none" xmlns="http://www.w3.org/2000/svg">
<g clip-path="url(#clip0_949_2400)">
<path d="M55.6712 41.2883C54.7214 41.6339 53.1992 42.1505 52.2692 42.5267C51.6524 42.7769 51.101 42.8261 50.8022 42.1403C50.4608 41.3567 50.972 41.0165 51.6266 40.7663C53.2904 40.1291 54.9476 39.4757 56.6036 38.8169C57.3704 38.5109 57.872 38.6741 58.1462 39.5111C58.7426 41.3297 59.3642 43.1411 60.0068 44.9447C60.2288 45.5693 60.2606 46.1417 59.5778 46.4063C58.8194 46.6985 58.4294 46.2083 58.2056 45.5369C57.8864 44.5811 57.4982 43.4735 57.1682 42.5075C57.1682 42.5075 56.6864 43.3091 56.504 43.6463C51.287 53.3117 43.2386 58.7903 32.2778 59.6591C16.922 60.8747 3.34521 49.8419 1.12641 34.5713C0.783215 32.2073 0.816812 29.8493 0.932012 27.4823C0.966212 26.7809 1.09581 26.0315 2.01081 26.1023C2.97321 26.1767 2.84482 26.9633 2.79202 27.6413C2.26702 34.4273 3.74181 40.7111 7.76721 46.2479C12.8936 53.2985 19.8296 57.2195 28.5728 57.8231C39.413 58.5713 49.9598 52.5443 54.7988 42.8291C54.9824 42.4589 55.6712 41.2883 55.6712 41.2883Z" fill="#263746"/>
<path d="M7.49673 14.7539C7.49673 14.7539 9.93333 14.4161 11.0595 14.2787C11.6979 14.2007 12.5325 13.9667 12.6951 14.9219C12.8649 15.9209 12.0765 16.0109 11.3235 16.1345C9.51933 16.4309 7.72294 16.7753 5.92774 17.1227C5.04574 17.2931 4.52193 16.9703 4.43073 16.0775C4.22133 14.0333 4.04313 11.9861 3.84933 9.94008C3.78693 9.27768 3.76473 8.61708 4.67553 8.58108C5.53953 8.54688 5.64873 9.19729 5.71593 9.85309C5.82573 10.9175 5.94693 12.1085 6.06393 13.2347C6.06393 13.2347 6.72453 12.5579 6.97593 12.2471C12.5931 5.29968 19.8219 1.48309 28.7697 0.992892C43.8141 0.169092 57.3177 11.0837 59.4051 26.6237C59.4465 26.9333 59.4387 27.2489 59.4651 27.5609C59.5227 28.2449 59.4237 28.9193 58.5957 28.9319C57.8127 28.9439 57.6621 28.3067 57.5913 27.6143C56.9283 21.1577 54.3285 15.5795 49.7529 10.9907C44.6517 5.87569 38.4705 3.07369 31.2087 2.87089C21.4209 2.59789 13.6683 6.55309 7.79614 14.3183C7.72054 14.4173 7.49673 14.7539 7.49673 14.7539Z" fill="#263746"/>
<path d="M31.7893 20.3003C31.7893 17.8397 31.7869 15.3797 31.7917 12.9191C31.7929 12.3281 31.8517 11.6423 31.1539 11.4563C30.4831 11.2775 30.1543 11.8547 29.8423 12.3683C27.3409 16.4933 24.8299 20.6129 22.3189 24.7313C22.1101 25.0733 21.9037 25.4237 21.6475 25.7291C21.3577 26.0759 20.9659 26.1509 20.5603 25.9205C20.1589 25.6931 20.0047 25.3205 20.1439 24.8939C20.2531 24.5597 20.4409 24.2465 20.6251 23.9435C23.1997 19.7057 25.7761 15.4691 28.3597 11.2367C29.2813 9.72646 30.2905 9.24826 31.6639 9.63646C32.9653 10.0043 33.6307 11.0279 33.6349 12.7655C33.6469 17.1941 33.6769 21.6233 33.6121 26.0507C33.5959 27.1415 33.9319 27.4277 34.9657 27.3617C36.3025 27.2765 37.6489 27.3155 38.9905 27.3473C41.3041 27.4031 42.5437 29.5085 41.3737 31.4777C39.2977 34.9715 37.1575 38.4281 35.0425 41.8997C34.6951 42.4703 34.2829 42.9929 33.5491 42.5105C32.8201 42.0317 33.1543 41.4365 33.4933 40.8779C35.4847 37.5935 37.4845 34.3139 39.4651 31.0217C40.2787 29.6687 39.9955 29.1785 38.4127 29.1635C36.8023 29.1485 35.1919 29.1677 33.5815 29.1581C31.9669 29.1473 31.7941 28.9775 31.7917 27.4133C31.7863 25.0421 31.7893 22.6715 31.7893 20.3003Z" fill="#FF4C00"/>
<path d="M27.3865 39.9706C27.3871 42.4306 27.3793 44.89 27.3931 47.3494C27.3961 47.8714 27.3229 48.5008 28.0189 48.6694C28.6585 48.8242 28.9825 48.3544 29.2705 47.8798C29.8267 46.9636 30.3835 46.048 30.9457 45.136C31.2973 44.5636 31.7227 44.0584 32.4487 44.5414C33.0847 44.9644 32.8879 45.523 32.5495 46.066C31.9117 47.089 31.3003 48.1288 30.6577 49.1494C29.8453 50.44 28.7899 50.8996 27.4867 50.497C26.1577 50.086 25.5667 49.1068 25.5637 47.7586C25.5535 43.3312 25.4953 38.902 25.5931 34.477C25.6243 33.0796 25.2127 32.6854 23.8735 32.7976C22.5421 32.9098 21.1873 32.8786 19.8523 32.782C17.9059 32.641 16.7797 30.682 17.6053 28.9768C17.8693 28.4296 18.2395 27.9316 18.9499 28.171C19.6885 28.42 19.6621 29.002 19.4107 29.5996C18.9439 30.7102 19.5907 30.9724 20.4853 30.9856C22.0951 31.0096 23.7049 30.9928 25.3153 30.994C27.3193 30.9964 27.3859 31.0648 27.3871 33.1288C27.3871 35.4088 27.3859 37.6894 27.3865 39.9706Z" fill="#FF4C00"/>
</g>
<defs>
<clipPath id="clip0_949_2400">
<rect width="60" height="60" fill="white" transform="translate(0.5 0.351562)"/>
</clipPath>
</defs>
</svg>
