<svg width="61" height="61" viewBox="0 0 61 61" fill="none" xmlns="http://www.w3.org/2000/svg">
<g clip-path="url(#clip0_949_2442)">
<path d="M33.1658 51.2614C35.6222 51.2614 38.0786 51.2716 40.5344 51.259C43.7558 51.2428 46.3268 49.8994 48.1658 47.2822C51.2912 42.8308 54.3566 38.3362 57.4364 33.853C58.4534 32.3728 58.3448 31.1086 57.161 30.1876C56.036 29.3128 54.6368 29.5876 53.5622 30.9196C50.9276 34.1842 48.2654 37.4272 45.6896 40.7374C44.4662 42.3106 43.0058 43.0966 40.9916 43.0222C38.717 42.937 36.4364 43.0144 34.1582 42.9988C32.3948 42.9862 31.3352 42.0376 31.3208 40.5052C31.3058 38.9122 32.393 37.8874 34.193 37.864C36.2018 37.8382 38.2184 37.7566 40.22 37.8874C42.062 38.008 43.1144 36.5986 43.1042 35.4214C43.0916 33.9838 41.9066 33.0208 40.1558 33.0166C37.5662 33.01 34.9736 32.9818 32.3852 33.0298C31.2884 33.0502 30.4178 32.7178 29.5994 31.9924C25.379 28.252 19.8056 28.0678 15.2726 31.462C14.6756 31.909 13.9922 32.8516 13.2566 31.9102C12.5408 30.9934 13.5584 30.5116 14.1566 30.0358C18.9632 26.2132 26.393 26.353 30.6332 30.4858C31.2146 31.0516 31.8944 31.2346 32.7008 31.2232C35.246 31.1896 37.7912 31.2028 40.3382 31.213C42.9866 31.2244 44.9108 32.998 44.927 35.4208C44.9444 37.9144 43.019 39.6814 40.2722 39.6874C38.3072 39.6916 36.3416 39.6922 34.3766 39.6862C33.764 39.6844 33.1298 39.691 33.1778 40.5352C33.2222 41.2984 33.8624 41.2384 34.3904 41.2408C36.713 41.2498 39.0356 41.2522 41.357 41.242C42.4436 41.2366 43.2884 40.8106 43.9892 39.9262C46.73 36.4612 49.511 33.0256 52.3016 29.599C53.8862 27.6538 56.3834 27.301 58.2386 28.7098C60.1028 30.1252 60.479 32.6086 59.0696 34.6684C55.8986 39.3052 52.7288 43.9438 49.4918 48.535C47.3648 51.5512 44.3204 53.0146 40.6802 53.0716C35.5004 53.1532 30.3194 53.0866 25.1384 53.0986C24.416 53.1004 23.6612 53.0338 23.6516 52.168C23.6414 51.274 24.4142 51.25 25.127 51.2542C27.8066 51.2704 30.4862 51.2614 33.1658 51.2614Z" fill="#263746"/>
<path d="M8.71411 32.3837C11.2611 32.4047 13.0695 33.4865 14.1519 35.6105C16.5351 40.2857 18.8745 44.9837 21.1791 49.6979C22.6467 52.7003 21.5415 56.0237 18.6117 57.6029C17.4381 58.2353 16.2381 58.8227 15.0291 59.3855C13.4181 60.1343 12.1179 59.7431 11.3199 58.1639C8.00732 51.6065 4.71932 45.0371 1.46012 38.4533C0.651316 36.8183 1.12891 35.4713 2.81191 34.7087C4.77391 33.8195 6.52231 32.3405 8.71411 32.3837ZM8.71771 34.1363C6.91231 34.3325 5.41232 35.5583 3.70232 36.2729C2.92532 36.5975 2.78671 37.0829 3.17911 37.8617C6.40171 44.2499 9.60632 50.6483 12.7851 57.0581C13.1859 57.8663 13.6101 58.1231 14.4453 57.6701C15.5391 57.0761 16.6887 56.5841 17.7819 55.9877C19.8363 54.8651 20.5917 52.6211 19.5549 50.5055C17.2443 45.7913 14.8917 41.0981 12.5241 36.4121C11.7753 34.9325 10.4817 34.2359 8.71771 34.1363Z" fill="#263746"/>
<path d="M32.1291 26.316C29.4507 26.316 26.7723 26.325 24.0945 26.313C22.1715 26.3046 21.2499 25.3524 21.1599 23.4606C20.9967 20.0112 21.8145 16.9182 24.2811 14.3838C24.7503 13.9014 25.2669 13.2726 25.9635 13.9002C26.6865 14.5524 26.0775 15.081 25.6011 15.5712C23.4669 17.7666 22.7715 20.4462 22.9323 23.4288C22.9743 24.2106 23.3199 24.5496 24.0951 24.5484C29.4957 24.5406 34.8963 24.5382 40.2975 24.5508C41.1753 24.5526 41.4591 24.1008 41.4867 23.3034C41.5923 20.3748 40.8831 17.736 38.7951 15.576C38.3241 15.0888 37.6899 14.5764 38.4201 13.911C39.1077 13.2828 39.6387 13.878 40.1097 14.367C42.7911 17.148 43.5303 20.5422 43.1427 24.2514C43.0089 25.5318 41.9193 26.3016 40.4307 26.3112C37.6635 26.3286 34.8957 26.316 32.1291 26.316Z" fill="#FF4C00"/>
<path d="M32.1393 0.953262C36.3777 0.928062 39.9122 4.37507 39.8996 8.52107C39.8858 12.6041 36.3957 16.0535 32.2461 16.0853C28.0425 16.1177 24.5103 12.6533 24.5025 8.49046C24.4953 4.38526 27.9465 0.978462 32.1393 0.953262ZM31.9838 14.2805C35.2508 14.3621 38.0181 11.8091 38.0943 8.64226C38.1681 5.54866 35.5185 2.79706 32.3943 2.72386C29.1585 2.64766 26.3672 5.21927 26.273 8.36327C26.1818 11.4275 28.859 14.2019 31.9838 14.2805Z" fill="#FF4C00"/>
</g>
<defs>
<clipPath id="clip0_949_2442">
<rect width="60" height="60" fill="white" transform="translate(0.5 0.351562)"/>
</clipPath>
</defs>
</svg>
