<svg width="61" height="61" viewBox="0 0 61 61" fill="none" xmlns="http://www.w3.org/2000/svg">
<g clip-path="url(#clip0_949_2416)">
<path d="M2.43857 30.3738C2.43857 23.8596 2.43617 17.3454 2.43917 10.8312C2.44217 5.01357 6.47296 0.959375 12.2486 0.958775C20.84 0.958175 29.432 0.942571 38.0234 0.965971C41.66 0.976171 44.3138 2.73718 46.1912 5.77858C46.5698 6.39178 46.8194 7.06077 46.0424 7.49757C45.3212 7.90317 44.9378 7.33737 44.5964 6.76857C42.953 4.02537 40.5428 2.76357 37.3268 2.78397C28.9574 2.83737 20.5868 2.80017 12.2168 2.80317C7.58417 2.80437 4.29557 6.08817 4.29317 10.743C4.28477 23.7714 4.28537 36.7998 4.29257 49.8282C4.29557 54.5826 7.62977 57.876 12.4214 57.8784C20.747 57.8826 29.0726 57.8832 37.3988 57.8778C41.9804 57.8748 45.1538 54.9612 45.5564 50.3658C45.6146 49.6968 45.821 49.1952 46.5326 49.2162C47.2598 49.2378 47.3978 49.7808 47.42 50.4354C47.5766 55.14 43.1582 59.6634 38.1416 59.7024C29.3288 59.7714 20.5154 59.7666 11.7032 59.7042C6.55637 59.667 2.47037 55.4106 2.44637 50.1816C2.41637 43.5786 2.43857 36.9762 2.43857 30.3738Z" fill="#263746"/>
<path d="M39.3103 7.81283C44.0689 7.98263 48.7225 10.349 52.0549 15.188C52.4677 15.788 52.9424 16.4564 52.067 16.9958C51.2606 17.4926 50.9216 16.7768 50.5262 16.2302C46.8398 11.135 41.8454 8.81543 35.6576 9.93263C29.0792 11.1206 25.0424 15.2828 23.6426 21.8114C21.7718 30.5372 28.9135 39.1166 37.8289 39.3296C44.8363 39.4976 52.358 34.2164 53.003 25.4858C53.0557 24.7742 53.2369 24.1856 54.0127 24.2366C54.7939 24.2876 54.9187 24.9164 54.8617 25.6166C54.4723 30.4034 52.4755 34.3778 48.7471 37.3964C47.8681 38.108 47.9167 38.5322 48.4549 39.3926C51.7105 44.6054 54.9037 49.8578 58.1203 55.0958C58.3735 55.508 58.7353 55.889 58.4881 56.4272C58.3292 56.7716 58.0483 56.99 57.6571 56.9894C57.0817 56.987 56.8291 56.5502 56.5711 56.1302C54.6745 53.0396 52.7785 49.9484 50.8789 46.8608C49.4893 44.6 48.0517 42.368 46.7221 40.073C46.2793 39.3086 45.923 39.3062 45.1856 39.632C35.075 44.111 23.9887 38.36 21.8125 27.5354C19.7725 17.3966 27.8101 7.74743 39.3103 7.81283Z" fill="#263746"/>
<path d="M46.9315 29.7305C45.6343 29.7269 45.3871 30.0629 45.7711 31.3073C46.2973 33.0107 46.0765 33.4211 43.9519 34.6967C42.5299 35.5511 41.9167 35.4845 40.8049 34.3517C39.8965 33.4271 39.4621 33.4847 38.9107 34.7291C38.3611 35.9699 37.4479 36.2945 36.2131 36.0155C35.8681 35.9375 35.5267 35.8451 35.1805 35.7749C33.8611 35.5067 33.2047 34.7741 33.2767 33.3569C33.3433 32.0501 32.9773 31.8334 31.7041 32.2348C30.1153 32.7352 29.6275 32.503 28.5355 30.727C27.4525 28.9678 27.4759 28.5214 28.7179 27.2464C29.5495 26.3926 29.4673 25.9577 28.3705 25.4003C26.7889 24.5969 26.6341 24.0689 27.2533 21.5981C27.6343 20.0801 28.1539 19.6901 29.8123 19.7531C30.8611 19.7927 31.1503 19.3043 30.8785 18.3557C30.2935 16.3187 31.9579 14.1929 34.1029 14.2175C34.7803 14.2253 35.2561 14.5571 35.7031 15.0287C36.6097 15.9845 37.0729 15.9125 37.6231 14.7803C38.3425 13.3001 38.9575 13.0655 40.8973 13.5329C42.9637 14.0309 43.2841 14.3957 43.2499 16.2185C43.2307 17.2619 43.7161 17.6099 44.7541 17.2967C46.6315 16.7303 46.9657 16.8875 48.2005 18.9227C49.1371 20.4665 49.0783 21.0052 47.8345 22.2785C47.0809 23.0489 47.1835 23.5852 48.1765 24.0707C49.6849 24.8081 49.9201 25.3643 49.4941 27.1859C48.9859 29.3597 48.6073 29.7353 46.9315 29.7305ZM30.3541 21.6011C29.1301 21.5339 29.1751 21.5471 28.8799 22.5461C28.6291 23.3927 29.0131 23.7035 29.7241 24.0053C31.4245 24.7265 31.7611 27.0419 30.3301 28.2563C29.7559 28.7441 29.5933 29.0639 30.0553 29.7539C30.4927 30.4085 30.8011 30.6623 31.6231 30.3119C33.4501 29.5325 35.2495 30.8795 35.1007 32.9093C35.0383 33.7601 35.4289 33.9491 36.0991 34.1189C36.7525 34.2839 37.1269 34.2197 37.4389 33.5159C38.3095 31.5515 40.4239 31.2335 41.8915 32.8307C42.3295 33.3071 42.6463 33.4529 43.1935 33.0203C43.6615 32.6501 44.2699 32.5174 43.9513 31.627C43.1731 29.452 44.3359 27.8135 46.6009 27.8993C47.4325 27.9311 47.5393 27.5123 47.6851 26.9189C47.8357 26.3015 47.8315 25.9025 47.1067 25.5767C45.0997 24.6737 44.7769 22.5737 46.3993 21.1229C46.8967 20.6783 46.9201 20.3969 46.6267 19.8077C46.1557 18.8639 45.6319 18.8717 44.7643 19.2575C43.3825 19.8719 41.3029 18.3611 41.4001 16.8809C41.4469 16.1657 41.5921 15.5507 40.5601 15.3041C39.5485 15.0623 39.2671 15.5309 38.9425 16.2935C38.3221 17.7503 35.9233 18.1187 34.9045 16.9193C34.4101 16.3367 34.0813 15.9029 33.2023 16.4813C32.3941 17.0135 32.4577 17.4563 32.7727 18.2057C33.4129 19.7297 31.9807 21.6911 30.3541 21.6011Z" fill="#FF4C00"/>
<path d="M38.2911 19.2656C41.3025 19.2656 43.6503 21.488 43.7571 24.44C43.8687 27.4982 41.6985 29.984 38.7111 30.1928C38.0133 30.2414 37.1607 30.365 37.0881 29.3384C37.0203 28.382 37.7841 28.4186 38.4741 28.3652C40.6617 28.196 42.1539 26.4248 41.9271 24.3164C41.7051 22.2572 39.8991 20.8454 37.8117 21.0998C35.7351 21.3524 34.3485 23.2454 34.7073 25.4162C34.8213 26.1044 35.0511 26.8154 34.1181 26.9966C33.0843 27.1976 33.0117 26.297 32.8809 25.6358C32.2281 22.3268 34.8441 19.2656 38.2911 19.2656Z" fill="#FF4C00"/>
<path d="M16.2787 22.3033H8.53153C8.03233 22.3033 7.62793 21.8989 7.62793 21.3997C7.62793 20.9005 8.03233 20.4961 8.53153 20.4961H16.2787C16.7773 20.4961 17.1823 20.9005 17.1823 21.3997C17.1823 21.8989 16.7773 22.3033 16.2787 22.3033Z" fill="#FF4C00"/>
<path d="M18.1015 26.2916H8.53153C8.03233 26.2916 7.62793 25.8872 7.62793 25.388C7.62793 24.8888 8.03233 24.4844 8.53153 24.4844H18.1015C18.6001 24.4844 19.0051 24.8888 19.0051 25.388C19.0051 25.8872 18.6001 26.2916 18.1015 26.2916Z" fill="#FF4C00"/>
<path d="M18.1015 30.276H8.53153C8.03233 30.276 7.62793 29.8716 7.62793 29.3724C7.62793 28.8732 8.03233 28.4688 8.53153 28.4688H18.1015C18.6001 28.4688 19.0051 28.8732 19.0051 29.3724C19.0051 29.8716 18.6001 30.276 18.1015 30.276Z" fill="#FF4C00"/>
<path d="M19.9297 34.2642H8.53153C8.03233 34.2642 7.62793 33.8598 7.62793 33.3606C7.62793 32.862 8.03233 32.457 8.53153 32.457H19.9297C20.4289 32.457 20.8333 32.862 20.8333 33.3606C20.8333 33.8598 20.4289 34.2642 19.9297 34.2642Z" fill="#FF4C00"/>
<path d="M23.5771 38.1939H8.53153C8.03233 38.1939 7.62793 37.7895 7.62793 37.2903C7.62793 36.7911 8.03233 36.3867 8.53153 36.3867H23.5771C24.0763 36.3867 24.4807 36.7911 24.4807 37.2903C24.4807 37.7895 24.0763 38.1939 23.5771 38.1939Z" fill="#FF4C00"/>
</g>
<defs>
<clipPath id="clip0_949_2416">
<rect width="60" height="60" fill="white" transform="translate(0.5 0.351562)"/>
</clipPath>
</defs>
</svg>
