<svg id="Layer_1" data-name="Layer 1" xmlns="http://www.w3.org/2000/svg" viewBox="0 0 120.52 141.91"><defs><style>.cls-1,.cls-2{fill:none;stroke-linecap:round;stroke-linejoin:round;}.cls-1{stroke:#ff4d00;stroke-width:5.87px;}.cls-2{stroke:#243746;stroke-width:5.7px;}.cls-3{fill:#fff;}.cls-4{fill:#243746;}</style></defs><path class="cls-1" d="M28.26,92.19l4.83-2a7.23,7.23,0,0,0,4.48-6.69V81.11a3.64,3.64,0,0,1,3.64-3.64h7.26V75.66a5.45,5.45,0,0,1,5.45-5.45h0a5.45,5.45,0,0,1,5.45,5.45v9.08H63a3.62,3.62,0,0,1,3.63,3.63h0A3.62,3.62,0,0,1,63,92h0a7.23,7.23,0,0,0-7.23,7.26v3.6"/><path class="cls-1" d="M90.84,26.62H73.9a7.26,7.26,0,0,0-7.27,7.26h0a7.26,7.26,0,0,0,7.27,7.27h0a3.64,3.64,0,0,1,3.63,3.63v3.63H73.9a3.64,3.64,0,0,0-3.64,3.64h0a3.64,3.64,0,0,0,3.64,3.63h7.26a3.62,3.62,0,0,1,3.63,3.63v3.63a3.64,3.64,0,0,0,3.64,3.64h0a3.63,3.63,0,0,1,3.63,3.63V87"/><path class="cls-2" d="M57.55,12.09a45.41,45.41,0,1,1-25.38,7.76"/><path class="cls-2" d="M33.9,9.38A25.93,25.93,0,0,0,15.23,41.15h7.05a18.65,18.65,0,0,0,18.29-15h0a18.66,18.66,0,0,1,2.3-5.93L52.1,4.83Z"/><path class="cls-3" d="M63.43,126.06H50.81a14.78,14.78,0,0,1-12.64-6.58c-4.26-6.07-8.53-12.29-12.66-18.31l-3.3-4.82c-1.55-2.25-1.43-4.09.34-5.47a3.25,3.25,0,0,1,2-.74A4.47,4.47,0,0,1,27.89,92l3.34,4.13c3.38,4.17,6.86,8.47,10.21,12.77a9.72,9.72,0,0,0,8.13,4.18H50c1.27,0,2.64-.07,4.31-.07l3.12,0,3.13,0h1.19c3.36,0,5.47-1.9,5.5-4.9S65.14,103,61.73,103c-.71,0-1.42,0-2.13,0-1.28,0-2.61,0-3.91,0-1.68,0-3.07,0-4.38.13H51a3.93,3.93,0,0,1-2.9-1.16A3.56,3.56,0,0,1,47,99.4c0-2.14,1.77-3.52,4.46-3.53h7.48c2.28,0,4.15,0,5.89,0H65a7.23,7.23,0,0,0,5-2A18.49,18.49,0,0,1,82.41,89a19.26,19.26,0,0,1,11.53,4l.53.44.12.11L73,126.06H63.43Z"/><path class="cls-4" d="M61.13,130.48h6.95l7,0h2.33c.93,0,3.11,0,3.14-2.22a2.06,2.06,0,0,0-.55-1.52A3.37,3.37,0,0,0,77.5,126H50.81a14.78,14.78,0,0,1-12.64-6.58c-4.26-6.07-8.53-12.29-12.66-18.31l-3.3-4.82c-1.55-2.25-1.44-4.09.34-5.47a3.25,3.25,0,0,1,2-.74A4.47,4.47,0,0,1,27.89,92l3.34,4.13c3.38,4.17,6.86,8.47,10.21,12.77a9.72,9.72,0,0,0,8.13,4.18H50c1.27,0,2.64-.07,4.31-.07l3.12,0,3.13,0h1.19c3.36,0,5.47-1.9,5.5-4.9S65.14,103,61.73,103c-.71,0-1.42,0-2.13,0-1.28,0-2.61,0-3.91,0-1.68,0-3.07,0-4.38.13H51a3.93,3.93,0,0,1-2.9-1.16A3.56,3.56,0,0,1,47,99.4c0-2.14,1.77-3.52,4.46-3.53h7.48c2.28,0,4.15,0,5.89,0H65a7.23,7.23,0,0,0,5-2A18.49,18.49,0,0,1,82.41,89a19.26,19.26,0,0,1,11.53,4l.53.44a3.5,3.5,0,0,0,2.16,1.15,2.09,2.09,0,0,0,1.64-.93,2.18,2.18,0,0,0,.53-1.66c-.13-.94-1-1.54-1.71-2.08-.17-.12-.33-.23-.48-.35a23,23,0,0,0-14.36-4.89,21,21,0,0,0-14.82,5.7,4,4,0,0,1-3,1.1H64.3c-1.92,0-3.95,0-6.37,0l-6.1,0h-.69c-4.9,0-8.49,3.33-8.52,7.86a7.56,7.56,0,0,0,2.17,5.49,8.94,8.94,0,0,0,6.47,2.48H61.53c.37,0,1,0,1.21.21a.91.91,0,0,1,.12.6c0,.48-.12.63-1.14.63h-.34l-6.47,0-5.52,0a4.86,4.86,0,0,1-4-2C40.34,100.45,35.29,94.23,31,89a8.36,8.36,0,0,0-6.42-3.23,7.65,7.65,0,0,0-4.66,1.6,7.94,7.94,0,0,0-1.56,11.1l.46.68c5.22,7.63,10.62,15.52,16,23.21,3.7,5.25,9,8,15.66,8.07C53.64,130.46,57,130.48,61.13,130.48Z"/><path class="cls-4" d="M94.47,141.22c-2.33-1.08-4.36-2.09-6.2-3.08a10.66,10.66,0,0,1-4.69-14.43c4.19-8.56,8.15-16.5,12.11-24.27,2-3.87,5.31-5.85,9.9-5.89h.17c2.79,0,5.17,1.32,7.47,2.6.91.51,1.85,1,2.79,1.45a5.43,5.43,0,0,1,3.1,3,5.34,5.34,0,0,1-.47,4.26c-5.46,11-11.17,22.44-17,34-1.29,2.54-3.11,3.07-4.41,3.07A6.61,6.61,0,0,1,94.47,141.22Zm5.12-39.84c-3.34,6.62-7.74,15.37-12.1,24.26a6.32,6.32,0,0,0,2.8,8.63c.93.51,1.92,1,2.88,1.45s1.92.93,2.86,1.45a2.14,2.14,0,0,0,.93.3h0c.26,0,.6-.13,1.08-1.09,5.27-10.62,10.68-21.44,16.54-33.06a1.64,1.64,0,0,0,.26-1.22c-.09-.25-.37-.47-.84-.67a32.27,32.27,0,0,1-3-1.5,15.4,15.4,0,0,0-5.42-2.13C102.68,98,100.72,99.15,99.59,101.38Z"/></svg>