<svg id="Layer_1" data-name="Layer 1" xmlns="http://www.w3.org/2000/svg" viewBox="0 0 141.65 158.35"><defs><style>.cls-1,.cls-2,.cls-4{fill:none;stroke-linecap:round;stroke-linejoin:round;}.cls-1{stroke:#243746;}.cls-1,.cls-4{stroke-width:3.89px;}.cls-2,.cls-4{stroke:#ff4d00;}.cls-2{stroke-width:2.85px;}.cls-3{fill:#ff4d00;}.cls-5{fill:#fff;}.cls-6{fill:#243746;}</style></defs><path class="cls-1" d="M24.69,36A20,20,0,1,0,21,24.94"/><line class="cls-2" x1="40.18" y1="24.5" x2="44.4" y2="29.68"/><line class="cls-2" x1="42.32" y1="11.37" x2="40.18" y2="24.5"/><path class="cls-3" d="M82.27,53.89a11.93,11.93,0,0,1-2.49-.27,6,6,0,0,1-2.1-.78,1.8,1.8,0,0,1-1-1.55,1.71,1.71,0,0,1,.42-1.17,1.58,1.58,0,0,1,1.26-.51,3.45,3.45,0,0,1,1.14.31,12.88,12.88,0,0,0,1.54.49,7.1,7.1,0,0,0,1.63.17,3.75,3.75,0,0,0,2.4-.66,2.15,2.15,0,0,0,.78-1.83,1.55,1.55,0,0,0-.56-1.34,5.27,5.27,0,0,0-2.41-.69l-1.43-.19a5.64,5.64,0,0,1-3.59-1.64,5.08,5.08,0,0,1-1.29-3.6,5,5,0,0,1,1.91-4.22A7.8,7.8,0,0,1,83.28,35a12.28,12.28,0,0,1,2.61.29,5,5,0,0,1,2.13.9,1.6,1.6,0,0,1,.76,1.34,1.68,1.68,0,0,1-.48,1.2,1.59,1.59,0,0,1-1.17.5,2.47,2.47,0,0,1-1-.3l-.6-.23a6.05,6.05,0,0,0-1.06-.28,5.89,5.89,0,0,0-1.2-.11,4,4,0,0,0-2.37.57,2,2,0,0,0-.7,1.71,1.61,1.61,0,0,0,.51,1.36,4.41,4.41,0,0,0,2.13.65l1.38.16a7,7,0,0,1,3.88,1.6A4.78,4.78,0,0,1,89.52,48a5.16,5.16,0,0,1-2,4.4A8.65,8.65,0,0,1,82.27,53.89Z"/><path class="cls-3" d="M57,78.09a1.86,1.86,0,0,1-1.17-.4,2,2,0,0,1-.7-1l-1-2.91h-6.3l-1.08,3.07a2.06,2.06,0,0,1-.66.89,1.73,1.73,0,0,1-1.06.35,1.84,1.84,0,0,1-1.65-2.61l5.48-14.34a3.77,3.77,0,0,1,.86-1.4,2.11,2.11,0,0,1,1.5-.55,2.23,2.23,0,0,1,1.58.55,3.22,3.22,0,0,1,.81,1.4l5.16,14.21a2.71,2.71,0,0,1,.16.81,1.84,1.84,0,0,1-.58,1.37A1.93,1.93,0,0,1,57,78.09ZM53.13,70.5l-2-5.9-2.09,5.9Z"/><path class="cls-3" d="M90.39,95.23a1.72,1.72,0,0,1-1.68-1.06L85.91,88h-3V93.4a1.76,1.76,0,0,1-.55,1.31,1.81,1.81,0,0,1-1.31.52,1.81,1.81,0,0,1-1.84-1.83V78.5a1.79,1.79,0,0,1,.53-1.29A1.73,1.73,0,0,1,81,76.66h4.9a6.59,6.59,0,0,1,4.67,1.51,5.37,5.37,0,0,1,1.62,4.08,6,6,0,0,1-.8,3.12,4.83,4.83,0,0,1-1.9,1.82L92,92.46v0l.12.23a1.56,1.56,0,0,1,.16.7,1.77,1.77,0,0,1-.52,1.25A1.87,1.87,0,0,1,90.39,95.23ZM85.58,84.67a3.35,3.35,0,0,0,2.27-.59,2.31,2.31,0,0,0,.61-1.76,2.12,2.12,0,0,0-.65-1.81A4.48,4.48,0,0,0,85.33,80H82.88v4.68Z"/><path class="cls-4" d="M67.62,65.9A16.65,16.65,0,1,0,60.74,83"/><path class="cls-4" d="M100.64,82.58a16.65,16.65,0,1,0-6.88,17.07"/><path class="cls-4" d="M99.65,41.08a16.65,16.65,0,1,0-6.88,17.07"/><path class="cls-5" d="M78.42,136.16h8.64l5.42,0a16.41,16.41,0,0,0,14.06-7.33c4.75-6.75,9.5-13.68,14.09-20.37,1.23-1.79,2.45-3.58,3.68-5.36,1.72-2.51,1.59-4.56-.38-6.1a3.67,3.67,0,0,0-2.25-.82,5,5,0,0,0-3.7,2.12q-1.85,2.29-3.72,4.59c-3.75,4.64-7.63,9.43-11.36,14.22a10.82,10.82,0,0,1-9.05,4.65h-.52c-1.41,0-2.94-.08-4.8-.08l-3.47,0-3.49,0H80.25c-3.74,0-6.09-2.12-6.12-5.46s2.39-5.71,6.18-5.76l2.38,0c1.42,0,2.9,0,4.35,0,1.87,0,3.42,0,4.88.13l.37,0a4.42,4.42,0,0,0,3.24-1.29,4,4,0,0,0,1.19-2.76c0-2.38-2-3.92-5-3.93H88.4l-5,0c-2.53,0-4.61,0-6.55.06h-.19a8.08,8.08,0,0,1-5.62-2.16A20.58,20.58,0,0,0,57.29,95a21.39,21.39,0,0,0-12.82,4.49c-.19.14-.38.31-.59.5l-.14.12,24,36.1H78.42Z"/><path class="cls-6" d="M81,141.08H73.24l-7.73,0H62.92c-1,0-3.46,0-3.49-2.47a2.25,2.25,0,0,1,.6-1.69,3.72,3.72,0,0,1,2.73-.75h24.3l5.42,0a16.41,16.41,0,0,0,14.06-7.33c4.75-6.75,9.5-13.68,14.09-20.37,1.23-1.79,2.45-3.58,3.68-5.36,1.72-2.51,1.59-4.56-.38-6.1a3.67,3.67,0,0,0-2.25-.82,5,5,0,0,0-3.7,2.12q-1.85,2.29-3.72,4.59c-3.75,4.64-7.63,9.43-11.36,14.22a10.82,10.82,0,0,1-9.05,4.65h-.52c-1.41,0-2.94-.08-4.8-.08l-3.47,0-3.49,0H80.25c-3.74,0-6.09-2.12-6.12-5.46s2.39-5.71,6.18-5.76l2.38,0c1.42,0,2.9-.06,4.35-.06,1.87,0,3.42.05,4.88.14l.37,0a4.42,4.42,0,0,0,3.24-1.29,4,4,0,0,0,1.19-2.76c0-2.38-2-3.92-5-3.93H88.4l-5,0c-2.53,0-4.61,0-6.55.06h-.19a8.08,8.08,0,0,1-5.62-2.16A20.58,20.58,0,0,0,57.29,95a21.39,21.39,0,0,0-12.82,4.49c-.19.14-.38.31-.59.5a3.92,3.92,0,0,1-2.4,1.27,2.31,2.31,0,0,1-1.83-1,2.47,2.47,0,0,1-.6-1.85c.15-1,1.09-1.72,1.91-2.31l.53-.4a25.71,25.71,0,0,1,16-5.44A23.43,23.43,0,0,1,74,96.53a4.42,4.42,0,0,0,3.36,1.22h.11c2.14,0,4.4,0,7.09,0l6.79,0h.77c5.46,0,9.45,3.7,9.49,8.75a8.43,8.43,0,0,1-2.41,6.11,10.06,10.06,0,0,1-7.2,2.76H80.54c-.42,0-1.12,0-1.34.24a1,1,0,0,0-.14.66c0,.53.14.71,1.27.71h.37l7.21,0h6.14a5.45,5.45,0,0,0,4.51-2.26c5.57-7,11.18-14,15.94-19.81a9.29,9.29,0,0,1,7.15-3.6,8.57,8.57,0,0,1,5.18,1.78c3.89,3,4.62,8.15,1.74,12.36l-.52.76c-5.81,8.49-11.81,17.27-17.84,25.83-4.12,5.84-10,8.87-17.44,9C89.33,141.06,85.58,141.08,81,141.08Z"/><path class="cls-6" d="M40.77,153.81c-1.45,0-3.47-.59-4.9-3.42C29.39,137.58,23,124.86,17,112.6a6,6,0,0,1-.54-4.74,6.07,6.07,0,0,1,3.46-3.37c1.05-.47,2.09-1.06,3.1-1.62,2.56-1.42,5.21-2.9,8.31-2.9h.2c5.11,0,8.82,2.25,11,6.56,4.41,8.66,8.82,17.49,13.47,27a11.86,11.86,0,0,1-5.21,16.06c-2.05,1.1-4.31,2.23-6.9,3.43A7.44,7.44,0,0,1,40.77,153.81Zm-9.26-49.1a17,17,0,0,0-6,2.37c-1.07.58-2.18,1.18-3.34,1.67a1.6,1.6,0,0,0-.94.74,1.84,1.84,0,0,0,.29,1.36c6.52,12.94,12.55,25,18.41,36.8.53,1.07.91,1.22,1.21,1.22h0a2.44,2.44,0,0,0,1-.34c1-.57,2.14-1.1,3.19-1.61s2.16-1,3.2-1.62a7,7,0,0,0,3.11-9.6c-4.85-9.9-9.74-19.63-13.47-27C36.92,106.21,34.74,104.91,31.51,104.71Z"/></svg>