<svg id="Layer_1" data-name="Layer 1" xmlns="http://www.w3.org/2000/svg" viewBox="0 0 141.65 158.35"><defs><style>.cls-1,.cls-2,.cls-3{fill:none;stroke-linecap:round;stroke-linejoin:round;}.cls-1,.cls-3{stroke:#ff4d00;}.cls-1{stroke-width:5.05px;}.cls-2{stroke:#243746;stroke-width:5.33px;}.cls-3{stroke-width:6.71px;}</style></defs><circle class="cls-1" cx="37.65" cy="87.11" r="7.36"/><path class="cls-2" d="M101.42,111a6.69,6.69,0,0,1,6.92-6.44h0a6.69,6.69,0,0,1,6.92,6.44v32.5"/><path class="cls-2" d="M87.59,104.61v0a6.69,6.69,0,0,1,6.92-6.44h0a6.68,6.68,0,0,1,6.91,6.44V111"/><path class="cls-2" d="M73.75,104.61a6.69,6.69,0,0,1,6.92-6.44h0a6.69,6.69,0,0,1,6.92,6.44"/><path class="cls-2" d="M49.73,143.48,38.37,121.87A6.19,6.19,0,0,1,41,113.53l.74-.42a7.25,7.25,0,0,1,9.15,1.69l8,10a.6.6,0,0,0,1.07-.33V68.08a6.7,6.7,0,0,1,6.92-6.45h0a6.7,6.7,0,0,1,6.92,6.45v36.53"/><path class="cls-1" d="M57,56a11.35,11.35,0,0,1-.1-1.44,9.82,9.82,0,0,1,19.64,0,10.24,10.24,0,0,1-.1,1.36"/><path class="cls-1" d="M51,73.42a24.65,24.65,0,1,1,31.6,0"/><path class="cls-1" d="M32.72,81.71A43.56,43.56,0,0,1,61.78,11.23"/><path class="cls-1" d="M100.75,27.3a43.57,43.57,0,0,1-8.3,62.37"/><circle class="cls-1" cx="95.81" cy="21.84" r="7.36"/><circle class="cls-3" cx="76.34" cy="12.07" r="2.65"/></svg>