<svg version="1.1" id="Layer_1" xmlns="http://www.w3.org/2000/svg" xmlns:xlink="http://www.w3.org/1999/xlink" x="0px" y="0px" viewBox="0 0 68 68" style="enable-background:new 0 0 68 68;" xml:space="preserve" width="68"  height="68" >
<g id="Group_11167" transform="translate(-587.081 -230.863)">
<g id="Group_11161" transform="translate(589.081 232.863)">
<path id="Path_6101" fill="none" stroke="#253746" stroke-width="4px" stroke-linecap="round" stroke-linejoin="round" d="M9.1,33c2.6,7.9,8.5,15.6,13.6,21.2"></path>
<path id="Path_6102" fill="none" stroke="#253746" stroke-width="4px" stroke-linecap="round" stroke-linejoin="round" d="M32,63.2c0,0,24.3-19.9,24.3-38.1"></path>
<path id="Path_6103" fill="none" stroke="#fc4c02" stroke-width="4px" stroke-linecap="round" stroke-linejoin="round" d="M42.4,23.5v3.1c0,4.9-4,8.8-8.8,8.8h-3.1c-3.1,0-5.9-1.6-7.5-4.2"></path>
<path id="Path_6104" fill="none" stroke="#253746" stroke-width="4px" stroke-linecap="round" stroke-linejoin="round" d="M21.6,23.5c0-4.9,4-8.8,8.8-8.8h3.1c2.3,0,4.6,0.9,6.2,2.6"></path>
<path id="Path_6105" fill="none" stroke="#253746" stroke-width="4px" stroke-linecap="round" stroke-linejoin="round" d="M7.7,25.1C7.7,11.7,18.6,0.8,32,0.8c8.1,0,15.6,4,20.1,10.7"></path>
</g>
</g>
</svg>