<?xml version="1.0" encoding="utf-8"?>
<!-- Generator: Adobe Illustrator 16.0.0, SVG Export Plug-In . SVG Version: 6.00 Build 0)  -->
<!DOCTYPE svg PUBLIC "-//W3C//DTD SVG 1.1//EN" "http://www.w3.org/Graphics/SVG/1.1/DTD/svg11.dtd">
<svg version="1.1" id="Layer_1" xmlns="http://www.w3.org/2000/svg" xmlns:xlink="http://www.w3.org/1999/xlink" x="0px" y="0px"
	 width="540px" height="540px" viewBox="0 0 540 540" enable-background="new 0 0 540 540" xml:space="preserve">
<g>
	<path fill="#263746" d="M233.64,537.9c-31.072,0-62.143,0.071-93.214-0.024c-20.365-0.063-28.515-7.875-29.066-28.439
		c-0.886-33.057-8.294-64.516-22.05-94.534c-0.502-1.095-0.74-2.319-1.293-3.383c-2.864-5.513-4.217-11.233,2.478-14.528
		c6.911-3.4,10.227,1.704,12.757,7.2c10.482,22.761,17.988,46.401,21.983,71.206c1.868,11.596,2.581,23.232,2.872,34.895
		c0.194,7.717,3.468,10.783,11.067,10.771c62.95-0.108,125.9-0.142,188.849,0.035c8.426,0.022,11.463-3.295,11.082-11.595
		c-0.498-10.871-0.567-21.809,0.019-32.672c0.735-13.648,6.274-18.642,19.854-18.756c17.754-0.148,35.51-0.017,53.265-0.041
		c26.592-0.035,41.024-14.058,41.56-40.738c0.283-14.116,0.299-28.25-0.061-42.363c-0.158-6.186,1.639-8.039,8.115-8.251
		c31.756-1.04,43.025-20.468,29.267-49.593c-3.944-8.35-7.963-16.664-11.838-25.045c-13.261-28.688-28.843-56.327-28.978-89.645
		c-0.069-17.223-6.652-33.858-13.065-49.97c-2.413-6.062-3.079-11.242,4.093-13.759c6.387-2.243,9.418,1.938,11.563,7.315
		c8.397,21.054,14.481,42.785,15.847,65.39c0.894,14.789,4.276,28.318,10.914,41.538c10.274,20.459,19.88,41.27,29.292,62.147
		c13.513,29.977-0.221,59.456-32.036,67.809c-6.313,1.657-6.093,4.547-6.219,9.107c-0.356,12.872,0.959,25.758-1.341,38.622
		c-4.658,26.063-24.455,43.69-51.051,44.264c-17.344,0.375-34.72,0.538-52.045-0.122c-8.732-0.332-11.182,2.719-10.527,10.975
		c0.666,8.42,0.199,16.936,0.137,25.408c-0.137,18.096-8.301,26.58-26.594,26.713C297.398,538.067,265.518,537.9,233.64,537.9"/>
	<path fill="#263746" d="M26.041,239.149c0-109.509,66.692-202.856,165.23-228.846c86.762-22.883,160.278,2.408,220.586,67.983
		c4.14,4.501,7.227,9.792,2.049,14.795c-6.131,5.923-10.932,0.988-15.102-3.742c-30.535-34.627-67.857-58.044-113.49-66.523
		C200.411,7.04,118.017,44.96,74.287,121.285c-40.464,70.625-41.923,143.716-8.76,217.751c0.657,1.467,1.324,2.945,2.146,4.322
		c3.391,5.689,5.418,11.756-2.038,15.292c-6.632,3.144-10.181-1.776-12.952-7.267c-10.03-19.864-17.5-40.643-21.761-62.463
		C27.599,271.901,25.203,254.723,26.041,239.149"/>
	<path fill="#FF4C00" d="M250.139,153.121c36.625,1.585,65.542,18.44,82.112,52.553c16.484,33.938,12.832,67.26-9.519,98.056
		c-4.021,5.54-8.578,10.688-12.723,16.142c-3.457,4.551-7.806,6.276-12.498,2.826c-4.814-3.541-4.041-8.449-0.791-12.824
		c4.082-5.493,8.494-10.74,12.664-16.172c19.586-25.52,21.369-60.359,4.51-87.256c-17.322-27.635-49.945-41.767-81.396-35.263
		c-31.6,6.537-55.916,31.347-60.596,63.037c-3.607,24.425,2.655,46.411,19.452,64.886c9.681,10.648,16.739,22.688,20.315,36.611
		c1.423,5.538,2.549,11.961-5.038,13.943c-7.379,1.93-9.749-3.362-11.139-9.453c-2.77-12.129-9.797-21.779-17.638-31.202
		c-25.572-30.73-31.163-65.306-14.832-101.569C179.325,171.238,209.39,154.258,250.139,153.121"/>
	<path fill="#263746" d="M239.419,354.526c10.078,0,20.159,0.137,30.233-0.053c5.829-0.11,10.879,0.751,10.905,7.913
		c0.022,6.73-4.658,8.86-10.541,8.888c-16.125,0.076-32.263,0.404-48.369-0.135c-7.013-0.235-7.989,2.67-7.598,8.507
		c1.094,16.348,14.73,30.076,31.377,31.173c18.413,1.213,33.993-10.88,36.768-29.379c1.02-6.792,1.035-14.031,10.33-12.408
		c9.137,1.598,7.248,9.551,6.283,15.665c-4.168,26.453-27.394,44.72-54.135,43.009c-26.367-1.687-46.142-21.996-47.505-48.793
		c-0.041-0.805-0.015-1.613-0.036-2.419c-0.569-21.876-0.478-21.968,21.728-21.968C225.712,354.526,232.565,354.526,239.419,354.526
		"/>
	<path fill="#FF4C00" d="M256.314,113.108c0,5.224,0.168,10.454-0.047,15.668c-0.215,5.181-2.922,8.283-8.373,8.138
		c-4.774-0.126-7.627-2.873-7.725-7.526c-0.226-10.844-0.177-21.698-0.004-32.544c0.075-4.778,3.035-7.388,7.705-7.499
		c5.313-0.125,8.254,2.855,8.477,8.092c0.221,5.214,0.049,10.446,0.049,15.671H256.314z"/>
	<path fill="#FF4C00" d="M328.568,169.819c-3.063-0.074-5.638-1.12-7.194-3.709c-2.07-3.443-2.042-7.273,0.618-10.153
		c7.369-7.971,14.89-15.829,22.764-23.296c3.157-2.993,7.416-3.064,10.947,0.176c3.131,2.872,3.671,7.279,1.352,9.883
		c-7.99,8.974-16.679,17.33-25.195,25.828C331.089,169.318,329.652,169.422,328.568,169.819"/>
	<path fill="#FF4C00" d="M176.299,160.973c0.014,3.472-1.285,5.741-3.854,7.407c-3.611,2.341-7.219,1.645-9.92-0.981
		c-7.734-7.516-15.237-15.28-22.594-23.168c-3.136-3.362-3.016-7.468-0.026-10.904c2.599-2.987,6.623-4.128,9.731-1.744
		c9.841,7.549,17.872,17.006,25.951,26.352C176.269,158.725,176.139,160.217,176.299,160.973"/>
	<path fill="#FF4C00" d="M120.301,250.006c-5.641,0-11.305,0.316-16.915-0.1c-4.533-0.334-7.266-3.09-7.338-7.971
		c-0.072-4.873,2.571-8.033,7.083-8.147c11.268-0.287,22.569-0.193,33.824,0.387c4.459,0.229,7.302,3.787,6.894,8.394
		c-0.388,4.373-3.114,7.516-7.824,7.748c-5.229,0.26-10.481,0.06-15.723,0.06C120.302,250.253,120.301,250.13,120.301,250.006"/>
	<path fill="#FF4C00" d="M375.834,250.429c-4.836,0-9.674,0.101-14.506-0.028c-5.164-0.137-8.502-2.803-8.74-8.037
		c-0.244-5.371,3.127-8.256,8.203-8.446c10.063-0.38,20.141-0.429,30.211-0.438c5.69-0.005,9.646,3.163,9.477,8.703
		c-0.176,5.672-4.527,8.042-10.148,7.923c-4.83-0.101-9.664-0.021-14.494-0.021C375.834,250.2,375.834,250.314,375.834,250.429"/>
</g>
</svg>
