<?xml version="1.0" encoding="utf-8"?>
<!-- Generator: Adobe Illustrator 16.0.0, SVG Export Plug-In . SVG Version: 6.00 Build 0)  -->
<!DOCTYPE svg PUBLIC "-//W3C//DTD SVG 1.1//EN" "http://www.w3.org/Graphics/SVG/1.1/DTD/svg11.dtd">
<svg version="1.1" id="Layer_1" xmlns="http://www.w3.org/2000/svg" xmlns:xlink="http://www.w3.org/1999/xlink" x="0px" y="0px"
	 width="540px" height="540px" viewBox="0 0 540 540" enable-background="new 0 0 540 540" xml:space="preserve">
<g>
	<path fill="#263746" d="M294.089,458.904c22.191,0,44.387,0.092,66.578-0.022c29.102-0.149,52.332-12.281,68.938-35.926
		c28.246-40.218,55.934-80.826,83.766-121.332c9.189-13.372,8.201-24.796-2.494-33.114c-10.166-7.907-22.805-5.419-32.516,6.616
		c-23.797,29.495-47.852,58.794-71.121,88.703c-11.055,14.211-24.25,21.313-42.453,20.637c-20.551-0.763-41.152-0.065-61.73-0.211
		c-15.935-0.114-25.502-8.679-25.635-22.528c-0.14-14.392,9.685-23.652,25.947-23.863c18.154-0.236,36.373-0.97,54.453,0.211
		c16.645,1.087,26.156-11.645,26.063-22.284c-0.115-12.985-10.826-21.689-26.643-21.726c-23.402-0.055-46.813-0.31-70.208,0.125
		c-9.909,0.185-17.771-2.817-25.166-9.371c-38.132-33.795-88.486-35.458-129.436-4.791c-5.398,4.041-11.567,12.559-18.217,4.047
		c-6.47-8.281,2.726-12.635,8.13-16.933c43.426-34.533,110.551-33.27,148.859,4.068c5.253,5.119,11.392,6.766,18.677,6.671
		c22.996-0.302,46-0.186,68.998-0.091c23.93,0.098,41.322,16.121,41.471,38.015c0.154,22.527-17.24,38.491-42.064,38.545
		c-17.756,0.04-35.51,0.042-53.264-0.01c-5.533-0.016-11.266,0.044-10.828,7.67c0.398,6.9,6.18,6.357,10.959,6.376
		c20.982,0.081,41.967,0.101,62.947,0.009c9.811-0.043,17.447-3.895,23.771-11.887c24.773-31.309,49.896-62.344,75.102-93.307
		c14.309-17.575,36.877-20.76,53.639-8.036c16.844,12.787,20.236,35.228,7.508,53.835c-28.654,41.892-57.297,83.802-86.541,125.281
		c-19.215,27.254-46.719,40.471-79.598,40.987c-46.797,0.735-93.612,0.138-140.419,0.243c-6.526,0.016-13.348-0.588-13.432-8.406
		c-0.088-8.078,6.886-8.295,13.328-8.257C245.667,458.99,269.877,458.906,294.089,458.904"/>
	<path fill="#263746" d="M73.171,288.35c23.012,0.192,39.349,9.963,49.132,29.152c21.532,42.238,42.665,84.684,63.487,127.276
		c13.261,27.125,3.276,57.155-23.197,71.419c-10.604,5.714-21.442,11.025-32.367,16.105c-14.551,6.766-26.3,3.23-33.509-11.039
		C66.788,462.023,37.084,402.67,7.642,343.188c-7.31-14.77-2.992-26.943,12.212-33.834C37.571,301.323,53.368,287.962,73.171,288.35
		 M73.201,304.186c-16.31,1.769-29.86,12.843-45.311,19.298c-7.022,2.933-8.278,7.317-4.727,14.356
		c29.116,57.719,58.064,115.521,86.785,173.436c3.621,7.302,7.455,9.623,14.995,5.527c9.883-5.369,20.273-9.808,30.143-15.199
		c18.56-10.141,25.383-30.418,16.018-49.528c-20.871-42.593-42.134-84.993-63.519-127.33
		C100.833,311.376,89.141,305.084,73.201,304.186"/>
	<path fill="#FF4C00" d="M284.714,233.505c-24.196,0-48.392,0.08-72.586-0.026c-17.377-0.077-25.701-8.676-26.512-25.772
		c-1.478-31.162,5.914-59.107,28.199-82.005c4.243-4.36,8.907-10.042,15.198-4.371c6.535,5.891,1.032,10.668-3.275,15.098
		c-19.282,19.833-25.566,44.047-24.113,70.99c0.381,7.065,3.506,10.125,10.502,10.116c48.794-0.07,97.587-0.092,146.382,0.024
		c7.93,0.019,10.5-4.068,10.756-11.27c0.945-26.463-5.461-50.301-24.326-69.814c-4.254-4.4-9.98-9.032-3.389-15.047
		c6.221-5.675,11.01-0.299,15.27,4.121c24.219,25.123,30.904,55.79,27.4,89.298c-1.211,11.572-11.049,18.525-24.5,18.611
		C334.718,233.619,309.716,233.505,284.714,233.505"/>
	<path fill="#FF4C00" d="M284.812,4.381c38.293-0.231,70.232,30.917,70.109,68.371c-0.119,36.887-31.656,68.056-69.148,68.344
		c-37.974,0.291-69.885-31.009-69.957-68.616C215.746,35.387,246.928,4.609,284.812,4.381 M283.403,124.785
		c29.516,0.74,54.514-22.326,55.203-50.938c0.674-27.95-23.266-52.808-51.496-53.474c-29.236-0.689-54.455,22.545-55.298,50.95
		C230.988,99.011,255.178,124.077,283.403,124.785"/>
</g>
</svg>
