<?xml version="1.0" encoding="utf-8"?>
<!-- Generator: Adobe Illustrator 16.0.0, SVG Export Plug-In . SVG Version: 6.00 Build 0)  -->
<!DOCTYPE svg PUBLIC "-//W3C//DTD SVG 1.1//EN" "http://www.w3.org/Graphics/SVG/1.1/DTD/svg11.dtd">
<svg version="1.1" id="Layer_1" xmlns="http://www.w3.org/2000/svg" xmlns:xlink="http://www.w3.org/1999/xlink" x="0px" y="0px"
	 width="540px" height="540px" viewBox="0 0 540 540" enable-background="new 0 0 540 540" xml:space="preserve">
<g>
	<path fill="#263746" d="M14.432,270.185c0-59.328-0.022-118.656,0.006-177.984c0.025-52.982,36.734-89.908,89.337-89.912
		c78.248-0.007,156.496-0.149,234.744,0.067c33.121,0.092,57.293,16.132,74.391,43.831c3.445,5.586,5.719,11.678-1.354,15.654
		c-6.57,3.695-10.061-1.457-13.17-6.643c-14.973-24.984-36.922-36.477-66.211-36.289c-76.227,0.488-152.461,0.146-228.692,0.172
		c-42.19,0.015-72.139,29.921-72.164,72.316c-0.072,118.656-0.068,237.312-0.003,355.968c0.024,43.3,30.388,73.297,74.03,73.318
		c75.827,0.037,151.655,0.043,227.483-0.003c41.729-0.025,70.629-26.564,74.293-68.415c0.533-6.094,2.412-10.66,8.895-10.469
		c6.623,0.196,7.879,5.146,8.076,11.107c1.428,42.842-38.809,84.039-84.502,84.398c-80.259,0.631-160.531,0.59-240.791,0.018
		c-46.875-0.335-84.089-39.106-84.303-86.73C14.227,390.456,14.432,330.32,14.432,270.185"/>
	<path fill="#263746" d="M350.237,64.728c43.336,1.545,85.721,23.098,116.074,67.171c3.762,5.462,8.084,11.552,0.109,16.465
		c-7.346,4.525-10.434-1.997-14.037-6.976c-33.57-46.402-79.061-67.529-135.416-57.353c-59.916,10.819-96.68,48.725-109.431,108.189
		c-17.041,79.473,48.009,157.608,129.201,159.552c63.82,1.528,132.322-46.572,138.199-126.087c0.48-6.479,2.125-11.841,9.193-11.377
		c7.113,0.467,8.25,6.193,7.732,12.568c-3.549,43.597-21.73,79.798-55.689,107.29c-8.004,6.48-7.564,10.341-2.666,18.183
		c29.65,47.479,58.732,95.313,88.033,143.014c2.303,3.752,5.604,7.226,3.348,12.124c-1.445,3.141-4.006,5.132-7.566,5.119
		c-5.242-0.021-7.541-4.001-9.889-7.825c-17.275-28.145-34.539-56.296-51.842-84.423c-12.66-20.583-25.746-40.918-37.859-61.817
		c-4.035-6.959-7.279-6.985-13.988-4.014c-92.08,40.79-193.052-11.586-212.875-110.173C172.3,152.011,245.501,64.132,350.237,64.728
		"/>
	<path fill="#FF4C00" d="M419.649,264.332c-11.816-0.034-14.066,3.025-10.564,14.368c4.789,15.509,2.779,19.25-16.57,30.871
		c-12.955,7.78-18.537,7.168-28.666-3.145c-8.27-8.42-12.229-7.896-17.25,3.438c-5.006,11.301-13.318,14.26-24.572,11.714
		c-3.139-0.71-6.248-1.555-9.398-2.195c-12.021-2.443-17.998-9.113-17.34-22.025c0.607-11.901-2.729-13.871-14.322-10.22
		c-14.475,4.558-18.912,2.448-28.862-13.728c-9.859-16.025-9.646-20.091,1.661-31.705c7.571-7.776,6.824-11.738-3.166-16.813
		c-14.4-7.315-15.812-12.122-10.173-34.627c3.466-13.827,8.199-17.375,23.302-16.803c9.553,0.362,12.188-4.083,9.711-12.723
		c-5.323-18.554,9.83-37.912,29.365-37.693c6.17,0.069,10.504,3.095,14.574,7.387c8.258,8.707,12.48,8.049,17.492-2.264
		c6.553-13.483,12.15-15.616,29.818-11.358c18.822,4.535,21.734,7.859,21.426,24.459c-0.176,9.503,4.248,12.675,13.699,9.822
		c17.1-5.161,20.141-3.727,31.387,14.811c8.531,14.063,7.996,18.97-3.336,30.563c-6.859,7.018-5.928,11.901,3.117,16.322
		c13.738,6.716,15.883,11.783,12.002,28.371C438.356,260.953,434.909,264.376,419.649,264.332 M268.67,190.292
		c-11.146-0.612-10.738-0.491-13.428,8.608c-2.28,7.711,1.211,10.539,7.689,13.288c15.487,6.568,18.552,27.655,5.521,38.718
		c-5.229,4.439-6.708,7.353-2.503,13.64c3.987,5.962,6.795,8.274,14.278,5.082c16.639-7.1,33.029,5.173,31.676,23.658
		c-0.566,7.751,2.988,9.476,9.092,11.018c5.947,1.503,9.361,0.914,12.203-5.495c7.932-17.891,27.184-20.782,40.555-6.238
		c3.99,4.34,6.873,5.671,11.855,1.73c4.264-3.373,9.803-4.577,6.902-12.687c-7.09-19.816,3.498-34.741,24.127-33.955
		c7.572,0.288,8.553-3.522,9.873-8.93c1.373-5.624,1.336-9.256-5.268-12.228c-18.273-8.221-21.213-27.351-6.436-40.562
		c4.527-4.046,4.744-6.612,2.068-11.979c-4.289-8.598-9.063-8.524-16.961-5.013c-12.58,5.596-31.521-8.16-30.639-21.645
		c0.426-6.516,1.748-12.116-7.656-14.364c-9.209-2.202-11.777,2.066-14.734,9.012c-5.648,13.269-27.496,16.628-36.777,5.701
		c-4.506-5.306-7.498-9.259-15.502-3.989c-7.361,4.845-6.785,8.88-3.914,15.704C296.53,173.249,283.483,191.107,268.67,190.292"/>
	<path fill="#FF4C00" d="M340.958,169.024c27.424-0.002,48.809,20.239,49.785,47.124c1.014,27.849-18.748,50.489-45.959,52.395
		c-6.354,0.444-14.121,1.566-14.783-7.783c-0.619-8.711,6.342-8.376,12.621-8.861c19.924-1.541,33.514-17.675,31.447-36.873
		c-2.02-18.755-18.467-31.61-37.484-29.297c-18.908,2.301-31.543,19.539-28.27,39.314c1.039,6.271,3.131,12.74-5.369,14.393
		c-9.414,1.83-10.078-6.369-11.266-12.392C285.737,196.901,309.563,169.026,340.958,169.024"/>
	<path fill="#FF4C00" d="M140.477,196.695H69.918c-4.544,0-8.228-3.684-8.228-8.229s3.684-8.229,8.228-8.229h70.558
		c4.545,0,8.229,3.684,8.229,8.229S145.021,196.695,140.477,196.695"/>
	<path fill="#FF4C00" d="M157.078,232.999H69.918c-4.544,0-8.228-3.684-8.228-8.229c0-4.544,3.684-8.228,8.228-8.228h87.159
		c4.544,0,8.229,3.684,8.229,8.228C165.307,229.315,161.622,232.999,157.078,232.999"/>
	<path fill="#FF4C00" d="M157.078,269.303H69.918c-4.544,0-8.228-3.685-8.228-8.229c0-4.544,3.684-8.229,8.228-8.229h87.159
		c4.544,0,8.229,3.685,8.229,8.229C165.307,265.618,161.622,269.303,157.078,269.303"/>
	<path fill="#FF4C00" d="M173.73,305.606H69.919c-4.544,0-8.229-3.686-8.229-8.229c0-4.545,3.685-8.229,8.229-8.229H173.73
		c4.545,0,8.229,3.685,8.229,8.229C181.959,301.921,178.275,305.606,173.73,305.606"/>
	<path fill="#FF4C00" d="M206.949,341.413H69.918c-4.544,0-8.228-3.684-8.228-8.229s3.684-8.229,8.228-8.229h137.03
		c4.545,0,8.229,3.684,8.229,8.229S211.494,341.413,206.949,341.413"/>
</g>
</svg>
