<?xml version="1.0" encoding="utf-8"?>
<!-- Generator: Adobe Illustrator 16.0.0, SVG Export Plug-In . SVG Version: 6.00 Build 0)  -->
<!DOCTYPE svg PUBLIC "-//W3C//DTD SVG 1.1//EN" "http://www.w3.org/Graphics/SVG/1.1/DTD/svg11.dtd">
<svg version="1.1" id="Layer_1" xmlns="http://www.w3.org/2000/svg" xmlns:xlink="http://www.w3.org/1999/xlink" x="0px" y="0px"
	 width="540px" height="540px" viewBox="0 0 540 540" enable-background="new 0 0 540 540" xml:space="preserve">
<g>
	<path fill="#263746" d="M496.918,368.604c-8.563,3.119-22.285,7.77-30.668,11.167c-5.559,2.254-10.529,2.7-13.227-3.484
		c-3.078-7.058,1.533-10.127,7.434-12.385c15-5.743,29.941-11.637,44.865-17.576c6.918-2.753,11.441-1.284,13.912,6.261
		c5.375,16.399,10.98,32.727,16.768,48.984c2.004,5.63,2.291,10.793-3.865,13.171c-6.836,2.641-10.354-1.781-12.373-7.835
		c-2.877-8.617-6.375-18.607-9.348-27.312c0,0-4.344,7.225-5.988,10.271c-47.033,87.137-119.592,136.528-218.404,144.353
		c-138.43,10.962-260.828-88.503-280.831-226.17c-3.096-21.312-2.791-42.57-1.754-63.912c0.308-6.325,1.479-13.081,9.727-12.443
		c8.673,0.67,7.512,7.762,7.038,13.878c-4.734,61.179,8.563,117.822,44.854,167.74c46.212,63.564,108.742,98.914,187.564,104.355
		c97.727,6.744,192.799-47.592,236.428-135.174C490.711,379.155,496.918,368.604,496.918,368.604"/>
	<path fill="#263746" d="M62.62,129.4c0,0,21.963-3.041,32.12-4.281c5.758-0.703,13.276-2.812,14.741,5.799
		c1.531,9.004-5.578,9.817-12.368,10.934c-16.263,2.673-32.457,5.779-48.641,8.908c-7.954,1.538-12.672-1.375-13.497-9.421
		c-1.888-18.43-3.498-36.886-5.239-55.329c-0.564-5.969-0.765-11.926,7.445-12.25c7.792-0.306,8.776,5.557,9.383,11.464
		c0.986,9.598,2.081,20.332,3.136,30.487c0,0,5.955-6.1,8.222-8.903C108.562,44.178,173.73,9.768,254.397,5.35
		c135.628-7.428,257.36,90.97,276.177,231.064c0.375,2.789,0.303,5.637,0.537,8.448c0.518,6.167-0.375,12.246-7.838,12.358
		c-7.055,0.105-8.414-5.64-9.055-11.878c-5.979-58.206-29.412-108.494-70.664-149.862c-45.986-46.114-101.711-71.373-167.18-73.198
		c-88.242-2.46-158.128,33.195-211.07,103.2C64.637,126.365,62.62,129.4,62.62,129.4"/>
	<path fill="#FF4C00" d="M281.627,179.393c0-22.182-0.025-44.362,0.018-66.544c0.01-5.328,0.543-11.514-5.748-13.188
		c-6.05-1.613-9.014,3.59-11.823,8.223c-22.551,37.188-45.188,74.323-67.827,111.456c-1.882,3.086-3.744,6.241-6.052,8.996
		c-2.616,3.124-6.144,3.801-9.802,1.727c-3.614-2.05-5.004-5.407-3.751-9.255c0.98-3.01,2.676-5.833,4.337-8.567
		c23.207-38.204,46.433-76.396,69.722-114.551c8.312-13.617,17.408-17.929,29.788-14.43c11.732,3.317,17.732,12.544,17.773,28.209
		c0.104,39.922,0.379,79.85-0.211,119.764c-0.145,9.834,2.889,12.416,12.205,11.82c12.049-0.771,24.189-0.419,36.281-0.129
		c20.861,0.5,32.033,19.48,21.486,37.232c-18.715,31.502-38.01,62.659-57.074,93.955c-3.135,5.145-6.846,9.861-13.469,5.509
		c-6.57-4.32-3.559-9.682-0.502-14.721c17.959-29.607,35.986-59.175,53.838-88.849c7.34-12.199,4.783-16.621-9.484-16.755
		c-14.518-0.137-29.037,0.041-43.553-0.051c-14.559-0.095-16.109-1.627-16.141-15.729
		C281.592,222.142,281.627,200.767,281.627,179.393"/>
	<path fill="#FF4C00" d="M241.928,356.738c0.004,22.175-0.065,44.352,0.059,66.524c0.026,4.705-0.636,10.378,5.643,11.896
		c5.766,1.395,8.688-2.84,11.282-7.119c5.011-8.26,10.037-16.51,15.099-24.737c3.173-5.158,7.009-9.714,13.55-5.36
		c5.732,3.814,3.965,8.847,0.91,13.744c-5.75,9.225-11.264,18.596-17.054,27.793c-7.326,11.638-16.841,15.783-28.593,12.15
		c-11.979-3.702-17.31-12.53-17.336-24.686c-0.087-39.915-0.617-79.843,0.269-119.737c0.278-12.598-3.429-16.153-15.508-15.137
		c-12.002,1.009-24.214,0.731-36.248-0.143c-17.552-1.274-27.701-18.931-20.262-34.305c2.386-4.932,5.719-9.421,12.124-7.264
		c6.663,2.244,6.419,7.491,4.153,12.878c-4.212,10.014,1.621,12.377,9.689,12.497c14.511,0.216,29.026,0.06,43.541,0.074
		c18.067,0.019,18.668,0.636,18.677,19.244C241.932,315.613,241.925,336.177,241.928,356.738"/>
</g>
</svg>
