<?xml version="1.0" encoding="utf-8"?>
<!-- Generator: Adobe Illustrator 16.0.0, SVG Export Plug-In . SVG Version: 6.00 Build 0)  -->
<!DOCTYPE svg PUBLIC "-//W3C//DTD SVG 1.1//EN" "http://www.w3.org/Graphics/SVG/1.1/DTD/svg11.dtd">
<svg version="1.1" id="Layer_1" xmlns="http://www.w3.org/2000/svg" xmlns:xlink="http://www.w3.org/1999/xlink" x="0px" y="0px"
	 width="540px" height="540px" viewBox="0 0 540 540" enable-background="new 0 0 540 540" xml:space="preserve">
<g>
	<path fill="#FF4C00" d="M144.396,480.948c-59.15-0.12-113.302-51.583-112.051-113.026c1.221-60.021,51.431-104.633,107.318-95.354
		c56.653,9.406,84.95,71.288,52.849,115.574c-23.761,32.779-71.161,34.481-94.327,3.388c-18.479-24.802-7.805-62.188,20.14-71.071
		c6.054-1.925,11.553-2.598,13.928,4.502c2.165,6.472-2.417,8.78-7.79,11.036c-21.837,9.164-25.749,35.521-7.656,51.075
		c12.788,10.993,27.631,13.492,42.891,6.83c18.688-8.159,28.227-23.837,29.428-43.766c2.519-41.748-43.035-72.889-85.809-59.148
		c-52.118,16.742-71.393,87.165-36.198,132.252c42.283,54.168,122.86,55.047,168.815,1.842
		c42.603-49.325,44.514-118.332,4.714-170.358c-0.49-0.642-0.981-1.283-1.503-1.897c-3.939-4.631-7.07-9.909-1.286-14.723
		c5.792-4.819,10.367-0.721,14.174,3.988c15.213,18.818,25.296,40.071,30.5,63.713c13.553,61.597-15.299,128.433-68.851,159.047
		C194.379,475.885,173.563,481.311,144.396,480.948"/>
	<path fill="#263746" d="M367.66,351.461c-0.976,30.366-4.896,56.94-14.44,82.461c-2.121,5.668-4.353,12.714-12.338,10.035
		c-8.726-2.926-5.882-9.783-3.676-16.133c44.266-127.419-28.902-258.071-160.447-286.615c-1.964-0.427-3.868-1.283-5.844-1.473
		c-6.466-0.62-9.795-4.005-8.442-10.44c1.421-6.76,6.702-7.211,12.335-6.121c22.608,4.375,44.653,10.854,64.87,21.891
		c76.818,41.939,119.877,106.275,126.988,194.033C367.087,344.303,367.503,349.508,367.66,351.461"/>
	<path fill="#263746" d="M392.607,495.149c1.313-67.362,24.276-125.612,73.942-172.308c3.916-3.683,7.992-7.878,13.521-3.895
		c7.683,5.534,4.054,11.016-1.269,15.829c-32.334,29.252-52.461,65.712-63.277,107.592c-6.199,23.999-7.516,48.463-6.143,73.135
		c0.334,5.993,1.693,13.175-7.297,13.675c-9.5,0.528-9.336-6.9-9.451-13.483C392.515,508.849,392.607,501.998,392.607,495.149"/>
	<path fill="#263746" d="M361.785,121.834c1.722-42.206,17.968-77.832,53.752-103.377c2.615-1.866,5.431-3.452,8.166-5.146
		c4.987-3.09,10.249-4.123,13.726,1.529c3.41,5.544,0.686,10.108-4.679,12.911c-43.944,22.965-69.073,86.391-43.731,142.164
		c2.514,5.532,3.703,11.653-3.021,14.563c-6.7,2.898-10.194-2.081-12.677-7.737C365.771,159.536,362.354,141.476,361.785,121.834"/>
	<path fill="#FF4C00" d="M264.322,56.767c0.144-13.537,11.299-24.317,24.752-23.922c13.37,0.395,23.983,11.816,23.538,25.327
		c-0.428,12.937-11.154,23.146-24.328,23.15C274.621,81.327,264.175,70.623,264.322,56.767"/>
	<path fill="#FF4C00" d="M493.083,234.12c-8.502,0.27-15.832-6.334-15.479-14.707c0.36-8.624,4.806-14.398,13.894-14.925
		c9.611-0.558,15.023,4.73,16.09,13.967C508.548,226.783,501.641,233.849,493.083,234.12"/>
	<path fill="#FF4C00" d="M436.026,287.7c-8.27-1.179-13.979-5.221-14.353-14.546c-0.349-8.724,6.204-15.433,14.853-15.408
		c8.723,0.024,15.064,6.683,14.588,15.579C450.618,282.564,445.133,286.83,436.026,287.7"/>
</g>
</svg>
