<?xml version="1.0" encoding="utf-8"?>
<!-- Generator: Adobe Illustrator 27.7.0, SVG Export Plug-In . SVG Version: 6.00 Build 0)  -->
<svg version="1.1" id="Layer_1" xmlns="http://www.w3.org/2000/svg" xmlns:xlink="http://www.w3.org/1999/xlink" x="0px" y="0px"
	 viewBox="0 0 939.1 738" style="enable-background:new 0 0 939.1 738;" xml:space="preserve">
<style type="text/css">
	.st0{fill:#ECECEC;stroke:#000000;stroke-width:0.2;stroke-linecap:round;stroke-linejoin:round;}
	.st1{fill:#768999;stroke:#000000;stroke-width:0.2;stroke-linecap:round;stroke-linejoin:round;}
	.st2{fill:#FFFFFF;}
	.st3{fill:#FF4D00;}
</style>
<path class="st0" d="M940.6,396.9h-0.3l-0.1-0.2h0.4L940.6,396.9L940.6,396.9z"/>
<path id="AF_00000108997311392421891690000018019871731383314593_" class="st0" d="M521,261.6l1.5,1.8l-2.9,0.8l-2.4,1.1l-5.9,0.8
	l-5.3,1.3l-2.4,2.8l1.9,2.7l1.4,3.2l-2,2.7l0.8,2.5l-0.9,2.3l-5.2-0.2l3.1,4.2l-3.1,1.7l-1.4,3.8l1.1,3.9l-1.8,1.8l-2.1-0.6l-4,0.9
	l-0.2,1.7h-4.1l-2.3,3.7l0.8,5.4l-6.6,2.7l-3.9-0.6l-0.9,1.4l-3.4-0.8l-5.3,1l-9.6-3.3l3.9-5.8l-1.1-4.1l-4.3-1.1l-1.2-4.1l-2.7-5.1
	l1.6-3.5l-2.5-1l0.5-4.7l0.6-8l5.9,2.5l3.9-0.9l0.4-2.9l4-0.9l2.6-2l-0.2-5.1l4.2-1.3l0.3-2.2l2.9,1.7l1.6,0.2h3l4.3,1.4l1.8,0.7
	l3.4-2l2.1,1.2l0.9-2.9l3.2,0.1l0.6-0.9l-0.2-2.6l1.7-2.2l3.3,1.4l-0.1,2l1.7,0.3l0.9,5.4l2.7,2.1l1.5-1.4l2.2-0.6l2.5-2.9l3.8,0.5
	L521,261.6L521,261.6z"/>
<path class="st0" d="M259.2,572l0.6,2l-0.7,3.1l0.9,3l-0.9,2.4l0.4,2.2l-11.7-0.1l-0.8,20.5l3.6,5.2l3.6,4l-10.4,2.6l-13.5-0.9
	l-3.8-3l-22.7,0.2l-0.8,0.5l-3.3-2.9l-3.6-0.2l-3.4,1.1l-2.7,1.2l-0.5-4l0.9-5.7l2-5.9l0.3-2.7l1.9-5.8l1.4-2.6l3.3-4.2l1.9-2.9
	l0.6-4.7l-0.3-3.7l-1.6-2.3l-1.5-3.9l-1.3-3.8l0.3-1.4l1.7-2.5l-1.6-6.2l-1.2-4.3l-2.8-4.1l0.6-1.2l2.3-0.9l1.7,0.1l2-0.7l16.7,0.1
	l1.3,4.7l1.6,3.9l1.3,2.1l2.1,3.3l3.8-0.5l1.8-0.9l3.1,0.9l0.9-1.6l1.5-3.7l3.5-0.3l0.3-1.1h2.9l-0.5,2.3l6.8-0.1l0.1,4.1l1.1,2.4
	l-0.9,3.9l0.4,4l1.8,2.4l-0.4,7.6l1.4-0.6l2.4,0.2l3.5-1L259.2,572z"/>
<path class="st0" d="M193.3,539l-1.5-4.8l2.3-2.8l1.7-1.1l2.1,2.2l-2,1.4l-1,1.6l-0.2,2.8L193.3,539z"/>
<path id="AL_00000065797395019063089770000015326258013637967295_" class="st0" d="M226,228l0.4,1.2l1.4-0.6l1.2,1.7l1.3,0.7
	l0.6,2.3l-0.5,2.2l1,2.7l2.3,1.5l0.1,1.7l-1.7,0.9l-0.1,2.1l-2.2,3.1l-0.9-0.4l-0.2-1.4l-3.1-2.2l-0.7-3l0.1-4.4l0.5-1.9l-0.9-1
	l-0.5-2.1L226,228L226,228z"/>
<path id="AE_00000157299669027314518990000013659083504199817867_" class="st0" d="M434.2,336.7l1.3,5.1h-2.8v4.2l1.1,0.9l-2.4,1.3
	l0.2,2.6l-1.3,2.6v2.6l-1,1.4l-16.9-3.2l-2.7-6.6l-0.3-1.4l0.9-0.4l0.4,1.8l4.2-1l4.6,0.2l3.4,0.2l3.3-4.4l3.7-4.1l3-4L434.2,336.7
	L434.2,336.7z"/>
<path id="AM_00000118360424349489451540000002056767678480411312_" class="st0" d="M368.8,253l-1.8,0.2l-2.8-3.7l-0.2-1h-2.3
	l-1.9-1.7l-1,0.1l-2.4-1.8l-4.2-1.6l-0.1-3.1l-1.3-2.2l7-1l1.4,1.6l2.2,1.1l-0.7,1.6l3.2,2.2l-1.1,2.1l2.6,1.7l2.5,1L368.8,253
	L368.8,253z"/>
<path id="AT_00000105395392557513655340000017752520593959022015_" class="st0" d="M208.6,190.8l-0.3,0.8l0.7,2.1l-0.2,2.6H206
	l1.1,1.4l-1.3,4l-0.9,1.1l-4.4,0.1l-2.4,1.5l-4.2-0.5l-7.3-1.7l-1.3-2.1l-4.9,1.1l-0.5,1.2l-3.1-0.9l-2.6-0.2l-2.3-1.2l0.7-1.5
	l-0.2-1.1l1.4-0.3l2.7,1.7l0.6-1.7l4.4,0.3l3.5-1.1l2.4,0.2l1.7,1.3l0.4-1.1l-1-4.1l1.7-0.8l1.6-2.9l3.8,2.1l2.6-2.6l1.7-0.5l4,1.9
	l2.3-0.3L208.6,190.8L208.6,190.8z"/>
<path class="st0" d="M367,253.2l-3.8-0.9l-3.2-2.9l-1.2-2.5l1-0.1l1.9,1.7h2.3l0.2,1L367,253.2z"/>
<path class="st0" d="M373.3,236.2l2.5-2.6l3.5,3.3l3.6,4.6l2.5,0.3l1.9,1.7l-4.2,0.5l0.1,5l-0.4,2.2l-1.7,1.5l0.8,3.1l-1.3,0.4
	l-3.9-3.4l1.2-3.1l-1.9-1.9l-1.9,0.5l-5.3,4.7l-0.9-4.5l-2.5-1l-2.6-1.7l1.1-2.1l-3.2-2.2l0.7-1.6l-2.2-1.1l-1.4-1.6l1.1-1.1
	l4.2,1.9l2.9,0.3l0.6-0.7l-3.3-3.5l1.2-0.8l1.5,0.2l4.3,3.8l2.4,0.5L373.3,236.2z"/>
<path id="BI_00000121969032897036135580000005673201873221628057_" class="st0" d="M292.9,530.4l-0.6,0.1v-0.3l-2-6.1V524l-0.1-1
	l-1.4-2.9l3.5,0.5l1.7-3.7l3.1,0.4l0.3,2.5l1.2,1.5v2.1l-1.4,1.3l-2.3,3.4L292.9,530.4L292.9,530.4z"/>
<path id="BE_00000018954525028109385090000000382056484115938949_" class="st0" d="M154.5,177.1l-0.4,4.2l-1.3,0.2l-0.4,3.5
	l-4.4-2.9l-2.5,0.5l-3.5-2.9l-2.4-2.5l-2.2-0.1l-0.8-2.2l3.9-1.2l3.6,0.5l4.5-1.3l3.1,2.7L154.5,177.1L154.5,177.1z"/>
<path id="BJ_00000115480966591101509000000011136583052053350309_" class="st0" d="M144.7,427l-0.2,2.1l1.3,3.8l-1.1,2.6l0.6,1.7
	l-2.8,4l-1.7,2l-1.1,4l0.2,4.1l-0.3,10.3l-4.7,0.8l-1.4-4.4l0.3-14.8l-1.2-1.3l-0.2-3.2l-2-2.2l-1.7-1.9l0.7-3.4l2-0.7l1.1-2.8
	l2.8-0.6l1.2-1.9l1.9-1.9h2L144.7,427L144.7,427z"/>
<path id="BF_00000136406568218824724630000006156063771677666193_" class="st0" d="M126.5,406l-0.5,3.1l0.8,2.9l3.1,4.2l0.2,3.1
	l6.5,1.5l-0.1,4.4l-1.2,1.9l-2.8,0.6l-1.1,2.8l-2,0.7l-4.9-0.1l-2.6-0.5l-1.8,1l-2.5-0.5l-9.8,0.3l-0.2,3.7l0.8,4.8l-3.9-1.6
	l-2.6,0.2l-2,1.6l-2.5-1.3l-1-2.2l-2.5-1.4l-0.4-3.7l1.6-2.7l-0.2-2.2l4.5-5.3l0.9-4.4l1.5-1.6l2.7,0.9l2.4-1.3l0.8-1.7l4.3-2.8
	l1.1-2l5.3-2.7l3.1-0.9l1.4,1.2H126.5L126.5,406z"/>
<path id="BD_00000031202115656626764870000008720013358496197260_" class="st0" d="M638.6,360.3l0.6,4.6l-2.1-1l1.1,5.2l-2.1-3.3
	l-0.8-3.3l-1.5-3.1l-2.8-3.7l-5.2-0.3l0.9,2.7l-1.2,3.5l-2.6-1.3l-0.6,1.2l-1.7-0.7l-2.2-0.6l-1.6-5.3l-2.6-4.8l0.3-3.9l-3.7-1.7
	l0.9-2.3l3-2.4l-4.6-3.4l1.2-4.4l4.9,2.8l2.7,0.3l1.2,4.5l5.4,0.9l5.1-0.1l3.4,1.1l-1.6,5.4l-2.4,0.4l-1.2,3.6l3.6,3.4l0.3-4.2h1.5
	L638.6,360.3L638.6,360.3z"/>
<path id="BG_00000135658474221695229530000012708650783884386708_" class="st1" d="M270.6,221.6l-2.3,2.6l-1.3,4.5l2.1,3.6l-4.6-0.8
	l-5,2l0.3,3.2l-4.6,0.6l-3.9-2.3l-4,1.8l-3.8-0.2l-0.8-4.2l-2.8-2.1l0.7-0.8l-0.6-0.8l0.6-2l1.8-2l-2.8-2.7l-0.7-2.4l1.1-1.4
	l1.8,2.6l1.9-0.4l4,0.9l7.6,0.4l2.3-1.6l5.9-1.5l4,2.3L270.6,221.6L270.6,221.6z"/>
<path id="BA_00000086684960295198151960000001181097545688931773_" class="st0" d="M221,214.3l1.9-0.1l-1.1,2.8l2.7,2.5l-0.5,2.9
	l-1.1,0.3l-0.9,0.6l-1.6,1.5l-0.4,3.5l-4.8-2.4l-2.1-2.7l-2.1-1.4l-2.5-2.4l-1.3-1.9l-2.7-3l0.8-2.6l2,1.5l1-1.4l2.3-0.1l4.5,1.1
	l3.5-0.1L221,214.3L221,214.3z"/>
<path id="BY_00000035502308745902535910000013142462021355332284_" class="st0" d="M279.6,162.7l-3.9-0.2l-0.8,0.6l1.5,2l2,4
	l-4.1,0.3l-1.3,1.4l0.3,3.1l-2.1-0.6l-4.3,0.3l-1.5-1.5l-1.7,1.1l-1.9-0.9l-3.9-0.1l-5.7-1.5l-4.9-0.5l-3.8,0.2l-2.4,1.6l-2.3,0.3
	l-0.5-2.8l-1.9-2.8l2.8-1.3l-0.4-2.4l-1.7-2.3l-0.6-2.7h4.7l4.8-2.3l0.5-3.4l3.6-2l-1-2.7l2.7-1l4.6-2.3l5.3,1.5l0.9,1.5l2.4-0.7
	l4.8,1.4l1.1,2.9l-0.7,1.6l3.8,4l2.1,1.1v1.1l3.4,1.1l1.7,1.6L279.6,162.7L279.6,162.7z"/>
<path id="BN_00000180331768772236231140000004219550057994438846_" class="st0" d="M771.1,472.8l2.2-2.4l4.6-3.6l-0.1,3.2l-0.1,4.1
	l-2.7-0.2l-1.1,2.2L771.1,472.8L771.1,472.8z"/>
<path id="BT_00000057132924251131115100000017425595165833649840_" class="st0" d="M626.8,323.5l2.6,2.1l0.5,3.9l-4.5,0.2l-4.7-0.4
	l-3.2,1l-5.5-2.5l-0.4-1.2l2.6-4.8l2.6-1.6l4.3,1.4l2.9,0.2L626.8,323.5L626.8,323.5z"/>
<path id="BW_00000033362829733114781910000014817072290058208660_" class="st0" d="M265.6,615.7l1.9,5.1l1.1,1.2l1.6,3.7l6.1,7
	l2.3,0.7l-0.1,2.3l1.5,4.1l4.3,1l3.4,2.9l-8.1,4.7l-5.2,4.8l-2,4.3l-1.8,2.4l-3,0.5l-1.2,3.1l-0.6,2l-3.6,1.4l-4.5-0.3l-2.5-1.8
	l-2.3-0.7l-2.8,1.4l-1.5,3.1l-2.7,1.9l-2.8,2.9l-4,0.7l-1.1-2.3l0.6-3.9l-3-6.1l-1.4-1l0.6-18.7l5.5-0.2l0.8-22.9l4.2-0.2l8.7-2.3
	l2,2.7l3.7-2.5h1.7l3.2-1.5L265.6,615.7L265.6,615.7z"/>
<path id="CF_00000065037137380585594120000002996049848586649227_" class="st0" d="M259.3,446.5l3.9,2.5l3.1,2.6l0.1,2.1l3.9,3.3
	l2.4,2.8l1.4,3.8l4.3,2.6l0.9,2l-1.8,0.7l-3.7-0.1l-4.2-0.7l-2.1,0.5l-0.9,1.6l-1.8,0.2l-2.2-1.4l-6.3,3.2l-2.6-0.6l-0.8,0.5
	l-1.6,3.9l-4.3-1.3l-4.1-0.6l-3.6-2.4l-4.7-2.2l-3,2.1l-2.2,3.2l-0.5,4.5l-3.6-0.3l-3.9-1.1l-3.3,3.4l-3,6l-0.6-1.9l-0.3-2.9
	l-2.6-2.1l-2.1-3.3l-0.5-2.3l-2.7-3.4l0.5-1.9l-0.6-2.7l0.4-5l1.4-1.1l2.8-6.5l4.6-0.5l1-1.7l1,0.2l1.4,1.4l7.1-2.4l2.4-2.5l2.9-2.3
	l-0.6-2.2l1.6-0.6l5.5,0.4l5.2-3l4-7l2.8-2.6l3.6-1.1l0.7,2.7l3.3,4v2.7l-0.8,2.6l0.4,2l1.9,1.9L259.3,446.5L259.3,446.5z"/>
<path id="CH_00000093161343791799061480000018250354164271118726_" class="st0" d="M172.4,197.5l0.2,1.1l-0.7,1.5l2.3,1.2l2.6,0.2
	l-0.3,2.5l-2.1,1.1l-3.8-0.8l-1,2.5l-2.4,0.2l-0.9-1l-2.7,2.2l-2.5,0.3l-2.2-1.4l-1.8-2.7l-2.4,1v-2.9l3.6-3.5l-0.2-1.6l2.3,0.6
	l1.3-1.1h4.2l1-1.3L172.4,197.5L172.4,197.5z"/>
<path class="st0" d="M740.2,381.9l-4.3,3.1l-4.9-2l-1-5.5l2.2-2.9l5.8-1.8l3.3,0.1l1.6,2.5l-2,2.8L740.2,381.9z"/>
<path class="st0" d="M763.6,185.5l9,4.5l6,5.8h7.6l2.6-2.4l6.9-1.9l1.3,5.7l-0.3,2.3l2.8,6.8l0.6,6.2l-6.9-1.1l-2.9,2.2l4.7,5.4
	l3.9,7.5l-2.5,0.1l1.9,3.3l-5.5-3.8v3.6l-6.4,2.7l2.8,3.4l-4.6-0.3l-3.6-2l-1.1,4.6l-3.9,3.4l-2.1,4.1l-6.3,1.8l-2.4,3l-4.8,1.8
	l1.3-3l-2.3-2.5l2-4.3l-4.5-3.3l-3.4,2.2l-3.6,4.5l-1.3,4.1l-5,0.3l-1.3,3l4.8,4.3l4.8,1.1l1.4,2.8l5.1,1.9l3.8-4.6l5.9,2.5l3.5,0.2
	l2.3,3.3l-6.7,1.8l-1,3.5l-3.8,3.2l-0.9,4.5l7.1,3.5l4.6,6.3l5.5,5.9l5.5,4.9l1.6,4.8l-2.8,1.8l2.4,3.4l3.9,2l0.8,5.2l0.1,5.1
	l-2.8,0.6l-2.1,6.9l-2.3,8.5l-3.4,7.6l-6.4,5.9l-6.6,5.5l-6.1,0.7l-2.9,2.8l-2.3-2l-2.5,3.1l-7.2,3.3l-5.8,0.9l-0.7,6.8l-3.1,0.4
	l-2.2-4.7l0.9-2.4l-7.8-2.1l-2.4,1.1l-5.9-1.7l-3.1-2.6l0.3-3.7l-5.3-1.2l-3.1-2.4l-4.1,3.4l-5.3,0.8l-4.4-0.1l-2.7,1.6l-2.7,0.9
	l2,7.4l-3-0.2l-0.8-1.5l-0.5-2.7l-3.8,1.9l-2.6-1.2l-4.5-2.4l0.8-5.3l-3.7-1.3l-2.4-5.9l-5.6,1.1l-0.7-7.6l4.2-5.4l-0.9-5.3
	l-1.3-4.9l-2.7-1.5l-2.7-3.8l-3.1,0.5l-6.1-1l1.2-2.7l-3.6-4l-3.2,2.7l-4.9-1.5l-5.4,4l-3.9,4.8l-4.2,0.8l-2.8-1.7l-2.9-0.2
	l-4.3-1.4l-2.6,1.6l-2.6,4.8l-1.5-5.1l-3.1,1.4l-6.5-0.7l-6.5-1.4l-5-2.9l-4.5-1.2l-2.5-3.1l-3.3-0.9l-6.4-4.2l-4.8-2l-1.9,1.5
	l-8.6-4.5l-6.2-4l-3.2-7.1l4.1,0.9l-0.6-3.3l-3-3.3l-0.8-5.2l-7.7-7.6l-9.5-2.5l-2.9-5l-4.7-3l-1.5-1.8l-1.8-3.6l-0.5-2.5L515,254
	l-1.5,0.7l-3.1-6l1.1-1.4l-1.2-1.5l4.1-3l3.2-1.3l5.8,0.9l0.6-4.1l6.4-0.7l1-2.6l6.9-3.4l0.2-1.4l-1.7-3.7l2.9-1.6l-8.8-11l9.1-2.5
	l2-1.4l-1-11.3l10.8,2.1l1.6-2.9l-2.5-6.2l3.8-0.6l1.9-4.2l1.7-0.5l3.3,4.4l5.7,3.3l8.2,2.3l5.8,5.1l1.4,7.3l3,2.8l6.5,1.1l7.2,0.8
	l8,4l3.4,0.7l5,5.8l4.7,3.8l5.6-0.2l11.3,1.5l6.4-0.9l5.6,0.9l9.4,3.9h6.2l3.3,1.9l4.4-3.4l7.2-2.2l7.6-0.2l4.9-2.2l2-3.4l2.4-2.2
	l-1.9-2.1l-2.9-2.4l0.5-4.1l3.2,0.6l5.9,1.3l3.2-3.4l6.4-2.4l1.3-4.2l2.5-1.8l6.8-0.8l4.4,0.7l-0.8-2.2l-7.2-4.4l-5.2-2l-2.5,2.3
	l-5.5-1l-2.3,0.8l-2.8-2.5l-0.3-6.3l-0.6-4.7l7.4,2.4l4.4-3.9l-1.9-2.8l-0.2-6.5l1.3-2l-2.5-3.4l-3.7-1.4l1.7-3.1l5.1-1.1l6.2-0.2
	l8.6,1.9l6,2.2l7.7,6.2l3.8,2.7l4.5,3.8l6.2,6L763.6,185.5z"/>
<path id="CI_00000022518202421993458140000012192240908268447902_" class="st0" d="M93.9,435.2l2.5,1.4l1,2.2l2.5,1.3l2-1.6l2.6-0.2
	l3.9,1.6l1.5,9.2l-2.4,5.3l-1.5,7.3l2.4,5.5l-0.2,2.6h-2.6l-3.9-1.2H98l-6.7,1.2l-3.9,1.8l-5.6,2.4l-1.1-0.2l0.4-5.3l0.6-0.8
	l-0.2-2.5l-2.4-2.7l-1.8-0.4l-1.6-1.8l1.2-2.9l-0.5-3.1l0.2-1.8h0.9l0.4-2.8l-0.4-1.3l0.5-0.9l2.1-0.7l-1.4-5.2l-1.3-2.6l0.5-2.2
	l1.1-0.5l0.8-0.6l1.5,1h4.4l1-1.8l1,0.1l1.6-0.7l0.9,2.7l1.3-0.8L93.9,435.2z"/>
<path id="CM_00000148641804922284441230000017569997066602439835_" class="st0" d="M210.8,454.2l-2.8,6.5l-1.4,1.1l-0.4,5l0.6,2.7
	l-0.5,1.9l2.7,3.4l0.5,2.3l2.1,3.3l2.6,2.1l0.3,2.9l0.6,1.9l-0.4,3.4l-4.5-1.5l-4.6-1.7l-7.1-0.2l-0.7-0.4l-3.4,0.8l-3.4-0.8
	l-2.7,0.4l-9.3-0.1l0.9-5.1l-2.3-4.3l-2.6-1l-1.1-2.9l-1.5-0.9l0.1-1.8l1.4-4.6l2.7-6.2h1.6l3.4-3.8l2.1-0.1l3.2,2.7l3.9-2.2
	l0.5-2.7l1.3-2.6l0.8-3.2l3-2.6l1.1-4.5l1.2-1.5l0.8-3.3l1.4-4.1l4.7-5l0.3-2.1l0.6-1.2l-2.3-2.5l0.2-2.1l1.5-0.3l2.3,4.1l0.5,4.2
	l-0.2,4.3l3.2,5.8h-3.2l-1.6,0.4l-2.6-0.6l-1.2,3l3.4,3.8l2.5,1.1l0.8,2.6l1.8,4.4L210.8,454.2L210.8,454.2z"/>
<path id="CD_00000174599282895430339240000009470421162997625525_" class="st0" d="M279.3,468.2l3.5,5.3l2.6,0.8l1.5-1.1l2.6,0.4
	l3.1-1.3l1.4,2.7l5.1,4.3l-0.3,7.5l2.3,0.9l-1.9,2.2l-2.1,1.8l-2.2,3.3l-1.2,3l-0.3,5.1l-1.3,2.5l-0.1,4.8l-1.6,1.8l-0.2,3.8
	l-0.8,0.5l-0.6,3.6l1.4,2.9l0.1,1l-1.2,10.3l1.5,3.6l-1,2.7l1.8,4.6l3.4,3.5l0.7,3.5l1.6,1.7l-0.3,1.1l-0.9-0.3l-7.7,1.1l-1.5,0.8
	l-1.7,4.1l1.2,2.8l-1.1,7.6l-0.9,6.4l1.5,1.2l3.9,2.5l1.6-1.2l0.2,6.9h-4.3l-2.2-3.5l-2-2.8l-4.3-0.9l-1.2-3.3l-3.5,2l-4.4-0.9
	l-1.9-2.9l-3.5-0.6l-2.7,0.1l-0.3-2l-1.9-0.1l-2.6-0.4l-3.5,1l-2.4-0.2l-1.4,0.6l0.4-7.6l-1.8-2.4l-0.4-4l0.9-3.9l-1.1-2.4l-0.1-4.1
	l-6.8,0.1l0.5-2.3H238l-0.3,1.1l-3.5,0.3l-1.5,3.7l-0.9,1.6l-3.1-0.9l-1.8,0.9l-3.8,0.5l-2.1-3.3l-1.3-2.1l-1.6-3.9l-1.3-4.7
	l-16.7-0.1l-2,0.7l-1.7-0.1l-2.3,0.9l-0.8-2l1.4-0.7l0.2-2.8l1-1.6l2-1.4l1.5,0.7l2-2.5l3.1,0.1l0.3,1.8l2.1,1.1l3.4-4l3.3-3.1
	l1.4-2.1l-0.1-5.3l2.5-6.2l2.6-3.3l3.7-3.1l0.7-2l0.1-2.4l0.9-2.2l-0.3-3.7l0.7-5.7l1.1-4l1.7-3.4l0.3-3.9l0.5-4.5l2.2-3.2l3-2.1
	l4.7,2.2l3.6,2.4l4.1,0.6l4.3,1.3l1.6-3.9l0.8-0.5l2.6,0.6l6.3-3.2l2.2,1.4l1.8-0.2l0.9-1.6l2.1-0.5l4.2,0.7l3.7,0.1L279.3,468.2
	L279.3,468.2z"/>
<path id="CG_00000083060239956669107310000000171562423592816056_" class="st0" d="M228.9,479.3l-0.3,3.9l-1.7,3.4l-1.1,4l-0.7,5.7
	l0.3,3.7l-0.9,2.2l-0.1,2.4l-0.7,2l-3.7,3.1l-2.6,3.3l-2.5,6.2l0.1,5.3l-1.4,2.1l-3.3,3.1l-3.4,4l-2.1-1.1l-0.3-1.8l-3.1-0.1l-2,2.5
	l-1.5-0.7l-2.1-2.2l-1.7,1.1l-2.3,2.8l-4.6-6.8l4.3-3.6l-2.1-4.2l2-1.6l3.8-0.8l0.4-2.9l3.1,3.1l5,0.3l1.7-3l0.7-4.3l-0.6-5
	l-2.7-3.8l2.5-7.5l-1.4-1.2l-4.2,0.5l-1.6-3.3l0.4-2.8l7.1,0.2l4.6,1.7l4.5,1.5l0.4-3.4l3-6l3.3-3.4l3.9,1.1L228.9,479.3
	L228.9,479.3z"/>
<path id="CZ_00000018942311251932056370000009010314066710380454_" class="st0" d="M197.7,175.2l2.5,2l3.7,0.5l-0.2,1.7l2.8,1.3
	l0.6-1.6l3.4,0.7l0.7,2l3.7,0.3l2.6,3.1H216l-0.7,1.1l-1.1,0.3L214,188l-0.9,0.3l-0.1,0.6l-1.6,0.6l-2.2-0.1l-0.6,1.4l-2.4-1.2
	l-2.3,0.3l-4-1.9l-1.7,0.5l-2.6,2.6l-3.8-2.1l-3-2.6l-2.6-1.5l-0.7-2.7l-1-1.8l3.4-1.3l1.7-1.6l3.5-1.2l1.1-1.2l1.3,0.7L197.7,175.2
	L197.7,175.2z"/>
<path id="DE_00000103245034864843922670000009009425215726579847_" class="st0" d="M191.9,158.9l1.4,3.1l-1.2,1.7l1.9,2.1l1.5,3.3
	l-0.2,2.2l2.4,3.9l-2.2,0.6l-1.3-0.7l-1.1,1.2l-3.5,1.2l-1.7,1.6l-3.4,1.3l1,1.8l0.7,2.7l2.6,1.5l3,2.6l-1.6,2.9l-1.7,0.8l1,4.1
	l-0.4,1.1l-1.7-1.3l-2.4-0.2l-3.5,1.1l-4.4-0.3l-0.6,1.7l-2.7-1.7l-1.4,0.3l-5.5-1.9l-1,1.3h-4.2l0.4-4.5l2.4-4.2l-7.2-1.2l-2.4-1.6
	l0.2-2.7l-1-1.4l0.4-4.2l-1.1-6.5h2.9l1.2-2.3l0.9-5.6l-0.9-2.1l0.8-1.3l4-0.3l1,1.3l3.1-3l-1.3-2.3l-0.4-3.4l3.7,0.8l2.9-0.9
	l0.3,2.3l4.9,1.4l0.1,2.2l4.7-1.2l2.6-1.6l5.6,2.4L191.9,158.9L191.9,158.9z"/>
<path id="DJ_00000039135825705359156490000000844444352031850663_" class="st0" d="M367.5,428.2l-1.9,3.5l-1.3-1.2L363,431l-3.2-0.1
	l-0.2-2l-0.5-1.8l1.8-3l1.9-2.8l2.4,0.6l1.7-1.6l1.4,2l-0.1,2.6l-3.1,1.6L367.5,428.2L367.5,428.2z"/>
<path class="st0" d="M184.1,147.7l-2.4,4.9l-5.2-3.5l-0.9-2.5l6.8-2L184.1,147.7z"/>
<path class="st0" d="M171.3,151.5l-2.9,0.9l-3.7-0.8l-2.1-3.4l-0.4-6.1l0.6-1.7l1.3-1.8l4-0.3l1.6-1.7l3.6-1.7v3.1l-1.2,2l0.7,1.6
	l2.6,0.9l-1,2.3l-1.4-0.6l-3.1,4.3L171.3,151.5z"/>
<path id="DZ_00000014633227991667672640000006692604960252435391_" class="st0" d="M169,264.6l-1,3.3l1,6.1l-1.1,5.3l-3.2,3.6
	l0.6,4.8l4.5,3.9l0.1,1.5l3.4,2.6l2.6,11.5l1.9,5.7l0.4,3l-0.8,5.2l0.4,3l-0.6,3.5l0.6,4l-2.2,2.7l3.4,4.7l0.2,2.7l2.1,3.6l2.5-1.2
	l4.5,3l2.5,4L172,363.4L156,376l-7.8,2.8l-6.2,0.7l-0.1-4.1l-2.6-1.1l-3.5-1.8l-1.3-3l-18.7-14l-18.6-14l-20.5-15.6l0.1-1.2l0.1-0.4
	l0.1-7.6l8.9-4.8l5.4-1l4.5-1.7l2.1-3.2l6.4-2.5l0.3-4.8l3.1-0.6l2.5-2.3l7.1-1.1l1-2.5l-1.4-1.4L115,284l-0.3-3.9l-1.9-4.1l5.1-3.5
	l5.8-1.1l3.3-2.6l5.1-2l9-1.1l8.8-0.5l2.7,0.9l4.9-2.5l5.7-0.1l2.2,1.5L169,264.6L169,264.6z"/>
<path id="EG_00000022547425727408775250000015901964099544639652_" class="st0" d="M310.1,301.4l3.9,9.4l0.7,1.6l-1.3,2.6l-0.7,4.8
	l-1.2,3.4l-1.2,1.1l-2-2.1l-2.7-2.8l-4.7-9.2l-0.5,0.6l2.8,6.7l3.9,6.5l4.9,10l2.3,3.5l2,3.6l5.4,7.1l-1,1.1l0.4,4.2l6.8,5.8
	l1.1,1.3h-22.1h-21.5h-22.3l-1-23.7l-1.3-22.8l-2-5.2l1.1-3.9l-1-2.8l1.7-3.1l7.2-0.1l5.4,1.7l5.5,1.9l2.6,1l4-2l2.1-1.8l4.7-0.6
	l3.9,0.8l1.8,3.2l1.1-2.1l4.4,1.5l4.3,0.4L310.1,301.4L310.1,301.4z"/>
<path id="ER_00000084532336346215365020000002409085343799336888_" class="st0" d="M366.9,420.3l-1.7,1.6l-2.4-0.6l-2-2.1l-2.5-3.7
	l-2.6-2.1l-1.5-2.2l-5-2.6l-3.9-0.1l-1.4-1.3l-3.2,1.5l-3.6-2.9l-1.5,4.8l-6.6-1.4l-0.7-2.5l2-9.5l0.3-4.2l1.7-2l4-1.1l2.7-3.6
	l3.6,7.4l1.9,5.9l3.2,3.1l8,6.1l3.3,3.6l3.2,3.8l1.8,2.2L366.9,420.3L366.9,420.3z"/>
<path id="EE_00000042728637299897264170000014404438978678518446_" class="st0" d="M251.7,124.6l0.9,1L250,129l2.4,5.6l-1.6,1.9
	l-3.8-0.1l-4.4-2.2l-2.1-0.7l-3.8,1l-0.1-3.5l-1.5,0.8l-3.3-2.1l-1-3.4l5.5-1.7l5.6-0.8l5.1,0.9L251.7,124.6L251.7,124.6z"/>
<path id="ET_00000046328869746085235450000018442606312007009698_" class="st0" d="M345.3,408.5l3.9,0.1l5,2.6l1.5,2.2l2.6,2.1
	l2.5,3.7l2,2.1l-1.9,2.8l-1.8,3l0.5,1.8l0.2,2l3.2,0.1l1.3-0.5l1.3,1.2l-1.2,2.2l2.2,3.6l2.2,3.1l2.2,2.3l18.7,7.6l4.8-0.1
	l-15.6,19.3l-7.3,0.3l-5,4.5l-3.6,0.1l-1.5,2.1h-3.9l-2.3-2.2l-5.2,2.7l-1.6,2.7l-3.8-0.6l-1.3-0.7l-1.3,0.2l-1.8-0.1l-7.2-5.4h-4
	l-1.9-2.1l-0.1-3.6l-2.9-1.1l-3.5-7l-2.6-1.5l-1-2.6l-3-3.1l-3.5-0.5l1.9-3.6l3-0.2l0.8-1.9l-0.2-5v-0.8l1.5-6.7l2.6-1.8l0.5-2.6
	l2.3-5l3.3-3.1l2-6.4l0.7-5.5l6.6,1.4l1.5-4.8l3.6,2.9l3.2-1.5L345.3,408.5L345.3,408.5z"/>
<path id="FI_00000179613180134743753240000009643069737801465531_" class="st0" d="M242.1,70.1l0.4,3.8l7.3,3.7l-2.9,4.2l6.5,6.3
	l-1.7,4.8l4.9,4.2l-0.9,3.8l7.4,3.9l-0.9,2.9l-3.4,3.4l-8,7.4l-8,0.5l-7.6,2.1l-7.1,1.3l-3.2-3.2l-4.7-1.9l0.1-5.8l-3-5.2l1.6-3.4
	l3.3-3.5l8.8-6.2l2.6-1.2l-0.9-2.4l-6.5-2.6l-1.8-2.2l-1.8-8.5l-7.2-3.7l-6-2.7l2.2-1.4l5.1,2.8l5.3-0.2l4.7,1.3l3.4-2.4l1.1-4
	l5.9-1.8l5.8,2.1L242.1,70.1L242.1,70.1z"/>
<path id="GA_00000145058005312625950410000016487026402314717606_" class="st0" d="M198.5,487.3l-0.4,2.8l1.6,3.3l4.2-0.5l1.4,1.2
	l-2.5,7.5l2.7,3.8l0.6,5l-0.7,4.3l-1.7,3l-5-0.3l-3.1-3.1l-0.4,2.9l-3.8,0.8l-2,1.6l2.1,4.2l-4.3,3.6l-5.8-6.5l-3.7-5.3l-3.5-6.6
	l0.2-2.2l1.3-2l1.3-4.7l1.2-4.8l1.9-0.3h8.2v-7.7l2.7-0.4l3.4,0.8l3.4-0.8L198.5,487.3L198.5,487.3z"/>
<path class="st0" d="M94.7,158.2l-3.5-1.2l-3,0.1l1.2-3.3l-0.9-3.2l4-0.3l4.9,3.8L94.7,158.2z"/>
<path class="st0" d="M110.6,129.5l-5.1,6.5l4.7-0.8h5.1l-1.3,4.9l-4.3,5.4l4.9,0.3l0.3,0.7l4.2,7.1l3.2,1l2.9,7l1.4,2.4l5.9,1.1
	l-0.6,4l-2.4,1.8l1.9,3.2l-4.4,3.2l-6.5-0.1l-8.4,1.8l-2.2-1.3l-3.3,2.9l-4.5-0.7l-3.6,2.4l-2.5-1.2l7.3-6.5l4.4-1.4l-7.6-1
	l-1.3-2.5l5.1-1.9l-2.5-3.3l1-4l7.1,0.6l0.8-3.6l-3.1-3.7l-0.1-0.1l-5.7-1.1l-1.1-1.6l1.8-2.7l-1.5-1.7l-2.6,2.9l-0.1-5.9l-2.2-3
	l1.9-6.2l3.8-4.8l3.6,0.4L110.6,129.5z"/>
<path id="GE_00000168086535257478458740000013065093082011562175_" class="st0" d="M353.7,227.9l5.1,1.3l2.1,2.6l3.6,1.5l-1.2,0.8
	l3.3,3.5l-0.6,0.7l-2.9-0.3l-4.2-1.9l-1.1,1.1l-7,1l-5.6-3.2l-5.5,0.3l0.3-2.7l-2.1-4.3l-3.4-2.4l-3-0.7l-2.2-1.9l0.4-0.8l4.6,1.1
	l7.7,1l7.6,3.1l1.2,1.2L353.7,227.9L353.7,227.9z"/>
<path id="GH_00000108290213018822150250000014607749913953082020_" class="st0" d="M124.5,431.1l-0.4,2l2.3,3.3v4.7l0.6,5l1.4,2.4
	l-1.3,5.7l0.5,3.2l1.5,4.1l1.3,2.3l-8.9,3.7l-3.2,2.2l-5.1,1.9l-5-1.8l0.2-2.6l-2.4-5.5l1.5-7.3l2.4-5.3l-1.5-9.2l-0.8-4.8l0.2-3.7
	l9.8-0.3l2.5,0.5l1.8-1L124.5,431.1L124.5,431.1z"/>
<path id="GN_00000172423904371945044330000001107928464873415857_" class="st0" d="M59.5,421.9l0.3,2.4h0.9l1.5-0.9l0.9,0.2l1.6,1.7
	l2.4,0.5l1.5-1.4l1.9-0.9l1.3-0.9l1.1,0.2l1.3,1.4l0.6,1.8l2.3,2.7l-1.1,1.6l-0.3,2.1l1.2-0.6l0.7,0.7l-0.3,1.9l1.7,1.9l-1.1,0.5
	l-0.5,2.2l1.3,2.6l1.4,5.2l-2.1,0.7l-0.5,0.9l0.4,1.3l-0.4,2.8h-0.9l-1.6-0.2l-1.1,2.6h-1.6l-1.1-1.4l0.4-2.6l-2.4-3.9l-1.4,0.7
	l-1.3,0.2l-1.5,0.3l0.1-2.3l-0.9-1.7l0.2-1.9l-1.2-2.7l-1.6-2.3h-4.5l-1.3,1.2l-1.6,0.2l-1,1.4l-0.6,1.7l-3.1,2.9l-2.4-3.8l-2.2-2.5
	l-1.4-0.9l-1.4-1.3l-0.6-2.8l-0.8-1.4l-1.7-1.1l2.6-3.1l1.7,0.1l1.5-1l1.2-0.1l0.9-0.8l-0.4-2.1l0.6-0.7l0.1-2.2l2.7,0.1l4.1,1.5
	l1.2-0.1l0.4-0.7l3.1,0.5L59.5,421.9L59.5,421.9z"/>
<path id="GM_00000093871435924295113110000002639675196656109961_" class="st0" d="M29.6,417.4l0.8-2.9l6.1-0.1l1.3-1.6l1.8-0.1
	l2.2,1.6h1.7l1.9-1l1.1,1.8l-2.5,1.5l-2.4-0.2l-2.4-1.3l-2.1,1.5h-1l-1.4,0.9L29.6,417.4L29.6,417.4z"/>
<path id="GW_00000164476177513569907310000016547377535105896370_" class="st0" d="M47.2,421l-0.1,2.2l-0.6,0.7l0.4,2.1l-0.9,0.8
	l-1.2,0.1l-1.5,1l-1.7-0.1l-2.6,3.1l-2.9-2.6l-2.4-0.5l-1.3-1.8l0.1-1l-1.7-1.3l-0.4-1.4l3-1l1.9,0.2l1.5-0.8L47.2,421L47.2,421z"/>
<path id="GQ_00000054234315757995024040000018183636158612488357_" class="st0" d="M188.3,487.3v7.7h-8.2l-1.9,0.3l-1.1-0.9l1.9-7.2
	L188.3,487.3L188.3,487.3z"/>
<path class="st0" d="M250.7,272.6l3.1,2.2l4.1-0.4l4,0.4v1.2l2.8-0.8l-0.5,1.9l-7.6,0.5l-0.1-1l-6.6-1.3L250.7,272.6z"/>
<path class="st0" d="M259.9,239.9l-3.2-0.2l-2.7-0.6l-6.2,1.6l4,3.6l-2.5,1.1h-2.9l-3.1-3.3l-0.9,1.4l1.6,3.8l2.9,3l-1.9,1.4
	l3.2,2.9l2.8,1.9l0.4,3.6l-5-1.7l1.8,3.3l-3.3,0.6l2.5,5.7l-3.5,0.1l-4.6-2.8l-2.4-5.1l-1.3-4.3l-2.3-2.9l-3-3.7l-0.5-1.8l2.2-3.1
	l0.1-2.1l1.7-0.9l-0.1-1.7l3.4-0.5l1.8-1.4l2.8,0.1l0.8-1.1l1-0.2l3.8,0.2l4-1.8l3.9,2.3l4.6-0.6l-0.3-3.2l2.7,1.7l-1.1,4
	L259.9,239.9z"/>
<path id="HR_00000090253662220407813630000005830360622157458861_" class="st1" d="M219.5,207.6l1.5,2.5l1.7,1.8l-1.7,2.4l-2.4-1.4
	l-3.5,0.1l-4.5-1.1l-2.3,0.1l-1,1.4l-2-1.5l-0.8,2.6l2.7,3l1.3,1.9l2.5,2.4l2.1,1.4l2.1,2.7l4.8,2.4l-0.5,1l-5-2.3l-3.2-2.3
	l-4.8-1.9l-4.7-4.6l1-0.5l-2.5-2.7l-0.3-2.1l-3.3-1l-1.4,2.7l-1.6-2.1v-2.2l0.1-0.1l3.6,0.2l0.8-1l1.8,1l2,0.1l-0.1-1.7l1.7-0.7
	l0.3-2.5l3.9-1.7l1.6,0.8l4,2.7l4.3,1.2L219.5,207.6L219.5,207.6z"/>
<path id="HU_00000007416619347145914740000017561333525633820304_" class="st0" d="M234.2,191.9l3,1.7l0.5,1.7l-2.9,1.3l-1.9,4.2
	l-2.6,4.3l-3.9,1.2l-3.2-0.3l-3.7,1.6l-1.8,1l-4.3-1.2l-4-2.7l-1.6-0.8l-1.2-2.1l-0.8-0.1l1.3-4l-1.1-1.4h2.8l0.2-2.6l2.7,1.7
	l1.9,0.6l4.1-0.7l0.3-1.3l1.9-0.2l2.3-0.9l0.6,0.4l2.3-0.8l1-1.5l1.6-0.4l5.5,1.9L234.2,191.9L234.2,191.9z"/>
<path class="st0" d="M854,494.6l-0.3,5.6l-2.9-0.7l-0.9,3.9l2.3,3.4l-1.6,0.8l-2.2-4.1l-1.7-8.2l1-5.1l1.8-2.3l0.5,3.5l3.4,0.5
	L854,494.6z"/>
<path id="IN_00000001664200487393932060000000383271268998350773_" class="st0" d="M565.6,308l-2.8,3l-0.9,6l5.8,2.4l5.8,3.1
	l7.8,3.6l7.7,0.9l3.8,3.2l4.3,0.6l6.9,1.5l4.6-0.1l0.1-2.5l-1.5-4.1l-0.2-2.7l3.1-1.4l1.5,5.1l0.4,1.2l5.5,2.5l3.2-1l4.7,0.4
	l4.5-0.2l-0.5-3.9l-2.6-2.1l4.2-0.8l3.9-4.8l5.4-4l4.9,1.5l3.2-2.7l3.6,4l-1.2,2.7l6.1,1l1,2.4l-1.7,1.2l1.4,3.9l-4.2-1.1l-6.2,4.4
	l0.9,3.7l-2,5.4l0.3,3.1l-1.6,5.3l-4.6-1.5l0.9,6.7l-1,2.2l1,2.7l-2.5,1.5l-4.4-10.2h-1.5l-0.3,4.2l-3.6-3.4l1.2-3.6l2.4-0.4
	l1.6-5.4l-3.4-1.1l-5.1,0.1l-5.4-0.9l-1.2-4.5l-2.7-0.3l-4.9-2.8l-1.2,4.4l4.6,3.4l-3,2.4l-0.9,2.3l3.7,1.7l-0.3,3.9l2.6,4.8
	l1.6,5.3l-0.5,2.4l-3.8-0.1l-6.6,1.3l0.9,4.8l-2.4,3.8l-7.5,4.4l-5.3,7.5l-3.8,4.1l-5,4.2l0.3,2.9l-2.6,1.6l-4.8,2.3l-2.6,0.3
	l-1.2,4.9l1.9,8.4l0.7,5.3l-1.9,6.1l0.7,10.9l-2.9,0.3l-2.3,4.9l1.9,2.2l-5.1,1.8l-1.7,4.3l-2.2,1.9l-5.6-6l-3.1-9l-2.5-6.5l-2.2-3
	l-3.4-6.2l-2-8l-1.4-4l-5.9-8.8l-3.5-12.5l-2.6-8.2l-0.8-7.8l-1.7-6l-7.7,3.9l-4-0.8l-8.1-7.8l2.4-2.3l-1.9-2.5l-7.1-5.5l3.2-4.3
	h12.1l-1.8-5.5l-3.5-3.2l-1.4-5l-4-2.8l4.9-6.8l6.5,0.5l4.5-6.7l2.2-6.5l3.9-6.5l-1-4.6l3.8-3.7l-5.1-3.1l-2.9-4.4l-3.3-5.6l2-2.8
	l8.5,1.6l5.7-1l3.8-5.4l7.7,7.6l0.8,5.2l3,3.3l0.6,3.3l-4.1-0.9l3.2,7.1l6.2,4L565.6,308L565.6,308z"/>
<path id="IE_00000132783821160329501450000016859917100700199818_" class="st0" d="M94.7,158.2l0.7,4.4l-3.9,5.5l-8.8,3.6l-6.8-0.9
	l4.3-6.4l-2.1-6.2l6.7-4.8l3.7-2.8l0.9,3.2l-1.2,3.3l3-0.1L94.7,158.2L94.7,158.2z"/>
<path id="IR_00000147924606119064189590000013512570969564111252_" class="st0" d="M367,253.2l1.8-0.2l5.3-4.7l1.9-0.5l1.9,1.9
	l-1.2,3.1l3.9,3.4l1.3-0.4l2.5,4.8l5.3,1.3l4.3,3.2l7.7,1.1l8-1.7l0.2-1.5l4.4-1.2l3-3.7l3.6,0.2l2-1.2l3.9,0.6l6.6,3.3l4.3,0.7
	l7.3,5.6l4,0.3l1.7,5.3l-0.6,8l-0.5,4.7l2.5,1l-1.6,3.5l2.7,5.1l1.2,4.1l4.3,1.1l1.1,4.1l-3.9,5.8l3.2,3.4l2.8,3.9l5.7,2.8l1,5.6
	l2.7,1.1l0.9,2.9l-7.5,3.4l-1.1,7.4l-10.6-1.9l-6.2-1.5l-6.3-0.8l-3.3-7.9l-2.8-1.1l-4.1,1.1l-5.1,3.1l-7-2.1l-6.1-5l-5.5-1.8
	l-4.4-6.1l-5.2-8.5l-2.8,1l-3.7-2.1l-1.7,2.5l-3.5-3.4l-0.5-3.4h-1.7l0.2-4.7l-3.5-4.8l-7.1-3.6l-4.6-6.1l0.5-5l2.3-2.2l-0.9-3.7
	l-3.8-2l-4.7-7.6l-3.8-5.1l0.7-2l-2.9-7.3l3.3-1.9l1.2,2.5l3.2,2.9L367,253.2L367,253.2z"/>
<path id="IQ_00000054238172795164798430000000238665878952824219_" class="st0" d="M361.5,263.2l4.7,7.6l3.8,2l0.9,3.7l-2.3,2.2
	l-0.5,5l4.6,6.1l7.1,3.6l3.5,4.8l-0.2,4.7h1.7l0.5,3.4l3.5,3.4l-3.3-0.3l-3.7-0.6l-3.3,6.2l-10.2-0.5l-16.8-12.9l-8.6-4.5l-6.8-1.8
	l-3.1-7.8l11-6.7l1-7.7l-1.2-4.7l2.7-1.6l2.1-4l2.1-1l6.3,0.9l2.1,1.6L361.5,263.2L361.5,263.2z"/>
<path id="IL_00000080202600778620277170000009429658692008520874_" class="st0" d="M317.1,288.2l0.4,2.6l-0.6,1h0.1l-0.7,2l-2.1-0.8
	l-0.7,4.2l1.5,0.7l-1.3,0.9l-0.1,1.7l2.5-0.8l0.4,2.5l-1.8,10.2l-0.7-1.6l-3.9-9.4l1.4-2.1l-0.4-0.4l1.1-3l0.6-4.8l0.6-1.7h0.1h1.8
	l0.4-1.1L317.1,288.2L317.1,288.2z"/>
<path class="st0" d="M206.2,256.4l-1.7,5.1l0.9,1.9l-0.9,3.3l-4.2-2.4l-2.7-0.7l-7.5-3.2l0.5-3.3l6.2,0.6l5.4-0.7L206.2,256.4z"/>
<path class="st0" d="M172.2,237.4l3.3,4.5l-0.4,8.5l-2.4-0.4l-2.1,2.1l-2-1.7l-0.5-7.7l-1.3-3.6l2.9,0.3L172.2,237.4z"/>
<path class="st0" d="M193.9,203.9l-0.4,3.1l1.4,2.7l-4.1-1l-3.9,2.3l0.4,3.1l-0.5,1.8l1.9,3.2l5,3.2l2.9,5.3l6.1,5.1l4-0.1l1.4,1.4
	l-1.4,1.3l4.8,2.3l4,1.9l4.7,3.4l0.6,1.1l-0.8,2.3l-3.1-3l-4.6-1l-1.9,4.1l3.9,2.4l-0.4,3.3l-2.1,0.4l-2.5,5.5l-2.2,0.5l-0.1-2
	l0.9-3.4l1.1-1.4l-2.3-3.7l-1.8-3.2l-2.2-0.8l-1.8-2.7l-3.4-1.2l-2.4-2.6l-3.8-0.4l-4.3-2.8l-4.9-4.2l-3.7-3.6l-1.9-6.3l-2.6-0.7
	l-4.2-2.1l-2.3,0.8l-2.9,3l-2.1,0.4l0.5-2.7l-2.8-0.8l-1.5-4.9l1.7-1.9l-1.5-2.4l0.1-1.8l2.2,1.4l2.5-0.3l2.7-2.2l0.9,1l2.4-0.2
	l1-2.5l3.8,0.8l2.1-1.1l0.3-2.5l3.1,0.9l0.5-1.2l4.9-1.1l1.3,2.1L193.9,203.9z"/>
<path id="JO_00000111881189831605454260000018226434788451009945_" class="st0" d="M336.1,295.3l-0.9,1l-10.4,3.2l6,6.5l-1.6,1
	l-0.7,2.2l-4.1,0.9l-1.1,2.3l-2.1,2l-6.2-1.1l-0.3-0.9l1.8-10.2l-0.4-2.5l0.6-1.9l-0.4-4l0.7-2l6.3,2.6l9.7-6.9L336.1,295.3z"/>
<path class="st0" d="M846.5,282.6l1.6,2.2l-1.3,3.9l-3.1-2.1l-2.1,1.5l0.1,3.7l-4.3-1.8l-1.2-3l1.3-3.9l3.4,0.8l1-2.7L846.5,282.6z"
	/>
<path class="st0" d="M871.1,263.4l0.6,5.1l2.5,3.2l-0.6,4.5l-5.4,3l-9.2,0.4l-4.4,7.4l-4.7-2.5l-2.4-4.8l-8.6,1.4l-5.1,3l-6.2,0.2
	l7.4,4.7l0.8,10.9l-2.5,2.7l-3.6-2.5l-0.9-5.8l-4.1-1.8l-4-4.4l4.3-2l1.1-4.1l3.9-3.3l2-4.4l9.7-1.9l6.3,1.3v-11.4l5.1,3.1l4.5-6.4
	l1.7-2.5l-1-7.8l-5.1-7.2l-0.2-4l4.8-1.2l8.2,8.9l2.8,5.1l-1.3,6.5L871.1,263.4z"/>
<path class="st0" d="M859.2,218.6l4.5,1.3l1.8-2.6l6,7.1l-6.4,1.7l-0.4,6.3l-10.9-4.3l1.6,6.9l-5.7,0.1l-4.7-6.3l-0.6-4.9l5.2-0.3
	l-4.4-8.8l-1.8-4.9l10.5,6.6L859.2,218.6z"/>
<path id="KZ_00000044157326193163423020000010620715531254273679_" class="st0" d="M476.3,160.5l4.4-0.3l9.2-5.8l-0.8,2l8.4,4.7
	l18.3,15.6l1.1-3.2l8.4,3.5l6.2-1.6l3.3,1.1l4.1,3.6l4,1.2l3.3,2.7l6-0.9l4.4,3.8l-1.9,4.2l-3.8,0.6l2.5,6.2l-1.6,2.9l-10.8-2.1
	l1,11.3l-2,1.4l-9.1,2.5l8.8,11l-2.9,1.6l1.7,3.7l-3.5-1l-3.4-2.3l-7.9-0.6l-8.6-0.2l-1.6,0.7l-8.2-2.7l-2.5,1.4l0.5,3.7l-9.2-2.2
	l-3.1,0.9l-0.3,2.8l-2.6,1.2l-5.4,4.4l-0.9,4.6h-2l-2.3-3l-6.7-0.2l-2.5-5.2l-2.6-0.1l-1.5-6.4l-7.6-4.6l-8.6,0.5l-5.7,0.9l-6.6-5.7
	l-4.8-2.4l-9.2-4.5l-1.1-0.5l-12,3.7l6.2,23.4l-2.6,0.3l-4.8-5l-3.9-1.8l-5.6,1.3l-1.8,2.2l-0.6-1.6l0.6-2.6l-1.5-2.2l-6.5-2.2
	l-3.7-5.7l-3.2-1.6l-0.6-2.1l5.1,0.6l-1-4.6l4.1-1l4.7,0.9l-0.7-6.1l-1.9-3.9l-5,0.3l-4.7-1.5l-5.1,2.7l-4.4,1.4l-2.8-1.1l-0.2-3.2
	l-4.3-4.2l-3.6,0.2l-5.3-4.2l1.7-4.8l-1.8-1.2l2.2-6.9l6,3.6l-0.6-4.5l8.1-6.7l7.6-0.2l12,4.3l6.6,2.5l4.4-2.6l7.7-0.1l7.3,3.2
	l0.8-1.9l7,0.3l0.2-2.9l-9.4-4.3l3.5-3l-1.5-1.6l4-1.6l-5.1-4.2l1.4-2.1l17-2.1l1.7-1.5l10.9-2.3l3.1-2.5l9.1,1.3l4.4,6.3l4.3-1.5
	l7.1,2.1L476.3,160.5L476.3,160.5z"/>
<path id="KE_00000181076893110085650640000003076263303663057589_" class="st0" d="M361.5,476.7l-4.9,7.2l0.2,23.4l3.3,5.3l-4,2.6
	l-1.4,2.7l-2.2,0.4l-0.8,4.6l-1.9,2.6l-1.1,4.2l-2.3,2.1l-8.1-6.4l-0.3-3.7l-20.5-13.1l0.4-4.7l-1.4-2.5v-0.3l1.6-2.6l2.8-4.2
	l2.1-4.7l-2.6-7.4l-0.7-3.2l-2.7-4.5l3.4-3.8l3.8-4.2l2.9,1.1l0.1,3.6l1.9,2.1h4l7.2,5.4l1.8,0.1l1.3-0.2l1.3,0.7l3.8,0.6l1.6-2.7
	l5.2-2.7l2.3,2.2L361.5,476.7L361.5,476.7z"/>
<path id="KG_00000151537025675249882580000002431744224878556304_" class="st0" d="M538.5,230.2l-0.2,1.4l-6.9,3.4l-1,2.6l-6.4,0.7
	l-0.6,4.1l-5.8-0.9l-3.2,1.3l-4.1,3l1.2,1.5l-1.1,1.4l-9.6,1l-7.1-2.1l-5.5,0.5l-0.6-3.6l6,1l1.4-1.9l4.1,0.6l5.3-4.6l-7.2-3.4
	l-3.2,1.6l-4.6-2.4l3-4.1l-1.7-0.6l0.3-2.8l3.1-0.9l9.2,2.2l-0.5-3.7l2.5-1.4l8.2,2.7l1.6-0.7l8.6,0.2l7.9,0.6l3.4,2.3L538.5,230.2
	L538.5,230.2z"/>
<path id="KH_00000016770688417560640750000015244312795095322006_" class="st0" d="M727.8,410.6l1.8,4.3l0.1,7.7l-9,5l2.8,3.8
	l-5.9,0.5l-4.6,2.6l-4.8-0.9l-2.6-3.4l-3.5-6.6l-2.1-7.8l3.1-5.3l7.1-1.2l5.3,0.9l5,2.5l2-4.4L727.8,410.6L727.8,410.6z"/>
<path id="KR_00000099647341016969355740000015734112579211389365_" class="st0" d="M790.9,259.5v-0.6l2.5,0.2l0.6-2.8l3.6-0.4l2-0.4
	V254l8.3,7.5l3.3,4.2l3.4,7.4l-0.5,3.5l-4.3,1.2l-3.1,2.7l-4.6,0.5l-2.1-3.5l-1.1-4.8l-5.3-6.6l3.4-1.1L790.9,259.5L790.9,259.5z"/>
<path id="KW_00000081642892045035530900000007448879630279915691_" class="st0" d="M385.5,309.4l1.5,2.8l-0.3,1.5l2.4,4.8l-3.9,0.2
	l-1.7-3.1l-5-0.6l3.3-6.2L385.5,309.4L385.5,309.4z"/>
<path id="LA_00000090985734807268113930000008831142854665759916_" class="st0" d="M727.8,410.6l-5.3-2.3l-2,4.4l-5-2.5l1.5-2.9
	l-0.4-5.4l-5.3-5.6l-1.3-6.4l-5-5.2l-4.3-0.4l-0.8,2.2l-3.2,0.2l-1.9-1.1l-5.3,3.8l-1-5.8l0.4-6.7l-3.8-0.3l-0.9-3.9l-2.7-2l0.8-2.3
	l4.1-4.2l0.8,1.5l3,0.2l-2-7.4l2.7-0.9l4,5.1l3.5,5.8h6.8l3,5.6l-3.3,1.7l-1.2,2.3l7.3,3.9l5.7,7.6l4.4,5.6l4.9,4.5l2,4.5
	L727.8,410.6L727.8,410.6z"/>
<path id="LB_00000168076853037161032360000017568002253365215880_" class="st0" d="M317.1,288.2l-1.4,0.1l-0.4,1.1h-1.8l1.3-5.3
	l2.2-4.5v-0.2l2.5,0.3l1.2,2.5l-2.7,2.5L317.1,288.2L317.1,288.2z"/>
<path id="LR_00000130637481261833303220000016515074279908525990_" class="st0" d="M76.6,452.5l-0.2,1.8l0.5,3.1l-1.2,2.9l1.6,1.8
	l1.8,0.4l2.4,2.7l0.2,2.5l-0.6,0.8l-0.4,5.3l-1.5,0.1l-5.8-3.1l-5.2-4.9l-4.8-3.5l-3.8-4.1l1.4-2.1l0.3-1.9l2.6-3.4l2.6-3l1.3-0.2
	l1.4-0.7l2.4,3.9l-0.4,2.6l1.1,1.4h1.6l1.1-2.6L76.6,452.5L76.6,452.5z"/>
<path id="LY_00000062907451017724205390000009366952877270653841_" class="st0" d="M260.6,299.1l-1.7,3.1l1,2.8l-1.1,3.9l2,5.2
	l1.3,22.8l1,23.7l0.5,12.8h-6.4v2.7l-22.6-12.3l-22.5-12.3l-5.5,3.5l-3.8,2.4l-3.2-3.5l-8.8-2.8l-2.5-4l-4.5-3l-2.5,1.2l-2.1-3.6
	L179,339l-3.4-4.7l2.2-2.7l-0.6-4l0.6-3.5l-0.4-3l0.8-5.2l-0.4-3l-1.9-5.7l2.6-1.4l0.4-2.8l-0.6-2.6l3.6-2.5l1.6-2.1l2.6-1.8
	l0.1-4.9l6.4,2.2l2.3-0.6l4.5,1.1l7.3,2.9l2.8,5.7l4.9,1.2l7.8,2.7l6,3.2l2.5-1.7l2.5-2.9l-1.6-4.9l1.5-3.2l3.7-3l3.7-0.8l7.4,1.3
	l2,2.8l2,0.1l1.8,1.1l5.4,0.7L260.6,299.1L260.6,299.1z"/>
<path id="LK_00000119100812099890934530000009100657701440172203_" class="st0" d="M583.9,462l-4.8,1.5l-2.9-5.1l-1.4-9.2l2-10.4
	l4.1,3.5l2.8,4.5l3.1,6.7l-0.6,6.7L583.9,462L583.9,462z"/>
<path id="LS_00000089545213204328437020000004398370069464190643_" class="st0" d="M277.1,697.9l-2,0.7l-3.7-5l3.2-4l3.1-2.5
	l2.7-1.4l2.2,2l1.7,2l-1.9,3.1l-1.1,2.1l-3.1,1L277.1,697.9L277.1,697.9z"/>
<path id="LT_00000034772158856556132620000001901241759817208198_" class="st0" d="M249.1,147.6l1,2.7l-3.6,2l-0.5,3.4l-4.8,2.3
	h-4.7l-1.4-1.9l-2.5-0.7l-0.6-1.5l0.2-1.7l-2.2-0.9l-5.1-1.1l-1.7-5.1l5.1-1.8l7.9,0.4l4.5-0.6l0.9,1.2l2.5,0.4L249.1,147.6
	L249.1,147.6z"/>
<path id="LU_00000074412190633895244290000006752090136537288067_" class="st0" d="M154.9,185.4l-1.4,0.1l-1.1-0.5l0.4-3.5l1.3-0.2
	l1,1.4L154.9,185.4z"/>
<path id="LV_00000129205929637633561710000001641639534125982852_" class="st0" d="M250.8,136.5l2.5,1.3l1,2.9l2.1,3.6l-4.6,2.3
	l-2.7,1l-5-2.9l-2.5-0.4l-0.9-1.2l-4.5,0.6l-7.9-0.4l-5.1,1.8l-0.5-4.5l1.7-3.8l4.1-2l4.4,4.5l3.7-0.2l0.1-4.6l3.8-1l2.1,0.7
	l4.4,2.2L250.8,136.5L250.8,136.5z"/>
<path id="MA_00000154392802234484657670000000079532117502396303_" class="st0" d="M112.8,276l1.9,4.1l0.3,3.9l1.9,6.8l1.4,1.4
	l-1,2.5l-7.1,1.1l-2.5,2.3l-3.1,0.6l-0.3,4.8l-6.4,2.5l-2.1,3.2l-4.5,1.7l-5.4,1l-8.9,4.8l-0.1,7.6H76l0.1,3.4l-3.4,0.2l-1.8,1.5
	h-2.5l-2-0.9l-4.6,0.7l-1.9,5l-1.8,0.5l-2.7,8.1l-7.9,6.9l-2,8.9l-2.4,2.9l-0.7,2.3l-12.5,0.5h-0.1l0.3-3l2.2-1.7l1.9-3.4l-0.3-2.2
	l2-4.5l3.2-4.1l1.9-1l1.6-3.7l0.2-3.5l2.1-3.9l3.8-2.4l3.6-6.5l0.1-0.1l2.9-2.5l5.1-0.7l4.4-4.4l2.8-1.7l4.7-5.4l-1.2-7.9l2.2-5.6
	l0.9-3.4l3.6-4.3l5.4-2.9l4.1-2.7l3.7-6.6l1.8-4l3.9,0.1l3.1,2.7l5.1-0.4l5.5,1.4L112.8,276L112.8,276z"/>
<path id="MD_00000093147760956464689470000007348556078497638562_" class="st0" d="M267.4,210.3l-1.3-2.9l0.2-2.7l-0.6-2.7l-3.4-3.8
	l-2-2.6l-1.8-1.8l-1.6-0.7l1.1-0.9l3.2-0.6l4,1.9l2,0.3l2.6,1.7l-0.1,2.1l2,1l1.1,2.6l2,1.6l-0.2,1l1,0.6l-1.3,0.5l-3-0.2l-0.6-0.9
	l-1,0.5l0.6,1.1l-1.1,2.1l-0.6,2.1L267.4,210.3L267.4,210.3z"/>
<path id="MG_00000105411961439593697960000005559417308859004091_" class="st0" d="M405.9,588.9l0.4,7.7l1.3,3l-0.7,3.1l-1.2,1.8
	l-1.6-3.7l-1.2,1.9l0.8,4.7l-0.7,2.8l-1.7,1.4l-0.7,5.5l-2.7,7.5l-3.4,8.8l-4.3,12.2l-2.9,8.9l-3.1,7.5l-4.6,1.5l-5.1,2.7l-3-1.6
	l-4.2-2.3l-1.2-3.4v-5.7l-1.5-5.1l-0.2-4.7l1.3-4.6l2.6-1.1l0.2-2.1l2.9-4.9l0.8-4.1l-1.1-3l-0.8-4.1l-0.1-5.9l2.2-3.6l1-4.1
	l2.8-0.2l3.2-1.3l2.2-1.2l2.4-0.1l3.4-3.6l4.9-4l1.8-3.2l-0.6-2.8l2.4,0.8l3.3-4.4l0.3-3.9l2-2.9l1.8,2.8l1.4,2.7L405.9,588.9
	L405.9,588.9z"/>
<path id="MK_00000064351420806920223800000018214005892184755385_" class="st0" d="M243.5,236.6l-1,0.2l-0.8,1.1l-2.8-0.1l-1.8,1.4
	l-3.4,0.5l-2.3-1.5l-1-2.7l0.5-2.2l0.7,0.1l0.1-1.3l2.9-1l1.2-0.3l1.7-0.3l2.4-0.2l2.8,2.1L243.5,236.6L243.5,236.6z"/>
<path id="ML_00000155114375492094377220000011800433036781873801_" class="st0" d="M148.2,378.8l0.1,14.8l-3.1,4.3l-0.4,4l-5,1
	l-7.7,0.5l-2,2.3l-3.6,0.3h-3.6l-1.4-1.2l-3.1,0.9l-5.3,2.7l-1.1,2l-4.3,2.8l-0.8,1.7l-2.4,1.3l-2.7-0.9l-1.5,1.6l-0.9,4.4l-4.5,5.3
	l0.2,2.2l-1.6,2.7l0.4,3.7l-2.4,1l-1.3,0.8l-0.9-2.7l-1.6,0.7l-1-0.1l-1,1.8h-4.4l-1.5-1l-0.8,0.6l-1.7-1.9l0.3-1.9l-0.7-0.7
	l-1.2,0.6l0.3-2.1l1.1-1.6l-2.3-2.7l-0.6-1.8l-1.3-1.4l-1.1-0.2l-1.3,0.9l-1.9,0.9l-1.5,1.4l-2.4-0.5l-1.6-1.7l-0.9-0.2l-1.5,0.9
	h-0.9l-0.3-2.4l0.3-2l-0.5-2.4l-2-1.8l-1.1-3.7l-0.2-4l1.9-1.2l1-3.8l1.8-0.1l3.9,1.8l3.2-1.3l2.1,0.4l0.9-1.4l22.5-0.1l1.3-4.5
	l-1-0.8l-2.5-27.7l-2.4-27.7l8.5-0.1l18.6,14l18.7,14l1.3,3l3.5,1.8l2.6,1.1l0.1,4.1L148.2,378.8L148.2,378.8z"/>
<path id="MM_00000021838510184801139200000002523651984195227264_" class="st0" d="M686.4,364.2l-4.1,4.2l-0.8,2.3l-3,1.5l-2.8,2.8
	l-3.9,0.3l-1.5,6.9l-2.2,1.2l3.5,5.6l4.1,4.7l2.9,4.3l-1.4,5.5l-1.8,1.2l1.8,3.2l4.3,5.1l1,3.6l0.2,3l2.7,5.9l-2.6,6l-2.2,6.6
	l-0.9-4.8l1.3-4.9l-2.2-3.8l-0.2-7l-2.6-3.4l-2.7-7.6l-2-8.1l-3.1-5.4l-3.2,3.3l-5.8,4.5l-3.3-0.5l-3.6-1.5l0.9-8l-2-6l-5.3-7.4
	l0.3-2.3l-3.4-0.9l-4.6-5.2l-1.1-5.2l2.1,1l-0.6-4.6l2.5-1.5l-1-2.7l1-2.2l-0.9-6.7l4.6,1.5l1.6-5.3l-0.3-3.1l2-5.4l-0.9-3.7
	l6.2-4.4l4.2,1.1l-1.4-3.9l1.7-1.2l-1-2.4l3.1-0.5l2.7,3.8l2.7,1.5l1.3,4.9l0.9,5.3l-4.2,5.4l0.7,7.6l5.6-1.1l2.4,5.9l3.7,1.3
	l-0.8,5.3l4.5,2.4l2.6,1.2l3.8-1.9L686.4,364.2L686.4,364.2z"/>
<path id="ME_00000036234808365829934070000016582632225823701140_" class="st0" d="M228.6,227.2l-0.8,1.4l-1.4,0.6L226,228l-1.9,3.1
	l0.5,2.1l-1.1-0.5l-1.7-2.1l-2.3-1.3l0.5-1l0.4-3.5l1.6-1.5l0.9-0.6l1.4,1.1l0.9,0.9l1.7,0.7l2.1,1.3L228.6,227.2L228.6,227.2z"/>
<path id="MN_00000080902156979184970780000015511632071403536000_" class="st0" d="M634.2,181.5l4-1.2l5.7-0.8l5.4,0.9l6.6,2.9
	l4.9,3.2h4.6l6.8,1l3.6-1.6l5.9-1l4.4-4.4l3.4,0.7l3.9,2.1l5.6-0.6l0.6,4.7l0.3,6.3l2.8,2.5l2.3-0.8l5.5,1l2.5-2.3l5.2,2l7.2,4.4
	l0.8,2.2l-4.4-0.7l-6.8,0.8l-2.5,1.8l-1.3,4.2l-6.4,2.4l-3.2,3.4l-5.9-1.3l-3.2-0.6l-0.5,4.1l2.9,2.4l1.9,2.1l-2.4,2.2l-2,3.4
	l-4.9,2.2l-7.6,0.2l-7.2,2.2l-4.4,3.4L665,233h-6.2l-9.4-3.9l-5.6-0.9l-6.4,0.9l-11.3-1.5l-5.6,0.2l-4.7-3.8l-5-5.8l-3.4-0.7l-8-4
	l-7.2-0.8l-6.5-1.1l-3-2.8l-1.4-7.3l-5.8-5.1l-8.2-2.3l-5.7-3.3l-3.3-4.4l4.7-1.1l6.7-5.3l5.9-2.9l5.3,1.9l5.2,0.1l4.8,2.9l5,0.2
	l8,1.6l2.4-4.4l-4-3.6l1.3-6.4l7,2.5l4.8,0.8l6.7,1.6l3.6,4.6L634.2,181.5L634.2,181.5z"/>
<path id="MZ_00000127042732846857854330000002700915493277714307_" class="st0" d="M304.7,673.5h-4.1l-0.3-2.9l-0.6-2.9l-0.4-2.3
	l1.4-7.1l-1.1-4.6l-2.2-9l6.2-7.3l1.7-4.6l0.8-0.6l0.9-3.8l-0.8-1.9l0.4-4.8l1.3-4.4l0.4-8.2l-2.8-2l-2.7-0.5l-1.1-1.6l-2.6-1.3
	l-4.7,0.1l-0.2-2.4l-0.4-4.6l17.2-5.3l3.2,3.1l1.5-0.6l2.2,1.6l0.2,2.6l-1.3,3l0.2,4.5l3.5,4l1.9-4.5l2.5-1.3l-0.1-8.3l-2.2-4.6
	l-1.9-2.1h-0.4l-0.6-7.3l1.5-6.1l2.2-0.2l6.7,1.8l1.5-0.8l3.9-0.2l2.1-1.9l3.4,0.1l6.2-2.5l4.6-3.7l0.9,2.8l-0.5,6.4l0.5,5.7
	l-0.2,10l0.8,3.1l-1.9,4.6l-2.4,4.5l-3.7,4l-5.3,2.4l-6.5,3.1l-6.6,6.9l-2.2,1.2l-4.2,4.6l-2.3,1.4l-0.8,4.6l2.4,4.9l0.9,3.7v2
	l1-0.4l-0.5,6.3l-1.1,3l1.2,1.1l-1,2.7l-2.4,2.3l-4.7,2.1l-6.9,3.5l-2.5,2.4l0.3,2.7l1.3,0.4L304.7,673.5L304.7,673.5z"/>
<path id="MR_00000116925552930172165450000009308246030855580603_" class="st0" d="M97.2,341.5l-8.5,0.1l2.4,27.7l2.5,27.7l1,0.8
	l-1.3,4.5l-22.5,0.1l-0.9,1.4l-2.1-0.4l-3.2,1.3l-3.9-1.8l-1.8,0.1l-1,3.8L56,408l-3.6-4.4l-3.4-4.8l-3.6-1.7l-2.7-1.8h-3.1
	l-2.8,1.4l-2.7-0.5l-2,2l-0.4-3.4l1.6-3.2l0.8-6l-0.4-6.4l-0.6-3.2l0.6-3.2l-1.4-3l-2.8-2.8l1.3-2.1h21.7l-0.9-9.3l1.5-3.3l5.2-0.5
	l0.2-16.5l18,0.4l0.2-9.8L97.2,341.5L97.2,341.5z"/>
<path id="MW_00000078724849013968042450000012740233605972018837_" class="st0" d="M320.3,588.9h0.4l1.9,2.1l2.2,4.6l0.1,8.3
	l-2.5,1.3l-1.9,4.5l-3.5-4l-0.2-4.5l1.3-3l-0.2-2.6l-2.2-1.6l-1.5,0.6l-3.2-3.1l-2.9-1.6l2-6l1.8-2.2l-0.9-5.4l1.3-5.2l1-1.7
	L312,564l-2.6-2.9l5.5,1.2l1,1.7l-0.1,0.8l1.8,4.1l0.2,7.7l-1.8,3.6l1.6,4.7l-0.2,2.8l1.2,1.9l-0.1,2.4l0.9,1.4l1-1.6l1.9,2.5
	l0.2-0.8l-1-3.4l-1.1-0.3L320.3,588.9L320.3,588.9z"/>
<path class="st0" d="M702.3,461.9l1.4,0.6l3.5,3.9l2.5,4.3l0.6,4.3l-0.5,2.9l0.6,2.2l0.5,3.8l2.1,1.8l2.3,5.7v2.1l-4,0.5l-5.5-4.8
	l-6.8-5.1l-0.8-3.3l-3.4-4.3l-1-5.3l-2.2-3.5l0.4-4.7l-1.4-2.7l0.9-1.1l4.8,2.8l0.6,3.3l3.7-0.8L702.3,461.9z"/>
<path class="st0" d="M792.1,475.3l-5-1.1h-6.5l-1.7,7.3l-2.1,2.2l-2.6,8.9l-4.6,1.4l-5.4-1.8l-2.7,0.6l-3.3,3.2l-3.6-0.4l-3.7,1.3
	l-3.9-3.7l-1-4.3l4.2,2.2l4.3-1.2l1-5.4l2.4-1.2l6.8-1.4l3.8-5.1l2.6-4l2.8,3.3l1.1-2.2l2.7,0.2l0.1-4.1l0.1-3.2l4.1-4.4l2.6-5
	l2.3-0.1l3.1,3.3l0.4,2.8l3.8,1.8l4.8,1.9l-0.2,2.5l-3.8,0.3l1.1,3.2L792.1,475.3z"/>
<path id="NA_00000117665493579608173810000011201789223532243589_" class="st0" d="M254.2,614.3l4.6-1.4l3.6,0.3l2.2,1.5v0.5
	l-3.2,1.5h-1.7l-3.7,2.5l-2-2.7l-8.7,2.3l-4.2,0.2l-0.8,22.9l-5.5,0.2l-0.6,18.7l-1.1,23.7l-5,3.3l-2.9,0.5l-3.4-1.2l-2.5-0.5
	l-0.8-2.7l-2-1.8l-2.8,3.2l-3.9-4.9l-2-4.6l-1-6.3l-1.2-4.6L204,655l0.1-7.7l-0.6-3.5l-2.1-2.7l-2.8-5.3l-2.8-7.7l-1.1-4l-4.4-6.3
	l-0.3-4.9l2.7-1.2l3.4-1.1l3.6,0.2l3.3,2.9l0.8-0.5l22.7-0.2l3.8,3l13.5,0.9L254.2,614.3L254.2,614.3z"/>
<path id="NE_00000036217929512635122470000003933497231648736925_" class="st0" d="M206.6,355l1.6,10l2.2,1.7l0.1,2l2.4,2.2
	l-1.2,2.8l-1.8,13l-0.2,8.4l-7,6l-2.3,8.5l2.4,2.4v4.1l3.7,0.1l-0.6,3.1l-1.5,0.3l-0.2,2.1l-1,0.1l-3.9-7l-1.4-0.3l-4.3,3.6
	l-4.4-1.9l-3-0.3l-1.6,0.9l-3.3-0.2l-3.3,2.7l-2.9,0.2l-6.8-3.3l-2.7,1.5l-2.9-0.1l-2.1-2.4l-5.6-2.4l-6.1,0.8l-1.4,1.3l-0.8,3.7
	l-1.6,2.6l-0.4,5.8l-4.3-3.7h-2l-1.9,1.9l0.1-4.4l-6.5-1.5l-0.2-3.1l-3.1-4.2l-0.8-2.9l0.5-3.1l3.6-0.3l2-2.3l7.7-0.5l5-1l0.4-4
	l3.1-4.3l-0.1-14.8l7.8-2.8l16-12.6l18.8-12.3l8.8,2.8l3.2,3.5L206.6,355L206.6,355z"/>
<path id="NG_00000067915982046987939630000017833209759185539217_" class="st0" d="M204.2,421.7l2.3,2.5l-0.6,1.2l-0.3,2.1l-4.7,5
	l-1.4,4.1l-0.8,3.3l-1.2,1.5l-1.1,4.5l-3,2.6l-0.8,3.2l-1.3,2.6l-0.5,2.7l-3.9,2.2l-3.2-2.7l-2.1,0.1l-3.4,3.8h-1.6l-2.7,6.2
	l-1.4,4.6l-5.9,2.3l-2.1-0.3l-2.2,1.4l-4.5-0.1l-3.1-4.1l-1.9-4.6l-4-4.2h-4.2h-5l0.3-10.3l-0.2-4.1l1.1-4l1.7-2l2.8-4l-0.6-1.7
	l1.1-2.6l-1.3-3.8l0.2-2.1l0.4-5.8l1.6-2.6l0.8-3.7l1.4-1.3l6.1-0.8l5.6,2.4l2.1,2.4l2.9,0.1l2.7-1.5l6.8,3.3l2.9-0.2l3.3-2.7
	l3.3,0.2l1.6-0.9l3,0.3l4.4,1.9l4.3-3.6l1.4,0.3l3.9,7L204.2,421.7L204.2,421.7z"/>
<path class="st0" d="M251.7,67.5l-6.4,2.1l-3.2,0.5l0.8-3.8l-5.8-2.1l-5.9,1.8l-1.1,4l-3.4,2.4l-4.7-1.3l-5.3,0.2l-5.1-2.8l-2.2,1.4
	l-2.6,0.2l0.1,3.6l-8-0.9l-0.6,3.1h-4l-2.3,3.9l-3.4,6.1l-5.7,7.9l1.8,2l-1.3,2.2l-4.3-0.1l-2.4,5.4l1,7.7l3.1,2.9l-0.8,6.9l-3.4,4
	l-1.8,3.4l-3.3-3.6l-8.6,6.8l-6.1,1.4l-6.5-3l-1.8-6.3l-2-13.5l4-3.7l11.3-4.9l8.1-5.9l7.2-7.8L186,77l6.4-4.1l10.3-6.8l8.5-2.4
	l6.7,0.3l5.2-4.4l7.4,0.2l7-1l13.7,3.9l-4.9,1.4L251.7,67.5z"/>
<path class="st0" d="M214.6,25.2l-7.6,1.9l-6.8-1.1l2.2-1.2l-2.6-1.5l7.3-0.9l1.9,1.7L214.6,25.2z"/>
<path class="st0" d="M189,16.7l12.6,3.4l-8.6,1.8l-1.2,3.4l-3,0.9l-0.9,4l-4.4,0.2l-8.5-2.9l3-1.7l-5.7-1.4l-7.7-3.9l-3.2-3.5
	l9.3-1.6l2.3,1.5h5l1-1.5l5.2-0.2L189,16.7z"/>
<path class="st0" d="M213.4,13.7l7.4,1.5l-4.4,2.4l-10.1,0.5l-10.7-0.8l-1-1.2h-5.1l-4.3-2l10.5-1.2l5.4,1l3.1-1.3L213.4,13.7z"/>
<path id="NP_00000024681406915254412910000015998824603091633334_" class="st0" d="M607,322.9l0.2,2.7l1.5,4.1l-0.1,2.5l-4.6,0.1
	l-6.9-1.5l-4.3-0.6L589,327l-7.7-0.9l-7.8-3.6l-5.8-3.1l-5.8-2.4l0.9-6l2.8-3l1.9-1.5l4.8,2l6.4,4.2l3.3,0.9l2.5,3.1l4.5,1.2l5,2.9
	l6.5,1.4L607,322.9L607,322.9z"/>
<path class="st0" d="M421.8,394.9l-2.2-4.5l-5.2-10.6l16.3-6.4l2.6-12.8l-3-4.6v-2.6l1.3-2.6l-0.2-2.6l2.4-1.3l-1.1-0.9v-4.2h2.8
	l3,4.4l3.3,2.3l4.1,0.9l3.4,1.1l2.9,3.7l1.7,2.1l2,0.9l0.2,1.4l-1.7,3.8l-0.7,1.8l-2.2,2.1l-1.7,4.4l-2.5-0.4l-1,1.6l-0.7,3.2
	l1.1,4.3l-0.5,0.8h-2.5l-3.3,2.4l-0.3,3.1l-1.2,1.4l-3.5-0.1l-2,1.6l0.2,2.6L431,393l-3.1-0.6l-3.6,2.2L421.8,394.9z"/>
<path class="st0" d="M434.2,336.7l-1.3-2.2l1.4-2.1l0.7,0.5l-0.2,2.7L434.2,336.7z"/>
<path id="PK_00000097458212915504553160000004345424572552122815_" class="st1" d="M539.6,273.9l-3.8,5.4l-5.7,1l-8.5-1.6l-2,2.8
	l3.3,5.6l2.9,4.4l5.1,3.1l-3.8,3.7l1,4.6l-3.9,6.5l-2.2,6.5l-4.5,6.7l-6.5-0.5l-4.9,6.8l4,2.8l1.4,5l3.5,3.2l1.8,5.5h-12.1l-3.2,4.3
	l-4.2-1.6l-2.2-4.6l-4.9-4.9l-10,1.2l-9,0.1l-7.6,0.9l1.1-7.4l7.5-3.4l-0.9-2.9l-2.7-1.1l-1-5.6l-5.7-2.8l-2.8-3.9l-3.2-3.4l9.6,3.3
	l5.3-1l3.4,0.8l0.9-1.4l3.9,0.6l6.6-2.7l-0.8-5.4l2.3-3.7h4.1l0.2-1.7l4-0.9l2.1,0.6l1.8-1.8l-1.1-3.9l1.4-3.8l3.1-1.7l-3.1-4.2
	l5.2,0.2l0.9-2.3l-0.8-2.5l2-2.7l-1.4-3.2l-1.9-2.7l2.4-2.8l5.3-1.3l5.9-0.8l2.4-1.1l2.9-0.8l4.7,3l2.9,5L539.6,273.9L539.6,273.9z"
	/>
<path class="st0" d="M838.5,447.8l0.9,4.3l0.6,3.6l-1.6,5.8l-2.5-6.5l-2.4,3.3l2.1,4.7l-1.4,3l-6.9-3.7l-1.9-4.7l1.5-3l-3.8-3.1
	l-1.6,2.7l-2.6-0.3l-4,3.6l-1-1.9l1.8-5.4l3.4-1.8l2.9-2.4l2.2,2.9l4.2-1.7l0.7-2.9l4-0.2l-0.8-4.9l4.9,3l0.7,3.2L838.5,447.8z"/>
<path class="st0" d="M823.9,435.8l-1.8,2.1l-1.4,4.1l-1.6,1.9l-3.9-4.4l1-1.8l1.3-1.8l0.2-3.9l3.1-0.4l-0.5,4.3l3.6-6.2L823.9,435.8
	L823.9,435.8z"/>
<path class="st0" d="M793.6,442l-7.1,6.1l2.4-4.5l3.8-4l3-4.4l2.3-6.4l1.6,5.3l-3.5,3.5L793.6,442z"/>
<path class="st0" d="M811.1,425.5l3.6,2h3.5l0.2,2.6l-2.3,2.8l-3.4,1.9l-0.5-3l0.1-3.3L811.1,425.5z"/>
<path class="st0" d="M831.2,423.7l2.4,7.2l-4.5-1.7l0.3,2.2l1.8,3.9l-2.6,1.5l-0.6-4.6l-1.8-0.3L825,428l3.3,0.5l-0.3-2.4l-4-4.9
	l5.4,0.1L831.2,423.7z"/>
<path class="st0" d="M808.2,417.9l-0.9,5.6l-2.7-3.2l-3.5-4.9l4.8,0.2L808.2,417.9z"/>
<path class="st0" d="M801.7,383l3.8,1.9l1.4-1.7l0.8,1.6l-0.4,2.7l2.6,4.6l-0.6,5.3l-2.9,2.1l-0.1,5.2l2,5.1l3,0.7l2.4-0.7l7.5,3.5
	l-0.1,3.5l2.1,1.6l-0.3,2.9l-4.7-3.1l-2.5-3.4l-1.2,2.4l-4-3.9l-5,1l-3-1.4l-0.1-2.7l1.6-1.6l-1.9-1.5l-0.4,2.3l-3.3-3.7l-1.3-2.8
	l-1.1-6.1l2.6,2.1l-1.1-10.1l0.8-5.8H801.7z"/>
<path id="PL_00000162318898331312417800000004045382002709779621_" class="st0" d="M217.9,154.8l5.9,0.7l8.8-0.1l2.5,0.7l1.4,1.9
	l0.6,2.7l1.7,2.3l0.4,2.4l-2.8,1.3l1.9,2.8l0.5,2.8l3.2,5.4l-0.3,1.7l-2.3,0.7l-3.8,5.2l1.6,2.8l-1.1-0.4l-5-2.4l-3.5,0.9l-2.4-0.6
	l-2.8,1.3l-2.7-2.2l-1.9,0.9l-0.3-0.4l-2.6-3.1l-3.7-0.3l-0.7-2l-3.4-0.7l-0.6,1.6l-2.8-1.3l0.2-1.7l-3.7-0.5l-2.5-2l-2.4-3.9
	l0.2-2.2l-1.5-3.3l-1.9-2.1l1.2-1.7l-1.4-3.1l3.1-1.8l7.1-2.8l5.8-2l4.8,1l0.6,1.5L217.9,154.8L217.9,154.8z"/>
<path id="KP_00000128446620147270561390000015332311126060118672_" class="st0" d="M798.3,229.9l1.4,1.1l-2.2-0.4l-1,2.2l-0.3,2.1
	l2.8,4.6l-1.9,1.4l-0.3,1.1l-0.9,1.9L793,245l-1.4,1.7l1.3,2.7l-0.3,0.7l2.6,1.1l4.4,2.8v1.5l-2,0.4l-3.6,0.4l-0.6,2.8l-2.5-0.2v0.6
	l-3.2-1.2l-0.1,1.2l-1.3,0.5l-0.7-1.2l-1.7-0.6l-1.9-1l0.1-2.8l0.9-0.8l-1-1.1l-0.4-3.5l-0.9-1l-3.4-0.7l-3.4-1.7l2.1-4.1l3.9-3.4
	l1.1-4.6l3.6,2l4.6,0.3l-2.8-3.4l6.4-2.7v-3.6L798.3,229.9L798.3,229.9z"/>
<path id="PS_00000161613764790562585560000007665521745058221981_" class="st0" d="M316.3,293.8l0.4,4l-0.6,1.9l-2.5,0.8l0.1-1.7
	l1.3-0.9l-1.5-0.7l0.7-4.2L316.3,293.8L316.3,293.8z"/>
<path id="QA_00000107562429981916182350000003809272687790597034_" class="st0" d="M408.1,343.7l-1.5,0.5l-1.8-1.3l-0.8-4.7l1.1-3.3
	l1.5-0.7l1.8,2l0.5,3.7L408.1,343.7L408.1,343.7z"/>
<path id="RO_00000152225658118796886010000013858985722027860897_" class="st0" d="M256.9,193.1l1.6,0.7l1.8,1.8l2,2.6l3.4,3.8
	l0.6,2.7l-0.2,2.7l1.3,2.9l2.4,1.2l2.3-1.1l2.4,1.1l0.4,1.7l-2.3,1.3l-1.6-0.6l-0.4,7.7l-3.1-0.7l-4-2.3l-5.9,1.5l-2.3,1.6l-7.6-0.4
	l-4-0.9l-1.9,0.4l-1.8-2.6l-1-1.1l1-1.1l-1.3-0.7l-1.5,1.4l-3.1-1.9l-0.7-2.6l-3.2-1.4l-0.8-2.1l-3-2.4l3.9-1.2l2.6-4.3l1.9-4.2
	l2.9-1.3l2-1.4l3.2,0.7h3.2l2.5,1.6l1.6-1l3.6-0.6l1-1.5L256.9,193.1L256.9,193.1z"/>
<path id="RW_00000163030608153664066060000012818291955897235075_" class="st0" d="M296.8,509.1l2.2,3.6l-0.3,3.8l-1.6,0.8l-3.1-0.4
	l-1.7,3.7l-3.5-0.5l0.6-3.6l0.8-0.5l0.2-3.8l1.6-1.8l1.4,0.7L296.8,509.1L296.8,509.1z"/>
<path id="EH_00000150783960724442439770000003739624093206153376_" class="st0" d="M76.9,324.3l-0.1,0.4l-0.1,1.2l-0.2,9.8l-18-0.4
	l-0.2,16.5l-5.2,0.5l-1.5,3.3l0.9,9.3H30.8l-1.3,2.1l0.3-2.7h0.1l12.5-0.5l0.7-2.3l2.4-2.9l2-8.9l7.9-6.9l2.7-8.1l1.8-0.5l1.9-5
	l4.6-0.7l2,0.9h2.5l1.8-1.5l3.4-0.2l-0.1-3.4L76.9,324.3L76.9,324.3z"/>
<path id="SA_00000150069572739112156160000009954408718530153150_" class="st1" d="M378.5,315l5,0.6l1.7,3.1l3.9-0.2l2.7,5.6
	l2.9,1.4l1.2,2.3l4,2.7l0.7,2.6l-0.4,2.2l0.9,2.1l1.8,1.8l0.9,2.1l1,1.6l1.8,1.3l1.5-0.5l1.3,2.5l0.3,1.4l2.7,6.6l16.9,3.2l1-1.4
	l3,4.6l-2.6,12.8l-16.3,6.4l-15.9,2.5l-5,2.9l-3.5,6.7l-2.6,1.1l-1.5-2.1l-2.1,0.3l-5.5-0.7l-1.1-0.6l-6.4,0.1l-1.5,0.6l-2.4-1.6
	l-1.3,3.1l0.8,2.7l-2.4,2.1l-0.9-2.8l-1.8-1.9l-0.5-2.6l-3.1-2.3l-3.3-5.4l-1.9-5.2l-4.1-4.4l-2.5-1.1l-4.1-6.1l-0.9-4.4v-3.8
	l-3.6-7.2l-2.8-2.5l-3-1.3l-2.1-3.7l0.2-1.4l-1.8-3.4l-1.7-1.4l-2.5-4.8l-3.8-5.1l-3.1-4.4H314l0.5-3.5l0.1-2.3l0.4-2.6l6.2,1.1
	l2.1-2l1.1-2.3l4.1-0.9l0.7-2.2l1.6-1l-6-6.5l10.4-3.2l0.9-1l6.8,1.8l8.6,4.5l16.8,12.9L378.5,315L378.5,315z"/>
<path id="SD_00000121241103748486023610000015439310445444971656_" class="st0" d="M329,409.2l-0.7,5.5l-2,6.4l-3.3,3.1l-2.3,5
	l-0.5,2.6l-2.6,1.8l-1.5,6.7v0.8l-0.8-0.2l0.1-3.2l-0.8-2.2l-2.9-2.5l-0.9-4.6l0.6-4.8l-2.6-0.4l-0.4,1.4L305,425l1.5,1.8l0.5,3.9
	l-3,3.5l-2.7,4.6l-2.9,0.7l-4.8-3.7l-2.1,1.3l-0.5,1.8l-2.9,1.3l-0.2,1.3h-5.6l-0.8-1.3l-4.1-0.3l-2,1.1l-1.6-0.5l-2.9-3.8l-1-1.7
	l-4.1,0.9l-1.5,2.9l-1.3,5.8l-2,1.2l-1.7,0.7l-0.5-0.3l-1.9-1.9l-0.4-2l0.8-2.6V437l-3.3-4l-0.7-2.7v-1.6l-2.1-1.9l-0.1-3.7
	l-1.3-2.5l-1.9,0.4l0.5-2.4l1.4-2.6l-0.7-2.7l1.8-2l-1.2-1.5l1.3-3.9l2.5-4.8l4.8,0.5l-1.1-25.5v-2.7h6.4l-0.5-12.8h22.3h21.5H329
	l2.1,6.3l-1.2,1.1l1.2,6.7l2.5,7.6l2.2,1.6l3.2,2.4l-2.7,3.6l-4,1.1l-1.7,2l-0.3,4.2l-2,9.5L329,409.2L329,409.2z"/>
<path id="SS_00000181808993380184960230000018286837409299149957_" class="st0" d="M316.1,441.1l0.2,5l-0.8,1.9l-3,0.2l-1.9,3.6
	l3.5,0.5l3,3.1l1,2.6l2.6,1.5l3.5,7l-3.8,4.2l-3.4,3.8l-3.5,3h-4L305,479l-3.6-1.5l-2.3,1.8L294,475l-1.4-2.7l-3.1,1.3l-2.6-0.4
	l-1.5,1.1l-2.6-0.8l-3.5-5.3l-0.9-2l-4.3-2.6l-1.4-3.8l-2.4-2.8l-3.9-3.3l-0.1-2.1l-3.1-2.6l-3.9-2.5l1.7-0.7l2-1.2l1.3-5.8l1.5-2.9
	l4.1-0.9l1,1.7l2.9,3.8l1.6,0.5l2-1.1l4.1,0.3l0.8,1.3h5.6l0.2-1.3l2.9-1.3l0.5-1.8l2.1-1.3l4.8,3.7l2.9-0.7l2.7-4.6l3-3.5l-0.5-3.9
	L305,425l3.4-0.4l0.4-1.4l2.6,0.4l-0.6,4.8l0.9,4.6l2.9,2.5l0.8,2.2l-0.1,3.2L316.1,441.1L316.1,441.1z"/>
<path id="SN_00000052791082115964093020000005694592469799323042_" class="st0" d="M56,408l0.2,4l1.1,3.7l2,1.8l0.5,2.4l-0.3,2
	l-0.8,0.4l-3.1-0.5l-0.4,0.7l-1.2,0.1l-4.1-1.5l-2.7-0.1l-10.4-0.3l-1.5,0.8l-1.9-0.2l-3,1l-0.8-4.9l5.1,0.1l1.4-0.9h1l2.1-1.5
	l2.4,1.3l2.4,0.2l2.5-1.5l-1.1-1.8l-1.9,1h-1.7l-2.2-1.6l-1.8,0.1l-1.3,1.6l-6.1,0.1l-2.3-5l-2.7-2.2l2.5-1.3l2.8-4.5l1.4-3.3l2-2
	l2.7,0.5l2.8-1.4h3.1l2.7,1.8l3.6,1.7l3.4,4.8L56,408L56,408z"/>
<path id="SL_00000018927558986431436860000004083672836221777287_" class="st0" d="M66.5,447.9l-2.6,3l-2.6,3.4l-0.3,1.9l-1.4,2.1
	l-1.5-0.5l-4-2.6l-3-3.4l-0.9-2.4l-0.7-4.7l3.1-2.9l0.6-1.7l1-1.4l1.6-0.2l1.3-1.2h4.5l1.6,2.3l1.2,2.7l-0.2,1.9l0.9,1.7l-0.1,2.3
	L66.5,447.9L66.5,447.9z"/>
<path id="RS_00000108284807781335342330000002958179849405873338_" class="st0" d="M240,218.2l-1.1,1.4l0.7,2.4l2.8,2.7l-1.8,2
	l-0.6,2l0.6,0.8l-0.7,0.8l-2.4,0.2l-1.7,0.3l-0.3-0.5l0.6-0.7l0.4-1.6l-0.7,0.1l-1.1-1.2l-0.9-0.3l-0.8-1l-1-0.4l-0.8-0.9l-0.9,0.4
	l-0.5,2.1l-1.2,0.4l0.4-0.5l-2.1-1.3l-1.7-0.7l-0.9-0.9l-1.4-1.1l1.1-0.3l0.5-2.9l-2.7-2.5l1.1-2.8l-1.9,0.1l1.7-2.4l-1.7-1.8
	l-1.5-2.5l3.7-1.6l3.2,0.3l3,2.4l0.8,2.1l3.2,1.4l0.7,2.6l3.1,1.9l1.5-1.4l1.3,0.7l-1,1.1L240,218.2L240,218.2z"/>
<path id="SK_00000119806097849059061170000017388866434289245627_" class="st0" d="M236.1,187.7l-1.2,1.7l-0.7,2.5l-1,0.6l-5.5-1.9
	l-1.6,0.4l-1,1.5l-2.3,0.8l-0.6-0.4l-2.3,0.9L218,194l-0.3,1.3l-4.1,0.7l-1.9-0.6l-2.7-1.7l-0.7-2.1l0.3-0.8l0.6-1.4l2.2,0.1
	l1.6-0.6l0.1-0.6l0.9-0.3l0.2-1.4l1.1-0.3l0.7-1.1h1.5l0.3,0.4l1.9-0.9l2.7,2.2l2.8-1.3l2.4,0.6l3.5-0.9L236.1,187.7L236.1,187.7z"
	/>
<path id="SI_00000081636961866779615920000003627500846206818464_" class="st1" d="M207.8,203.9l-3.9,1.7l-0.3,2.5l-1.7,0.7l0.1,1.7
	l-2-0.1l-1.8-1l-0.8,1l-3.6-0.2l1.1-0.5l-1.4-2.7l0.4-3.1l4.2,0.5l2.4-1.5l4.4-0.1l0.9-1.1l0.8,0.1L207.8,203.9L207.8,203.9z"/>
<path id="SE_00000080180468929878001430000001981563188307109546_" class="st0" d="M226.2,87l-7,1.6l-3.5,3.9L217,96l-6.2,4.5
	l-7.8,5l-2.1,8.1l3.7,4.1l4.8,3.3l-3.3,6.6l-4.6,1.4l-0.6,10l-2.1,5.7l-5.7-0.6l-2.2,4.8l-5.5,0.3l-1.9-5.7l-4.5-6.9l-4.2-8.4
	l1.8-3.4l3.4-4l0.8-6.9l-3.1-2.9l-1-7.7l2.4-5.4l4.3,0.1l1.3-2.2l-1.8-2l5.7-7.9l3.4-6.1l2.3-3.9h4l0.6-3.1l8,0.9l-0.1-3.6l2.6-0.2
	l6,2.7l7.2,3.7l1.8,8.5L226.2,87L226.2,87z"/>
<path id="SZ_00000118398133401993435660000015394618461476586686_" class="st0" d="M299.7,667.7l0.6,2.9l0.3,2.9l-1.4,2.8L296,677
	l-3.1-3.5l0.1-2.2l1.7-2.4l0.6-1.9l1.7-0.4L299.7,667.7L299.7,667.7z"/>
<path id="SY_00000130608448647392509430000000618446494624359831_" class="st0" d="M333,287.5l-9.7,6.9l-6.3-2.6h-0.1l0.6-1
	l-0.4-2.6l0.9-3.5l2.7-2.5l-1.2-2.5l-2.5-0.3l-1.1-4.9l1-2.7l1.3-1.4l1.2-1.4l-0.2-3.5l1.9,1.2l5.6-1.8l3,1.2h4.4l5.7-2.4l2.9,0.1
	l5.9-1l-2.1,4l-2.7,1.6l1.2,4.7l-1,7.7L333,287.5L333,287.5z"/>
<path id="TD_00000083091105298143614450000012744760110908494234_" class="st0" d="M257.2,376.1l1.1,25.5l-4.8-0.5l-2.5,4.8
	l-1.3,3.9l1.2,1.5l-1.8,2l0.7,2.7l-1.4,2.6l-0.5,2.4l1.9-0.4l1.3,2.5l0.1,3.7l2.1,1.9v1.6l-3.6,1.1l-2.8,2.6l-4,7l-5.2,3l-5.5-0.4
	l-1.6,0.6l0.6,2.2l-2.9,2.3l-2.4,2.5l-7.1,2.4l-1.4-1.4l-1-0.2l-1,1.7l-4.6,0.5l0.8-1.8l-1.8-4.4l-0.8-2.6l-2.5-1.1l-3.4-3.8l1.2-3
	l2.6,0.6l1.6-0.4h3.2l-3.2-5.8l0.2-4.3l-0.5-4.2l-2.3-4.1l0.6-3.1l-3.7-0.1V412l-2.4-2.4l2.3-8.5l7-6l0.2-8.4l1.8-13l1.2-2.8
	l-2.4-2.2l-0.1-2l-2.2-1.7l-1.6-10l5.5-3.5l22.5,12.3L257.2,376.1L257.2,376.1z"/>
<path id="TG_00000009591321201770787000000009784825600617597073_" class="st0" d="M129.4,431.2l-0.7,3.4l1.7,1.9l2,2.2l0.2,3.2
	l1.2,1.3l-0.3,14.8l1.4,4.4l-4.5,1.4l-1.3-2.3l-1.5-4.1l-0.5-3.2l1.3-5.7l-1.4-2.4l-0.6-5v-4.7l-2.3-3.3l0.4-2L129.4,431.2
	L129.4,431.2z"/>
<path id="TH_00000070088429297792448320000006652555991505844902_" class="st0" d="M715.5,410.2l-5.3-0.9l-7.1,1.2l-3.1,5.3l2.1,7.8
	l-5.3-3l-4.8,0.2l0.3-5.1h-4.9l0.2,7.1l-2.2,9.4l-1.4,5.7l0.7,4.6l3.7,0.2l2.7,5.9l1.3,5.5l3.4,3.7l3.4,0.7l3.1,3.4l-1.7,2.6
	l-3.7,0.8l-0.6-3.3l-4.8-2.8l-0.9,1.1l-2.3-2.4l-1.2-3.2l-3.2-3.6L681,448l-0.7,3.8l-1.3-3.6l0.4-4l1.2-6.1l2.2-6.6l2.6-6l-2.7-5.9
	l-0.2-3l-1-3.6l-4.3-5.1l-1.8-3.2l1.8-1.2l1.4-5.5l-2.9-4.3l-4.1-4.7l-3.5-5.6l2.2-1.2l1.5-6.9l3.9-0.3l2.8-2.8l3-1.5l2.7,2l0.9,3.9
	l3.8,0.3l-0.4,6.7l1,5.8l5.3-3.8l1.9,1.1l3.2-0.2l0.8-2.2l4.3,0.4l5,5.2l1.3,6.4l5.3,5.6l0.4,5.4L715.5,410.2L715.5,410.2z"/>
<path id="TJ_00000091002165881946615810000005327920382444028550_" class="st0" d="M495,243.6l-1.4,1.9l-6-1l0.6,3.6l5.5-0.5
	l7.1,2.1l9.6-1l3.1,6l1.5-0.7l3.7,1.5l0.5,2.5l1.8,3.6h-5.4l-3.8-0.5l-2.5,2.9l-2.2,0.6l-1.5,1.4l-2.7-2.1l-0.9-5.4l-1.7-0.3l0.1-2
	l-3.3-1.4l-1.7,2.2l0.2,2.6l-0.6,0.9l-3.2-0.1l-0.9,2.9l-2.1-1.2l-3.4,2l-1.8-0.7l1.3-6.5l-2.4-4.8l-4.2-1.5l0.6-2.8l4.4,0.3
	l1.5-3.5l0.5-4.1l6.5-1.5l-0.2,3l1.3,1.7L495,243.6L495,243.6z"/>
<path id="TM_00000109722032227187747290000008114334287624439708_" class="st0" d="M476.3,262l-1.6-0.2l-2.9-1.7l-0.3,2.2l-4.2,1.3
	l0.2,5.1l-2.6,2l-4,0.9l-0.4,2.9l-3.9,0.9l-5.9-2.5l-1.7-5.3l-4-0.3l-7.3-5.6l-4.3-0.7l-6.6-3.3l-3.9-0.6l-2,1.2l-3.6-0.2l-3,3.7
	l-4.4,1.2l-1.9-4.5l-0.6-6.7l-4.6-2.2l0.4-4.3l-3.5-0.4l-0.1-5.4l5.3,1.6l4.1-2l-4.7-3.9l-2.4-3.6l-3.8,1.6l0.6,4.7l-2.6-4.1
	l1.8-2.2l5.6-1.3l3.9,1.8l4.8,5l2.6-0.3l5.9-0.1l-1.7-3.2l3.8-2.2l3.4-3.7l7.9,3.4l1.9,5l2.3,1.3l5.5-0.3l2.1,1.2l4.3,6.6l7.1,4.4
	l4.2,3l6.3,3.1l7.7,2.8L476.3,262L476.3,262z"/>
<path id="TN_00000056408160434695031910000009583401605386012092_" class="st0" d="M186.2,289.1l-0.1,4.9l-2.6,1.8l-1.6,2.1
	l-3.6,2.5l0.6,2.6l-0.4,2.8l-2.6,1.4l-2.6-11.5l-3.4-2.6l-0.1-1.5l-4.5-3.9l-0.6-4.8l3.2-3.6l1.1-5.3l-1-6.1l1-3.3l5.7-2.5l3.7,0.7
	v3.3l4.4-2.4l0.4,1.2l-2.5,3.2l0.1,2.9l1.9,1.6l-0.5,5.6l-3.5,3.2l1.2,3.5l2.8,0.1l1.4,3.1L186.2,289.1L186.2,289.1z"/>
<path class="st0" d="M339.7,235.3l5.5-0.3l5.6,3.2l1.3,2.2l0.1,3.1l4.2,1.6l2.4,1.8l-3.3,1.9l2.9,7.3l-0.7,2l3.8,5.1l-2.4,1.1
	l-2.1-1.6l-6.3-0.9l-2.1,1l-5.9,1l-2.9-0.1l-5.7,2.4h-4.4l-3-1.2l-5.6,1.8l-1.9-1.2l0.2,3.5l-1.2,1.4l-1.3,1.4l-2.3-2.9l1.7-2.4
	l-3.2,0.6l-4.6-1.5l-3.2,3.7l-8,0.7l-4.7-3.4l-5.7-0.2l-1,2.6l-3.6,0.8l-5.4-3.4l-5.8,0.1l-3.8-6.4l-4.2-3.5l2-5l-3.6-3.1l5.1-6.1
	l8-0.2l1.6-4.9l10,0.9l5.6-4.1l5.8-1.8l8.5-0.2l9.8,4.5l7.9,2.5l5.8-1l4.6,0.6L339.7,235.3z"/>
<path class="st0" d="M259.9,239.9l1.2-0.7l1.1-4l-2.7-1.7l5-2l4.6,0.8l0.9,2.5l4.8,2l-0.7,1.6l-6.2,0.3l-2,2l-3.9,3.4l-2-2.9
	L259.9,239.9z"/>
<path id="TW_00000023268045058964207570000011099198568968184234_" class="st0" d="M795.9,355.5l-1.4,5.3l-4-5.5l-1.5-4.7l1.9-6.3
	l3.3-4.9l3,1.9l-0.1,3.9L795.9,355.5L795.9,355.5z"/>
<path id="TZ_00000098193962177940989940000007587242561227150756_" class="st0" d="M305,508.4l-0.2,3.9l-1.1,4.5l1.6,2.5l2.5-1.5
	l3.3-0.4l0.7,0.8l3.3-1.6l-2.3-2.2l1.9-2.9l2.8-2.9l20.5,13.1l0.3,3.7l8.1,6.4l-2.8,8l0.3,3.6l3.5,2.3l0.2,1.7l-1.7,3.9l0.3,1.9
	l-0.4,3.1l1.8,4l2.2,6.4l2,1.4l-4.6,3.7l-6.2,2.5l-3.4-0.1l-2.1,1.9l-3.9,0.2l-1.5,0.8l-6.7-1.8l-2.2,0.2l0.1-0.1l-1.8-2.4l-0.3-6.8
	l-2.9-3.4l-0.4,1.2l-1-1.7l-5.5-1.2l-3.2-1.9l-3.6-1.1l-2.2-1.1l-0.3-0.2l-2.7-6.6l-0.4-3.9l-4.5-4.4l1.4-2.4l-1.1-2.6l0.2-2.7
	l-1-0.9l0.3-2.8l0.6-0.1l2-2.3l2.3-3.4l1.4-1.3v-2.1l-1.2-1.5l-0.3-2.5l1.6-0.8l0.3-3.8l-2.2-3.6l2-0.8L305,508.4L305,508.4z"/>
<path id="UG_00000076577929357399194390000013485842670032394393_" class="st0" d="M317,474.5l2.7,4.5l0.7,3.2l2.6,7.4l-2.1,4.7
	l-2.8,4.2l-1.6,2.6v0.3l-0.2-0.4l-3-1.3l-2.4,1.6l-3.6,0.9l-2.6,3.7l0.3,2.5l-6.2-0.1l-2,0.8l-3.4,2l-1.4-0.7l0.1-4.8l1.3-2.5
	l0.3-5.1l1.2-3l2.2-3.3l2.1-1.8l1.9-2.2l-2.3-0.9l0.3-7.5l2.3-1.8l3.6,1.5l4.5-1.5h4L317,474.5L317,474.5z"/>
<path id="UA_00000134937629306267281220000006613627568977466285_" class="st0" d="M295.2,174.6l2.3,2.7l0.1,1.2l6.7,2.2l3.6-1
	l3.6,2.9l2.9-0.1l7.7,2l0.4,1.9l-1.3,3.2l1.8,3.5l-0.3,2.1l-4.8,0.4l-2.2,1.8l0.4,2.7l-3.9,0.5l-3,2.1l-4.6,0.3l-4,2.4l1,3.9
	l2.8,1.5l5.1-0.4l-0.6,2.3l-5.4,1.1l-6.3,3.6l-3.1-1.3l0.7-2.9l-5.9-1.9l0.7-1.2l4.6-2.1l-1.7-1.4l-8.1-1.6l-0.8-2.4l-4.5,0.8
	l-1.3,3.5l-3.3,4.6l-2.4-1.1l-2.3,1.1l-2.4-1.2l1.2-0.7l0.6-2.1l1.1-2.1l-0.6-1.1l1-0.5l0.6,0.9l3,0.2l1.3-0.5l-1-0.6l0.2-1l-2-1.6
	l-1.1-2.6l-2-1l0.1-2.1l-2.6-1.7l-2-0.3l-4-1.9l-3.2,0.6l-1.1,0.9h-2.1l-1,1.5l-3.6,0.6l-1.6,1l-2.5-1.6h-3.2l-3.2-0.7l-2,1.4
	l-0.5-1.7l-3-1.7l0.7-2.5l1.2-1.7l1.1,0.4l-1.6-2.8l3.8-5.2l2.3-0.7l0.3-1.7l-3.2-5.4l2.3-0.3l2.4-1.6l3.8-0.2l4.9,0.5l5.7,1.5
	l3.9,0.1l1.9,0.9l1.7-1.1l1.5,1.5l4.3-0.3l2.1,0.6l-0.3-3.1l1.3-1.4l4.1-0.3l1.8,0.2l1-1.4l1.5,0.3l4.9-0.6l3.8,3.5l-0.9,1.3
	l0.8,1.9L295.2,174.6L295.2,174.6z"/>
<path id="UZ_00000076601543138735731690000003270111482804104383_" class="st0" d="M490.7,230.7l1.7,0.6l-3,4.1l4.6,2.4l3.2-1.6
	l7.2,3.4l-5.3,4.6l-4.1-0.6l-2.1,0.1l-1.3-1.7l0.2-3l-6.5,1.5l-0.5,4.1l-1.5,3.5l-4.4-0.3l-0.6,2.8l4.2,1.5l2.4,4.8l-1.3,6.5
	l-4.3-1.4h-3l-0.8-3.9l-7.7-2.8l-6.3-3.1l-4.2-3l-7.1-4.4l-4.3-6.6l-2.1-1.2l-5.5,0.3L436,236l-1.9-5l-7.9-3.4l-3.4,3.7l-3.8,2.2
	l1.7,3.2l-5.9,0.1l-6.2-23.4l12-3.7l1.1,0.5l9.2,4.5l4.8,2.4l6.6,5.7l5.7-0.9l8.6-0.5l7.6,4.6l1.5,6.4l2.6,0.1l2.5,5.2l6.7,0.2
	l2.3,3h2l0.9-4.6l5.4-4.4L490.7,230.7L490.7,230.7z"/>
<path id="VN_00000129903445616511723230000010882434269296785832_" class="st0" d="M724.5,363.5l-6.5,5.4l-3.7,6.1l-0.6,4.5l5.3,6.7
	l6.5,8.4l5.7,4l4.1,5.1l4,11.9l0.4,11.3l-4.3,4.2l-6.1,4.2l-4.2,5.3l-6.6,6l-2.3-4.1l1.2-4.4l-4.4-3.6l4.6-2.6l5.9-0.5l-2.8-3.8l9-5
	l-0.1-7.7l-1.8-4.3l0.2-6.4l-2-4.5l-4.9-4.5l-4.4-5.6L711,382l-7.3-3.9l1.2-2.3l3.3-1.7l-3-5.6h-6.8l-3.5-5.8l-4-5.1l2.7-1.6
	l4.4,0.1l5.3-0.8l4.1-3.4l3.1,2.4l5.3,1.2l-0.3,3.7l3.1,2.6L724.5,363.5L724.5,363.5z"/>
<path id="YE_00000036226907250361387400000003069344361762577845_" class="st0" d="M421.8,394.9l-4,1.7l-0.9,2.9v2.2l-5.4,2.7
	l-8.8,3l-4.7,4.5l-2.5,0.4l-1.7-0.4l-3.2,2.7l-3.5,1.2l-4.7,0.3l-1.4,0.4l-1.1,1.7l-1.5,0.5l-0.8,1.6l-2.8-0.2l-1.7,0.9l-4-0.3
	l-1.6-3.8v-3.5l-1-1.9l-1.3-4.7l-1.8-2.6l1.1-0.4l-0.7-2.9l0.6-1.2l-0.4-2.8l2.4-2.1l-0.8-2.7l1.3-3.1l2.4,1.6l1.5-0.6l6.4-0.1
	l1.1,0.6l5.5,0.7l2.1-0.3l1.5,2.1l2.6-1.1l3.5-6.7l5-2.9l15.9-2.5l5.2,10.6L421.8,394.9L421.8,394.9z"/>
<path id="ZM_00000006674186884965359590000012504335062932549563_" class="st0" d="M300.1,556.8l0.3,0.2l2.2,1.1l3.6,1.1l3.2,1.9
	l2.6,2.9l1.3,5.4l-1,1.7l-1.3,5.2l0.9,5.4l-1.8,2.2l-2,6l2.9,1.6l-17.2,5.3l0.4,4.6l-4.3,0.9l-3.3,2.5l-0.8,2.2l-2,0.6l-5.1,5.2
	l-3.2,4.2l-1.9,0.1l-1.8-0.7l-6.2-0.7l-1-0.5v-0.5l-2.2-1.5l-3.6-0.3l-4.6,1.4l-3.6-4l-3.6-5.2l0.8-20.5l11.7,0.1l-0.4-2.2l0.9-2.4
	l-0.9-3l0.7-3.1l-0.6-2l1.9,0.1l0.3,2l2.7-0.1l3.5,0.6l1.9,2.9l4.4,0.9l3.5-2l1.2,3.3l4.3,0.9l2,2.8l2.2,3.5h4.3l-0.2-6.9l-1.6,1.2
	l-3.9-2.5l-1.5-1.2l0.9-6.4l1.1-7.6l-1.2-2.8l1.7-4.1l1.5-0.8l7.7-1.1l0.9,0.3l-0.3,1.4l1.9,0.5l1.2,1.3l1-0.3L300.1,556.8
	L300.1,556.8z"/>
<path id="ZW_00000024717270043747825240000001107593999849169803_" class="st0" d="M297.4,644.7l-2.9-0.7l-1.9,0.8l-2.7-1.1h-2.2
	l-3.4-2.9l-4.3-1l-1.5-4.1l0.1-2.3l-2.3-0.7l-6.1-7l-1.6-3.7l-1.1-1.2l-1.9-5.1l6.2,0.7l1.8,0.7l1.9-0.1l3.2-4.2l5.1-5.2l2-0.6
	l0.8-2.2l3.3-2.5l4.3-0.9l0.2,2.4l4.7-0.1l2.6,1.3l1.1,1.6l2.7,0.5l2.8,2l-0.4,8.2l-1.3,4.4l-0.4,4.8l0.8,1.9l-0.9,3.8l-0.8,0.6
	l-1.7,4.6L297.4,644.7L297.4,644.7z"/>
<path id="SO_00000053518189617693770640000013904991846466653618_" class="st0" d="M360.1,512.6l-3.3-5.3l-0.2-23.4l4.9-7.2l1.5-2.1
	l3.6-0.1l5-4.5l7.3-0.3l15.6-19.3l-4.8,0.1l-18.7-7.6l-2.2-2.3l-2.2-3.1l-2.2-3.6l1.2-2.2l1.9-3.5l1.9,1.2l1.2,2.7l2.7,2.7h2.8
	l5.2-1.7l6.1-0.7l4.9-2l2.8-0.4l2-1.2l3.2-0.2l1.8-0.2l2.5-0.9l3-0.7l2.5-2.2h2.2l0.2,1.8l-0.4,3.7l0.2,3.4l-1.1,2.3l-1.4,7
	l-2.4,7.1l-3.3,8.2l-4.6,9.4l-4.7,7.2l-6.6,8.8l-5.6,5.2l-8.4,6.4l-5.3,4.8l-6.2,7.8l-1.3,3.4L360.1,512.6L360.1,512.6z"/>
<path id="XK_00000009574505198128365220000018306710861306606225_" class="st0" d="M235.8,230.8l-1.2,0.3l-2.9,1l-0.1,1.3l-0.7-0.1
	l-0.6-2.3l-1.3-0.7l-1.2-1.7l0.8-1.4l1.2-0.4l0.5-2.1l0.9-0.4l0.8,0.9l1,0.4l0.8,1l0.9,0.3l1.1,1.2l0.7-0.1l-0.4,1.6l-0.6,0.7
	L235.8,230.8L235.8,230.8z"/>
<path id="ZA_00000077318308720416036930000007610707595419894690_" class="st0" d="M297.4,644.7l2.2,9l1.1,4.6l-1.4,7.1l0.4,2.3
	l-2.7-1.1l-1.7,0.4l-0.6,1.9l-1.7,2.4l-0.1,2.2l3.1,3.5l3.2-0.7l1.4-2.8h4.1l-1.7,4.7l-1,5.3l-1.7,2.9l-4,3.3l-1.1,0.9l-2.6,3.3
	l-1.8,3.3l-3.5,4.6l-6.7,6.6l-4.1,3.8l-4.3,3l-5.9,2.4l-2.7,0.4l-0.9,1.8l-3.2-1l-2.7,1.2l-5.7-1.2l-3.3,0.8l-2.2-0.4l-5.8,2.6
	l-4.6,1l-3.5,2.4l-2.4,0.2l-2.1-2.3l-1.8-0.1l-2.2-2.9l-0.3,0.9l-0.6-1.7l0.3-3.8l-1.5-4.3l1.8-1.2l0.1-4.9l-3.3-6l-2.4-5.4v-0.1
	l-3.6-8.3l2.8-3.2l2,1.8l0.8,2.7l2.5,0.5l3.4,1.2l2.9-0.5l5-3.3l1.1-23.7l1.4,1l3,6.1l-0.6,3.9l1.1,2.3l4-0.7l2.8-2.9l2.7-1.9
	l1.5-3.1l2.8-1.4l2.3,0.7l2.5,1.8l4.5,0.3l3.6-1.4l0.6-2l1.2-3.1l3-0.5l1.8-2.4l2-4.3l5.2-4.8l8.1-4.7h2.2l2.7,1.1l1.9-0.8
	L297.4,644.7L297.4,644.7z M277.1,697.9l1.1-2l3.1-1l1.1-2.1l1.9-3.1l-1.7-2l-2.2-2l-2.7,1.4l-3.1,2.5l-3.2,4l3.7,5L277.1,697.9
	L277.1,697.9z"/>
<path id="NL_00000142895411797380202730000013712791341404500868_" class="st0" d="M154.5,177.1l-2.8-1.5l-3.1-2.7l-4.5,1.3
	l-3.6-0.5l2.5-1.7l4-9l6.5-2.6l4,0.2l0.9,2.1l-0.9,5.6l-1.2,2.3h-2.9L154.5,177.1L154.5,177.1z"/>
<path id="PT_00000133513584207975649430000016029359617676391090_" class="st0" d="M84.9,263.7l-2.2,1.6l-2.8-0.9l-2.7,0.7l0.9-5
	l-0.3-3.9l-2.4-0.6l-1.1-2.4l0.5-4.2l2.2-2.3l0.5-2.6l1.2-3.8v-2.7l-0.9-2.3l-0.2-2.2l1.9-1.6l2.2-0.9l1.2,3.1h3l0.9-0.8l3.1,0.2
	l1.3,3.2l-2.4,1.7l-0.3,5l-0.8,0.9l-0.3,3.1l-2.3,0.5l2,3.8l-1.6,4.2l1.8,1.9l-0.8,1.7l-2,2.4L84.9,263.7L84.9,263.7z"/>
<path class="st0" d="M827.5,177.4l13.7,11l-8.9-2l3.7,9l9.6,6.4l3,4.4l-6.5-3.8l0.1,4.9l-4.7-5.3l-3.8-6.1l-5.6-6.7l-2.4-4.8
	l-6.4-8.2l-8-6.1l-6.8-8.4l1.9-2.8l-4.4-2.8l1.3-0.9l4.9,4l6.9,5.9l5.2,6.1L827.5,177.4z"/>
<path class="st0" d="M232.6,155.4l-8.8,0.1l-5.9-0.7l0.7-2.6l6.3-2l5.1,1.1l2.2,0.9l-0.2,1.7L232.6,155.4z"/>
<path class="st0" d="M686.4,48.2l-5.9,0.1l-8.9-0.6l-1-0.3l0.7-2l4.2-0.5l8.4,2L686.4,48.2z"/>
<path class="st0" d="M699,38.7l-1.1,2l-6.9-0.4l-10.3-2l-1.8-1.6l8.3,0.7L699,38.7z"/>
<path class="st0" d="M673.5,36.3l3.1,3.8l-14.3-0.2l-4.6,1.2l-12.5-3.3l-3.4-3.4l3.5-0.9l10.2,0.2L673.5,36.3z"/>
<path class="st0" d="M356.8,61.3l-2.2,0.4L341.1,61l-2.3-2.3l-7.9-1.4l-2-2.9l3.5-1.1l-1.6-2.8l5.4-4.4l-4-0.6l6.7-4.5l-2.5-2.3
	l6.8-2.6l10.3-3.2l11.7-0.9l5-1.8l6.7-0.6l4.2,1.9l-1.3,1.5l-11.4,2.5l-9.9,2.3l-8.7,4.8l-2.8,5l-3.3,5l3.1,4.3L356.8,61.3z"/>
<path class="st0" d="M799.7,231l-1.4-1.1l-1.9-3.3l2.5-0.1L795,219l-4.7-5.4l2.9-2.2l6.9,1.1l-0.6-6.2l-2.8-6.8l0.3-2.3l-1.3-5.7
	l-6.9,1.9l-2.6,2.4h-7.6l-6-5.8l-9-4.5l-10-2l-6.2-6l-4.5-3.8l-3.8-2.7l-7.7-6.2l-6-2.2l-8.6-1.9l-6.2,0.2l-5.1,1.1l-1.7,3.1
	l3.7,1.4l2.5,3.4l-1.3,2l0.2,6.5l1.9,2.8l-4.4,3.9l-7.4-2.4l-5.6,0.6l-3.9-2.1l-3.4-0.7l-4.4,4.4l-5.9,1l-3.6,1.6l-6.8-1h-4.6
	l-4.9-3.2l-6.6-2.9l-5.4-0.9l-5.7,0.8l-4,1.2l-8.5-2.6l-3.6-4.6l-6.7-1.6l-4.8-0.8l-7-2.5l-1.3,6.4l4,3.6l-2.4,4.4l-8-1.6l-5-0.2
	l-4.8-2.9l-5.2-0.1l-5.3-1.9l-5.9,2.9l-6.7,5.3l-4.7,1.1l-1.7,0.5l-4.4-3.8l-6,0.9l-3.3-2.7l-4-1.2l-4.1-3.6l-3.3-1.1l-6.2,1.6
	l-8.4-3.5l-1.1,3.2l-18.3-15.6l-8.4-4.7l0.8-2l-9.2,5.8l-4.4,0.3l-1.1-3.3l-7.1-2.1l-4.3,1.5l-4.4-6.3l-9.1-1.3l-3.1,2.5l-10.9,2.3
	l-1.7,1.5l-17,2.1l-1.4,2.1l5.1,4.2l-4,1.6l1.5,1.6l-3.5,3l9.4,4.3l-0.2,2.9l-7-0.3l-0.8,1.9l-7.3-3.2l-7.7,0.1l-4.4,2.6l-6.6-2.5
	l-12-4.3l-7.6,0.2l-8.1,6.7l0.6,4.5l-6-3.6l-2.2,6.9l1.8,1.2l-1.7,4.8l5.3,4.2l3.6-0.2l4.3,4.2l0.2,3.2l2.8,1.1l-1.4,3.7l-4.6,1
	l-3.6,6.5l6,6.1l0.4,4.2l7.3,7.5l-2.5,2.6l-0.6,1.6l-2.4-0.5l-4.3-3.8l-1.5-0.2l-3.6-1.5l-2.1-2.6l-5.1-1.3l-2.9,1l-1.2-1.2
	l-7.6-3.1l-7.7-1l-4.6-1.1l-0.4,0.8l-7.6-5.4l-6.2-2.4l-5.1-3.7l3.6-1l3.2-5.2l-3.3-2.5l6.9-2.6l-0.4-1.4l-4.3,1l-0.4-2.7l2.2-1.8
	l4.8-0.4l0.3-2.1l-1.8-3.5l1.3-3.2l-0.4-1.9l-7.7-2l-2.9,0.1l-3.6-2.9l-3.6,1l-6.7-2.2l-0.1-1.2l-2.3-2.7l-3.9-0.3l-0.8-1.9l0.9-1.3
	l-3.8-3.5l-4.9,0.6l-1.5-0.3l-1,1.4l-1.8-0.2l-2-4l-1.5-2l0.8-0.6l3.9,0.2l1.6-1.3l-1.7-1.6l-3.4-1.1v-1.1l-2.1-1.1l-3.8-4l0.7-1.6
	l-1.1-2.9l-4.8-1.4l-2.4,0.7l-0.9-1.5l-5.3-1.5l-2.1-3.6l-1-2.9l-2.5-1.3l1.6-1.9L250,129l2.6-3.4l-0.9-1l4.5-3.3l-5.4-2.8l8-7.4
	l3.4-3.4l0.9-2.9l-7.4-3.9l0.9-3.8l-4.9-4.2l1.7-4.8l-6.5-6.3l2.9-4.2l-7.3-3.7l-0.4-3.8l3.2-0.5l6.4-2.1l3.7-1.9l7.7,3.2l11.7,1.3
	l17.7,6.2l4.1,2.6l1.5,3.7l-3.7,2.9l-6.5,1.5l-20.2-4.2l-2.9,0.7l8.1,4.1l1,2.6l1.9,5.8l6.1,1.7l3.8,1.5l-0.2-2.8l-3.4-2.4l2.1-2.2
	l11.6,3.6L299,94l-4.3-4.2l8.1-5.4l4.1,0.3l4.6,1.9l1.1-3.8l-4.7-3.3l0.8-3.3l-4.3-3.4l12.3,1.8l3.6,3l-5.1,0.7l1.2,3.1l4.1,1.9
	l6-1.2l-0.4-3.5l7.7-2.7l12.4-4.6l3.2,0.2l-2.5,3.3l5.4,0.6l2.1-1.9l7.7-0.1l5-2.3l6.4,3.3l2.8-3.6l-6-3.1l1.2-1.8l13,1.6l6.6,1.7
	l18.6,6.2l1.1-2.8l-5.9-2.9l-0.8-1.1l-5.3-0.6l-0.2-2.5l-4.7-4.2l-1.1-1.7l4.3-4.7l-0.6-4.8l2.2-1l11.4,1.4l2.9,2.9l-0.9,4.2
	l3.7,1.7l3.8,3.7l3.8,7.4l6.7,3.3l0.5,3.7l-3.5,7.8l5.3,0.8l0.5-2l3.8-1.4l-0.5-2.7l1.9-2.7l-4.4-3.1l-0.4-3.6l-4.8-0.4l-2.9-3
	l-0.4-5.4l-8.2-4.3l4.7-3.5l-3.7-3.7l1.9-0.1l4.2,2.8l2.1,5.1l5,1l-4.6-3.8l5.1-2.1l8.1-0.3l9.6,3l-6.9-4.3l-4.9-5.5l5.9-1l9.5,0.2
	l7.8-0.7l-5.6-2.6l1.3-3.3l4.2-0.2l4.9-2.4l9.3-0.7l-0.2-1.4l9.3-0.4l4.3,1.1l5.4-2.6l7,0.1l-1.5-2.2l0.9-2l6.2-2l8.3,1.6l-3.5,1.2
	l9.4,0.7l4.1,2.4l1.9-1.2l10.9,0.1l11.6,2.4l5.5,1.8l2.5,2.6l-2.4,1.5l-6.6,2.8l-1.1,1.5l5.6,0.7l7.2,1.3l2.4-1l5.8,3.3l0.2-1.3
	l5.2-0.8l13.6,0.8l3.8,2.4l17.4,0.8l-4.8-3.9l9.5,0.9l6.1-0.1l9.9,2.7l6,3.3l0.4,2.2l10.1,4.2l9,2.1l-3-5.5l9.4,2.3l5-1.4l9.8,1.6
	l1-1.4l7.6,0.7l-9.4-4.9l2.1-2.2l40.4,3.4l7.9,3.1l16.3,4l14.8-1l9.3,0.9l6.6,2.2l5.1,3.9l7.3,1.5l3.9-1.1l7-0.1l9.3,1l6.9-0.6
	l14.3,4.8l2.5-1.7l-8.5-3.4l-1.8-2.4l15.3,1.5l8-0.3l15.8,2.5l9.5,2.4l33.2,22.1l-2,2.5l-6.2-0.4l8.2,3l9.1,4.7l4.2,1.5l3.8,2.4
	l1,1.5l-10-1.2l-6.6,4.3l-3,0.7l-1.6,4.1l-2,3.6l1.7,2.7l-11.5-4.1l-6.1,4.6l-4.7-2.2l-1.4,2.6l-7-0.9l3.1,3.9l1.1,5.8l2.9,2.4
	l6.8,1.3l9.1,8.7l-4.1,0.3l3.4,5l4.7,2.6l-5,3.1l5.4,7l-5.7,1.5l4.5,6.2l-1.7,5.8l-5.7-4.3l-10.5-8.9L857.9,149l-6.5-8.3l0.1-3.6
	l-2.8-2.8l5.7-1.3l-0.2-7.5l0.7-6l2.5-4.7l-6.6-8.2l-4.7,0.5l3.2,4.8l-3.6,6.4l-12.3-7.2l-9.1,2v9.8l7.7,3.6l-8.5,1.6l-6.4,0.6
	l-4.3-4.3l-8-0.9l-2.5,2.9l-15.1-1l-13.2,1.7l-3.5,11.7l-5,14.2l8.2,0.8l5.7,3.8l5.8,1.3l0.4-3l5.6,0.4L804,163l4.7,5.2l1.4,6.2
	l5.5,7.4l5.3,9.9l-1,9.1l1.3,4.3l-2,7.4l-2.1,7.3l-0.9,3.7l-4.6,3.7l-3.1,0.1l-5.2-3.1l-4.1,4.7L799.7,231z"/>
<path class="st0" d="M505.1,23.1L487,24.9l-1.3-6.1l2.2-0.5l3.1,0.3l12.6,2.6L505.1,23.1z"/>
<path class="st0" d="M302.8,13.1l-4.3,0.5l-2.9,0.4v0.7l-3.6,0.7l-4.5-1l1.1-1.4l-7.8-0.1l6.3-0.8h5.2l1.5,1.1l1.3-1l2.8-0.7
	l5.8,0.9L302.8,13.1z"/>
<path class="st0" d="M483.1,20.4L476,21l-11.7-1.3l-8.1-1.7l-6.6-3.2l-5.9-0.8l5.4-2.9l6.2-0.9l9.6,2l13.7,4.2L483.1,20.4z"/>
<path id="ES_00000008137978204685611070000016217275045289854395_" class="st0" d="M114.6,223.4l2,2.4l9.5,2.9l1.9-1.4l5.8,2.9
	l5.9-0.8l0.4,3.7l-4.9,4.2l-6.6,1.4l-0.5,2.1l-3.2,3.5l-2,5.2l2,3.7l-3,2.8l-1.2,4.2l-4,1.3l-3.7,4.9l-6.8,0.1l-5-0.1l-3.4,2.2
	l-2.1,2.4l-2.6-0.5l-1.9-2.2l-1.4-3.6l-4.9-1l-0.4-2.2l2-2.4l0.8-1.7l-1.8-1.9l1.6-4.2l-2-3.8l2.3-0.5l0.3-3.1l0.8-0.9l0.3-5
	l2.4-1.7l-1.3-3.2l-3.1-0.2l-0.9,0.8h-3l-1.2-3.1l-2.2,0.9l-1.9,1.6l0.5-4.5l-2-2.7l7.4-4.6l6.2,1.1h6.9l5.4,1.1l4.3-0.4
	L114.6,223.4L114.6,223.4z"/>
<path class="st0" d="M173.7,231.4l-1.5,4.9l-2.4-1.3l-1.3-4.2l0.9-2.4l3.2-2.4L173.7,231.4z"/>
<path class="st0" d="M152.4,185l1.1,0.5l1.4-0.1l2.4,1.6l7.2,1.2l-2.4,4.2l-0.4,4.5l-1.3,1.1l-2.3-0.6l0.2,1.6l-3.6,3.5v2.9l2.4-1
	l1.8,2.7l-0.1,1.8l1.5,2.4l-1.7,1.9l1.5,4.9l2.8,0.8l-0.5,2.7l-4.5,3.6l-10.2-1.7l-7.4,2.1l-0.6,3.8l-5.9,0.8l-5.8-2.9l-1.9,1.4
	l-9.5-2.9l-2-2.4l2.7-3.8l1-12.6l-5.1-6.6l-3.7-3.2l-7.6-2.4l-0.4-4.6l6.5-1.3l8.3,1.6l-1.5-7.1l4.7,2.7l11.4-4.8l1.5-5.1l4.2-1.3
	l0.8,2.2l2.2,0.1l2.4,2.5l3.5,2.9l2.5-0.5L152.4,185z"/>
<path id="BH_00000142176854761880082120000006404771255608056240_" class="st0" d="M402.1,333.3l0.3,0.1l0.2-0.1l0.4,0.7l-0.1,0.2
	l0.1,0.9v0.7l-0.2,0.4l-0.1-0.4l-0.6-0.8l0.1-0.4l-0.2-0.7v-0.4L402.1,333.3L402.1,333.3z"/>
<path class="st0" d="M371.2,581.3l-0.9-0.1l-0.2-0.4v-0.3l0.5,0.1l0.7,0.5L371.2,581.3z"/>
<path class="st0" d="M374.9,579.4l0.2,1v0.7l-0.1,0.2l-0.2-0.3l-0.4-0.3l-0.1-0.2l-0.3-0.1l-0.6-0.4l0.1-0.1l0.5,0.2l0.3-0.1
	l0.2-0.4v-0.2l0.3-0.1L374.9,579.4z"/>
<path class="st0" d="M369.2,578.4l-0.5-0.4l-0.3-0.1l-0.3-0.2l-0.2-0.6l0.1-0.3v-0.2l0.2-1.2l-0.1-0.1l0.2-0.4l0.5-0.1l0.2,0.3
	l-0.2,1.2l0.1,0.3l0.2,0.4l0.1,0.5l0.2,0.6L369.2,578.4z"/>
<path class="st0" d="M306.2,276.7l0.1,0.2l0.3,0.4l-0.4-0.1h-0.3l-0.4,0.2l-0.3-0.3v-0.3l0.3-0.1l0.2,0.1L306.2,276.7z"/>
<path class="st0" d="M304.5,277.2L304.5,277.2l-0.2,0.3l-0.1,0.6l-0.1,0.2h-0.3l-0.2,0.2l-0.5,0.2l-0.2,0.1l-0.6,0.3l-0.4-0.1
	l-0.5,0.1l-0.3,0.4l-0.2-0.3l-0.3,0.1h-0.2l-0.3-0.3l-0.4,0.3h-0.5l-0.5-0.2l-0.5-0.1l-0.4-0.3l-0.3-0.6l-0.3-0.3l-0.2-0.7l-0.2-0.3
	l0.1-0.3l0.5,0.3l0.4-0.1l0.2-0.3l0.1-0.3l0.3-0.1l0.2,0.1l0.2-0.2h0.2l0.1,0.4l0.5,0.2l0.1,0.2h0.6l0.6-0.5l0.4,0.1l0.3-0.2
	l0.3,0.1l0.4,0.2l0.2-0.3h0.3l0.3,0.4v0.6l0.3-0.2l0.3,0.2l0.1-0.1L304.5,277.2z"/>
<path class="st0" d="M904.5,440.5l0.1,0.3h-0.3l-0.3,0.5l-0.1-0.1l0.3-0.8l0.4-0.1L904.5,440.5z"/>
<path id="MV_00000061459300112548807830000015351588666270511776_" class="st0" d="M540.9,474.8v0.2l-0.2-0.1l0.2-0.2V474.8z"/>
<path class="st0" d="M201.9,271.7l-0.2,0.3l-0.5-0.2l-0.5-0.3V271l-0.1-0.1h0.6l0.4,0.3l0.2,0.2L201.9,271.7z"/>
<path class="st0" d="M200.3,270.6l-0.5-0.1v-0.2l0.4-0.1l0.4,0.3L200.3,270.6z"/>
<path class="st0" d="M938.7,385.9l-0.1-0.2v-0.5l0.3-0.1l0.2,0.3L938.7,385.9z"/>
<path class="st0" d="M937.5,381.6l-0.4-0.1v-0.3l0.2-0.1l0.2,0.2V381.6z"/>
<path class="st0" d="M445.7,630.8l0.4,0.9l-0.2,0.6l-0.4,0.4l0.1,0.3l-0.3,0.3l-0.5,0.2h-0.5l-0.6-0.1l-0.1,0.1l-0.3-0.3l0.2-0.2
	l0.1-0.4l0.1-0.7l0.2-0.4l0.5-0.4l0.1-0.2l0.2-0.5l0.4-0.3l0.4,0.1L445.7,630.8z"/>
<path class="st0" d="M477.5,628.7l-0.3-0.3l0.4-0.2l0.3-0.1l0.2,0.1l-0.1,0.2L477.5,628.7z"/>
<path id="PW_00000049938831773857380340000009707283001695553195_" class="st0" d="M885.7,453.1l-0.2,0.4l0.1,0.1l-0.2,0.6l0.1,0.2
	l-0.5,0.2l-0.2-0.7l0.3-0.2l-0.2-0.2l0.3-0.6l0.3-0.1L885.7,453.1L885.7,453.1z"/>
<path class="st0" d="M161.9,501.3h-0.2l-0.2,0.3h-0.2l-0.1-0.4l-0.2-0.8v-0.3l0.4-0.5l0.3-0.1l0.3-0.3l0.4,0.1l0.2,0.4l0.1,0.3
	l-0.1,0.4l-0.2,0.3l-0.3,0.4L161.9,501.3z"/>
<path class="st0" d="M166.5,491.5l-0.1,0.3l-0.2,0.1l-0.3-0.1v-0.3l0.2-0.1v-0.3l0.2-0.2l0.3,0.1L166.5,491.5z"/>
<path class="st0" d="M387,562.1l-0.3,0.2h-0.5l-0.4,0.2h-0.4v-0.2h0.5l0.4-0.1l0.4-0.3h0.2L387,562.1z"/>
<path class="st0" d="M386.5,561.8l-0.2,0.1h-0.4v-0.2L386.5,561.8z"/>
<path class="st0" d="M438.4,531.5l0.4,0.4l-0.2,0.3l-0.2-0.3l-0.3-0.2l0.2-0.5L438.4,531.5z"/>
<path class="st0" d="M26.4,323.4l-0.3,0.5l-0.4,0.5l-0.3-0.4H25l-0.2-0.2l0.2-0.3l0.4,0.1l0.4-0.4l0.3-0.2l0.2,0.1L26.4,323.4z"/>
<path class="st0" d="M40,321.1v0.5l0.2,0.4l-0.2,0.7l0.1,0.3l-0.4,0.4l-0.5,0.2l-0.2,0.2l-0.6-0.2l-0.5-0.5l-0.2-0.4v-0.6l0.6-0.4
	l0.1-0.5V321l0.6,0.1h0.4l0.3,0.1L40,321.1z"/>
<path class="st0" d="M30.1,321.9h-0.2l-0.3-0.2l-0.2-0.3l0.1-0.4l0.1-0.3h0.3h0.3l0.5,0.4l0.1,0.3l-0.5,0.5H30.1z"/>
<path class="st0" d="M36.2,318.4v0.2l-0.6,0.3l-0.4,0.5l-0.3,0.2v0.4l-0.4,0.7l-0.1,0.4l-0.5,0.6l-0.1,0.2h-0.2l-0.6,0.2l-0.1-0.1
	l-0.1-0.4l-0.3-0.4l-0.1-0.2l-0.2-0.3v-0.3l-0.4-0.6l0.5-0.3l0.3,0.2l0.6-0.2h0.4l0.5-0.2l0.5-0.4v-0.2l0.6-0.3h0.6L36.2,318.4
	L36.2,318.4z"/>
<path class="st0" d="M46.4,321.2l-0.3,0.4l-0.4,0.1l-0.3-0.1H45v-0.2h0.3l0.6-0.2l0.4-0.3l0.3-0.3l0.1-0.5l0.1-0.3l0.2-0.5l0.3-0.4
	l0.3-0.6l0.2-0.8l0.2-0.2l0.4-0.1l0.3,0.3l0.1,0.5l-0.1,0.5l-0.1,0.5v0.5l-0.1,0.1l-0.3,0.7l-0.3,0.3l-0.6,0.1l-0.7,0.3L46.4,321.2z
	"/>
<path class="st0" d="M26.8,316.7l0.3-0.1l0.2,0.3l0.2,0.5l-0.2,0.3l0.1,0.4l-0.6,1l-0.1-0.1l-0.1-0.4l-0.4-0.9l-0.1-0.3l-0.1-0.2
	l0.2-0.4l0.3-0.2L26.8,316.7z"/>
<path class="st0" d="M50.9,314.7v0.4l-0.2,0.5l-0.7,0.5l-0.5,0.1l-0.4,0.5l-0.5-0.2v-0.1l0.2-0.4v-0.4l0.2-0.3l0.3-0.2h0.3l0.3-0.3
	h0.5l0.1-0.1l0.2-0.5l0.2-0.1l0.2,0.2L50.9,314.7z"/>
<path id="YT_00000098193468573446377610000010171550203073792692_" class="st0" d="M378.2,583.1l0.2,0.3l0.5,0.2v0.3l-0.2,0.2
	l0.1,0.2l-0.3,0.6l0.1,0.2l-0.3,0.1l-0.2-0.3v-0.3l0.2-0.2l-0.2-0.7l-0.1-0.1l-0.1-0.2L378.2,583.1z"/>
<path id="RE_00000143617472699109415240000005631885617517519266_" class="st0" d="M433,635.8h0.4l0.4,0.2l0.3,0.3v0.3l0.1,0.5
	l0.3,0.2l0.2,0.2l0.1,0.2l-0.2,0.6l-0.1,0.4l-0.2,0.2l-0.4,0.1H433l-0.2-0.2l-0.8-0.4l-0.3-0.5v-0.3l-0.3-0.6l0.1-0.4l0.2-0.2
	l0.2-0.4h0.1l0.5-0.2L433,635.8L433,635.8z"/>
<path id="_x30__00000064345102516784794650000000545038624968726431_" class="st0" d="M135.9,189.1L135.9,189.1L135.9,189.1z"/>
<g>
	<path class="st2" d="M260.3,209.5h-15.4c-1.2,0-2.1,1-2.1,2.1s1,2.1,2.1,2.1h5.6v13.5c0,1.2,1,2.1,2.1,2.1s2.1-1,2.1-2.1v-13.5h5.6
		c1.2,0,2.1-1,2.1-2.1S261.5,209.5,260.3,209.5"/>
	<path class="st3" d="M256.2,207.1h-7.4c-0.6,0-1.2-0.5-1.2-1.2s0.5-1.2,1.2-1.2h7.4c0.6,0,1.2,0.5,1.2,1.2S256.9,207.1,256.2,207.1
		"/>
	<path class="st3" d="M250.7,202c0-0.4,0.3-0.7,0.7-0.7h2.4c0.4,0,0.7,0.3,0.7,0.7s-0.3,0.7-0.7,0.7h-2.4
		C251,202.7,250.7,202.4,250.7,202"/>
</g>
<g>
	<path class="st2" d="M374.7,338.2h-15.4c-1.2,0-2.1,1-2.1,2.1s1,2.1,2.1,2.1h5.6V356c0,1.2,1,2.1,2.1,2.1s2.1-1,2.1-2.1v-13.5h5.6
		c1.2,0,2.1-1,2.1-2.1S375.9,338.2,374.7,338.2"/>
	<path class="st3" d="M370.6,335.8h-7.4c-0.6,0-1.2-0.5-1.2-1.2s0.5-1.2,1.2-1.2h7.4c0.6,0,1.2,0.5,1.2,1.2S371.3,335.8,370.6,335.8
		"/>
	<path class="st3" d="M365.1,330.7c0-0.4,0.3-0.7,0.7-0.7h2.4c0.4,0,0.7,0.3,0.7,0.7s-0.3,0.7-0.7,0.7h-2.4
		C365.4,331.5,365.1,331.1,365.1,330.7"/>
</g>
<g>
	<path class="st2" d="M508.1,306.8h-10.2c-0.8,0-1.4,0.7-1.4,1.4c0,0.7,0.7,1.4,1.4,1.4h3.7v8.9c0,0.8,0.7,1.4,1.4,1.4
		c0.8,0,1.4-0.7,1.4-1.4v-8.9h3.7c0.8,0,1.4-0.7,1.4-1.4C509.4,307.4,508.8,306.8,508.1,306.8"/>
	<path class="st3" d="M505.4,305.2h-4.9c-0.4,0-0.8-0.3-0.8-0.8s0.3-0.8,0.8-0.8h4.9c0.4,0,0.8,0.3,0.8,0.8
		C506.2,304.8,505.8,305.2,505.4,305.2"/>
	<path class="st3" d="M501.7,301.8c0-0.3,0.2-0.5,0.5-0.5h1.6c0.3,0,0.5,0.2,0.5,0.5s-0.2,0.5-0.5,0.5h-1.6
		C501.9,302.3,501.7,302.1,501.7,301.8"/>
</g>
<g>
	<path class="st2" d="M225.2,191.7h-15.4c-1.2,0-2.1,1-2.1,2.1s1,2.1,2.1,2.1h5.6v13.5c0,1.2,1,2.1,2.1,2.1s2.1-1,2.1-2.1v-13.5h5.6
		c1.2,0,2.1-1,2.1-2.1S226.4,191.7,225.2,191.7"/>
	<path class="st3" d="M221.1,189.3h-7.4c-0.6,0-1.2-0.5-1.2-1.2c0-0.6,0.5-1.2,1.2-1.2h7.4c0.6,0,1.2,0.5,1.2,1.2
		S221.8,189.3,221.1,189.3"/>
	<path class="st3" d="M215.5,184.2c0-0.4,0.3-0.7,0.7-0.7h2.4c0.4,0,0.7,0.3,0.7,0.7s-0.3,0.7-0.7,0.7h-2.4
		C215.9,184.9,215.5,184.6,215.5,184.2"/>
</g>
<g>
	<path class="st2" d="M205.9,186.7h-15.4c-1.2,0-2.1,1-2.1,2.1s1,2.1,2.1,2.1h5.6v13.5c0,1.2,1,2.1,2.1,2.1c1.2,0,2.1-1,2.1-2.1
		v-13.5h5.6c1.2,0,2.1-1,2.1-2.1S207,186.7,205.9,186.7"/>
	<path class="st3" d="M201.8,184.3h-7.4c-0.6,0-1.2-0.5-1.2-1.2s0.5-1.2,1.2-1.2h7.4c0.6,0,1.2,0.5,1.2,1.2S202.4,184.3,201.8,184.3
		"/>
	<path class="st3" d="M196.2,179.2c0-0.4,0.3-0.7,0.7-0.7h2.4c0.4,0,0.7,0.3,0.7,0.7s-0.3,0.7-0.7,0.7H197
		C196.5,179.9,196.2,179.6,196.2,179.2"/>
</g>
</svg>
